STARTFONT 2.1
COMMENT
COMMENT Converted from OpenType font "ComicCommunistNerd.ttf" by "otf2bdf 3.0".
COMMENT
FONT -FreeType-ComicCommunistNerd-Medium-R-Normal--27-200-96-96-P-215-ISO10646-1
SIZE 20 96 96
FONTBOUNDINGBOX 42 39 -1 -13
STARTPROPERTIES 19
FOUNDRY "FreeType"
FAMILY_NAME "ComicCommunistNerd"
WEIGHT_NAME "Medium"
SLANT "R"
SETWIDTH_NAME "Normal"
ADD_STYLE_NAME ""
PIXEL_SIZE 27
POINT_SIZE 200
RESOLUTION_X 96
RESOLUTION_Y 96
SPACING "P"
AVERAGE_WIDTH 215
CHARSET_REGISTRY "ISO10646"
CHARSET_ENCODING "1"
FONT_ASCENT 21
FONT_DESCENT 8
COPYRIGHT "-FreeType-ComicCommunistNerd-Medium-R-Normal--27-200-96-96-P-215-ISO10646-1"
_OTF_FONTFILE "ComicCommunistNerd.ttf"
_OTF_PSNAME "ComicCommunistNerd"
ENDPROPERTIES
CHARS 3808
STARTCHAR 0000
ENCODING 0
SWIDTH 0 0
DWIDTH 0 0
BBX 0 0 0 0
BITMAP
ENDCHAR
STARTCHAR 000D
ENCODING 13
SWIDTH 0 0
DWIDTH 0 0
BBX 0 0 0 0
BITMAP
ENDCHAR
STARTCHAR 0020
ENCODING 32
SWIDTH 562 0
DWIDTH 15 0
BBX 0 0 0 0
BITMAP
ENDCHAR
STARTCHAR 0021
ENCODING 33
SWIDTH 525 0
DWIDTH 14 0
BBX 4 22 5 -1
BITMAP
60
70
70
70
70
70
70
70
70
70
70
70
70
70
60
00
00
00
F0
F0
F0
60
ENDCHAR
STARTCHAR 0022
ENCODING 34
SWIDTH 562 0
DWIDTH 15 0
BBX 7 9 4 12
BITMAP
CE
EE
EE
EE
EE
EE
EE
EE
C6
ENDCHAR
STARTCHAR 0023
ENCODING 35
SWIDTH 562 0
DWIDTH 15 0
BBX 14 19 1 0
BITMAP
0630
0638
0E30
0E30
0E70
7FFC
7FFC
1C70
1C60
1C60
18E0
18E0
FFF8
FFF8
38C0
31C0
71C0
71C0
3180
ENDCHAR
STARTCHAR 0024
ENCODING 36
SWIDTH 525 0
DWIDTH 14 0
BBX 13 26 1 -3
BITMAP
0600
0700
0700
1FE0
3FF0
7700
E700
E700
E700
F700
7F00
3FE0
07F0
0770
0778
0738
0738
0738
C770
C770
F7E0
7FC0
3F00
0700
0700
0600
ENDCHAR
STARTCHAR 0025
ENCODING 37
SWIDTH 562 0
DWIDTH 15 0
BBX 14 20 1 -2
BITMAP
3818
7C38
EE38
C670
C660
FEE0
7CC0
01C0
0180
0380
0300
0700
0EF8
0CF8
1D8C
198C
399C
30F8
7078
6000
ENDCHAR
STARTCHAR 0026
ENCODING 38
SWIDTH 562 0
DWIDTH 15 0
BBX 14 19 1 -1
BITMAP
0F80
1FC0
3DE0
38E0
38E0
18E0
1FC0
0F80
1E00
3F00
738C
E1DC
E0D8
E0F8
E070
E0F8
71F8
3F9C
1F1C
ENDCHAR
STARTCHAR 0027
ENCODING 39
SWIDTH 525 0
DWIDTH 14 0
BBX 3 9 6 12
BITMAP
C0
E0
E0
E0
E0
E0
E0
E0
C0
ENDCHAR
STARTCHAR 0028
ENCODING 40
SWIDTH 562 0
DWIDTH 15 0
BBX 8 25 4 -4
BITMAP
07
1F
38
30
70
60
60
E0
E0
E0
E0
E0
E0
E0
E0
E0
E0
E0
70
70
70
38
1C
1F
07
ENDCHAR
STARTCHAR 0029
ENCODING 41
SWIDTH 562 0
DWIDTH 15 0
BBX 8 25 4 -4
BITMAP
E0
F0
38
1C
0C
0E
06
06
06
06
07
07
07
07
07
07
06
0E
0E
0E
1C
1C
38
F0
E0
ENDCHAR
STARTCHAR 002A
ENCODING 42
SWIDTH 562 0
DWIDTH 15 0
BBX 13 13 1 3
BITMAP
18C0
18C0
1DC0
0DC0
0F80
0780
FFF8
FFF8
0F80
0D80
1DC0
18C0
18C0
ENDCHAR
STARTCHAR 002B
ENCODING 43
SWIDTH 562 0
DWIDTH 15 0
BBX 11 11 2 6
BITMAP
0400
0E00
0E00
0E00
0E00
FFE0
FFE0
0E00
0E00
0E00
0E00
ENDCHAR
STARTCHAR 002C
ENCODING 44
SWIDTH 562 0
DWIDTH 15 0
BBX 5 10 4 -6
BITMAP
18
18
38
38
38
70
70
70
E0
C0
ENDCHAR
STARTCHAR 002D
ENCODING 45
SWIDTH 525 0
DWIDTH 14 0
BBX 8 2 3 7
BITMAP
FF
FF
ENDCHAR
STARTCHAR 002E
ENCODING 46
SWIDTH 525 0
DWIDTH 14 0
BBX 4 4 5 0
BITMAP
60
F0
F0
60
ENDCHAR
STARTCHAR 002F
ENCODING 47
SWIDTH 562 0
DWIDTH 15 0
BBX 13 22 1 -1
BITMAP
0018
0038
0038
0070
0070
00E0
00E0
01C0
0180
0380
0300
0700
0E00
0C00
1C00
1800
3800
7000
7000
E000
E000
C000
ENDCHAR
STARTCHAR 0030
ENCODING 48
SWIDTH 562 0
DWIDTH 15 0
BBX 13 20 1 -1
BITMAP
0F80
3FE0
78F0
7070
E070
E0F8
E1F8
E1B8
E3B8
E338
E638
EE38
FC38
F838
F030
E070
70F0
7FE0
3FC0
0600
ENDCHAR
STARTCHAR 0031
ENCODING 49
SWIDTH 562 0
DWIDTH 15 0
BBX 13 19 1 0
BITMAP
0600
1F00
3F00
7F00
7700
6700
0700
0700
0700
0700
0700
0700
0700
0700
0700
0700
0700
FFF8
FFF8
ENDCHAR
STARTCHAR 0032
ENCODING 50
SWIDTH 562 0
DWIDTH 15 0
BBX 13 19 1 0
BITMAP
0FC0
3FE0
7870
7030
6038
0038
0038
0070
01F0
03C0
0F80
1E00
3800
7000
7000
6000
E000
7FF8
7FF8
ENDCHAR
STARTCHAR 0033
ENCODING 51
SWIDTH 562 0
DWIDTH 15 0
BBX 12 20 2 -1
BITMAP
1F80
3FC0
70E0
E070
4070
0070
00E0
03E0
1F80
1FC0
01E0
0070
0070
0070
4070
E070
F0E0
7FE0
3FC0
0400
ENDCHAR
STARTCHAR 0034
ENCODING 52
SWIDTH 562 0
DWIDTH 15 0
BBX 13 20 1 -1
BITMAP
00C0
01E0
03E0
07E0
0EE0
0CE0
18E0
38E0
70E0
E0E0
E0E0
FFF8
FFF8
00E0
00E0
00E0
00E0
00E0
00E0
0040
ENDCHAR
STARTCHAR 0035
ENCODING 53
SWIDTH 562 0
DWIDTH 15 0
BBX 13 19 1 0
BITMAP
FFF0
FFF0
E000
E000
E000
E7C0
FFE0
F8F0
F070
4038
0038
0038
0038
0030
C070
E070
F1E0
7FC0
1F00
ENDCHAR
STARTCHAR 0036
ENCODING 54
SWIDTH 562 0
DWIDTH 15 0
BBX 13 21 1 -1
BITMAP
03C0
0FC0
1F00
3C00
7800
7000
6000
E7C0
FFF0
F870
F038
E038
E038
E038
E038
E038
7070
7070
3FE0
1FC0
0200
ENDCHAR
STARTCHAR 0037
ENCODING 55
SWIDTH 562 0
DWIDTH 15 0
BBX 13 19 1 -1
BITMAP
7FF8
FFF8
0038
0070
0060
00E0
00C0
01C0
0380
0300
0700
0600
0E00
0C00
1C00
3800
3800
7000
7000
ENDCHAR
STARTCHAR 0038
ENCODING 56
SWIDTH 562 0
DWIDTH 15 0
BBX 13 20 1 -1
BITMAP
1F80
3FE0
79E0
7070
E070
E070
7070
7DE0
1F80
3FE0
78F0
7078
E038
E038
E038
E038
7070
7FE0
3FC0
0600
ENDCHAR
STARTCHAR 0039
ENCODING 57
SWIDTH 562 0
DWIDTH 15 0
BBX 13 20 1 -1
BITMAP
0F80
3FE0
78E0
7070
E030
E038
E038
E038
E038
6038
7078
3FF8
1FB8
0038
0070
0070
00E0
03C0
3F80
3F00
ENDCHAR
STARTCHAR 003A
ENCODING 58
SWIDTH 562 0
DWIDTH 15 0
BBX 4 11 6 1
BITMAP
E0
F0
F0
E0
00
00
00
E0
F0
F0
E0
ENDCHAR
STARTCHAR 003B
ENCODING 59
SWIDTH 525 0
DWIDTH 14 0
BBX 5 17 4 -6
BITMAP
38
38
38
38
00
00
00
00
30
30
70
70
70
70
60
E0
60
ENDCHAR
STARTCHAR 003C
ENCODING 60
SWIDTH 562 0
DWIDTH 15 0
BBX 13 19 1 0
BITMAP
0038
0078
00F0
03E0
07C0
0F00
1E00
7C00
F000
F000
7800
3C00
1E00
0F00
0780
03E0
01F0
0078
0038
ENDCHAR
STARTCHAR 003D
ENCODING 61
SWIDTH 562 0
DWIDTH 15 0
BBX 10 7 2 7
BITMAP
FFC0
FFC0
0000
0000
0000
FFC0
FFC0
ENDCHAR
STARTCHAR 003E
ENCODING 62
SWIDTH 562 0
DWIDTH 15 0
BBX 13 19 1 0
BITMAP
E000
F000
7C00
1E00
0F00
0780
03C0
01E0
00F8
0078
0078
00F0
03E0
0780
0F00
3E00
7C00
F000
E000
ENDCHAR
STARTCHAR 003F
ENCODING 63
SWIDTH 525 0
DWIDTH 14 0
BBX 11 20 2 -1
BITMAP
1F00
3FC0
71C0
E0E0
E0E0
00E0
00E0
01C0
0380
0700
0E00
0E00
0C00
0C00
0000
0000
1E00
1E00
1E00
0C00
ENDCHAR
STARTCHAR 0040
ENCODING 64
SWIDTH 562 0
DWIDTH 15 0
BBX 14 22 1 -3
BITMAP
07C0
0FF0
1C70
3838
3018
7018
638C
EFCC
EC0C
F84C
F8CC
F8CC
F8CC
FFEC
EF78
E038
6000
7018
3838
3C70
1FF0
07C0
ENDCHAR
STARTCHAR 0041
ENCODING 65
SWIDTH 562 0
DWIDTH 15 0
BBX 15 19 0 0
BITMAP
00C0
01E0
01E0
0360
0360
0660
0670
0E30
0C30
1C30
1BF8
7FF8
F818
3018
701C
701C
600C
E00E
400C
ENDCHAR
STARTCHAR 0042
ENCODING 66
SWIDTH 562 0
DWIDTH 15 0
BBX 15 21 -1 0
BITMAP
3000
3800
3FC0
3FF0
3878
3838
381C
381C
381C
3838
3878
3FE0
3FF8
383C
381E
380E
380C
381C
3878
FFF0
FF80
ENDCHAR
STARTCHAR 0043
ENCODING 67
SWIDTH 562 0
DWIDTH 15 0
BBX 14 19 1 0
BITMAP
01F0
07F8
0F3C
1C1C
3C18
3800
7000
7000
6000
E000
E000
E000
E000
E000
E000
701C
7878
3FF0
0FC0
ENDCHAR
STARTCHAR 0044
ENCODING 68
SWIDTH 562 0
DWIDTH 15 0
BBX 16 19 -1 0
BITMAP
3C00
3F80
3FE0
39F0
3878
383C
381C
380E
380E
3806
3807
3807
3807
3807
380E
380E
FC1C
FFF8
7FF0
ENDCHAR
STARTCHAR 0045
ENCODING 69
SWIDTH 562 0
DWIDTH 15 0
BBX 14 20 1 0
BITMAP
000C
7FFC
FFF8
E038
E018
E000
E000
E000
E000
FFF8
FFF0
F000
E000
E000
E000
E018
E018
E018
FFF8
7FF8
ENDCHAR
STARTCHAR 0046
ENCODING 70
SWIDTH 562 0
DWIDTH 15 0
BBX 13 19 1 0
BITMAP
7FF8
FFF8
E000
E000
E000
E000
E000
E000
FFF0
FFF0
E000
E000
E000
E000
E000
E000
E000
E000
C000
ENDCHAR
STARTCHAR 0047
ENCODING 71
SWIDTH 600 0
DWIDTH 16 0
BBX 14 19 1 0
BITMAP
01F0
07FC
0F1C
1E00
3C00
3800
7000
7000
6000
E0F8
EFF8
EF98
E018
E038
E070
7060
79E0
3FC0
0F00
ENDCHAR
STARTCHAR 0048
ENCODING 72
SWIDTH 562 0
DWIDTH 15 0
BBX 19 19 -1 0
BITMAP
300C00
380E00
380E00
380E00
380E00
380E00
380E00
387FE0
FFFF80
FFCE00
380E00
380E00
380E00
380E00
380E00
380E00
380E00
380E00
300C00
ENDCHAR
STARTCHAR 0049
ENCODING 73
SWIDTH 562 0
DWIDTH 15 0
BBX 13 25 1 0
BITMAP
0380
0780
0780
0100
0000
0200
0700
0700
0700
0700
0700
0700
0700
0700
0700
0700
0700
0700
0700
0700
0700
0700
0700
FFF8
FFF8
ENDCHAR
STARTCHAR 004A
ENCODING 74
SWIDTH 562 0
DWIDTH 15 0
BBX 10 21 1 0
BITMAP
0180
01C0
01C0
01C0
01C0
01C0
01C0
01C0
01C0
01C0
01C0
01C0
01C0
01C0
C1C0
E1C0
E180
6180
3B80
1F80
0F00
ENDCHAR
STARTCHAR 004B
ENCODING 75
SWIDTH 562 0
DWIDTH 15 0
BBX 13 19 1 -1
BITMAP
C030
E070
E0E0
E1C0
E380
E700
EE00
FC00
F800
F800
FC00
FE00
EF00
E780
E3C0
E0E0
E070
E038
C018
ENDCHAR
STARTCHAR 004C
ENCODING 76
SWIDTH 525 0
DWIDTH 14 0
BBX 14 19 0 0
BITMAP
6000
7000
7000
7000
7000
7000
7000
7000
7000
7000
7000
7000
7000
6000
6000
6000
6078
FFFC
7FF8
ENDCHAR
STARTCHAR 004D
ENCODING 77
SWIDTH 600 0
DWIDTH 16 0
BBX 14 19 1 0
BITMAP
3838
787C
787C
7C7C
7C7C
6CDC
6CDC
ECDC
ECDC
ECDC
EEDC
E6DC
E7DC
E7DC
E79C
E79C
E79C
E39C
C30C
ENDCHAR
STARTCHAR 004E
ENCODING 78
SWIDTH 562 0
DWIDTH 15 0
BBX 13 19 1 0
BITMAP
E038
F038
F038
F838
F838
FC38
EC38
EC38
E638
E638
E338
E338
E1B8
E1F8
E0F8
E0F8
E078
E038
C038
ENDCHAR
STARTCHAR 004F
ENCODING 79
SWIDTH 562 0
DWIDTH 15 0
BBX 13 20 1 -1
BITMAP
0F80
1FE0
38F0
7070
7038
E038
E038
E038
E038
E038
E038
E038
E038
E038
E038
E070
70F0
3FE0
1FC0
0400
ENDCHAR
STARTCHAR 0050
ENCODING 80
SWIDTH 525 0
DWIDTH 14 0
BBX 12 19 1 0
BITMAP
FF80
FFC0
E1E0
E070
E070
E070
E070
E070
E060
E1E0
FFC0
FF80
E000
E000
E000
E000
E000
E000
E000
ENDCHAR
STARTCHAR 0051
ENCODING 81
SWIDTH 562 0
DWIDTH 15 0
BBX 13 24 1 -6
BITMAP
0780
1FE0
38F0
7070
7030
6038
E038
E038
E038
E038
E038
E038
E038
E238
E738
7330
73F0
3FE0
1FC0
02E0
00E0
0070
0038
0038
ENDCHAR
STARTCHAR 0052
ENCODING 82
SWIDTH 562 0
DWIDTH 15 0
BBX 13 19 1 0
BITMAP
FE00
FF80
EFE0
E1E0
E070
E078
E038
E038
E070
FFE0
FF80
FE00
EF00
E380
E1E0
E0F0
E070
E038
E018
ENDCHAR
STARTCHAR 0053
ENCODING 83
SWIDTH 525 0
DWIDTH 14 0
BBX 14 19 0 0
BITMAP
07F8
1FF8
3C18
7000
7000
7000
7000
3F00
1FF0
01F8
0038
001C
001C
001C
0018
E038
F9F0
7FE0
1F80
ENDCHAR
STARTCHAR 0054
ENCODING 84
SWIDTH 562 0
DWIDTH 15 0
BBX 13 19 1 0
BITMAP
FFF8
FFF8
0700
0700
0700
0700
0700
0700
0700
0700
0700
0700
0700
0700
0700
0700
0700
0700
0300
ENDCHAR
STARTCHAR 0055
ENCODING 85
SWIDTH 562 0
DWIDTH 15 0
BBX 14 19 1 0
BITMAP
C018
E01C
E01C
E01C
E01C
E01C
E01C
E01C
E01C
E01C
E01C
E01C
E01C
E018
E018
7038
78F0
3FE0
0F80
ENDCHAR
STARTCHAR 0056
ENCODING 86
SWIDTH 562 0
DWIDTH 15 0
BBX 14 19 0 0
BITMAP
C00C
E01C
E01C
E018
6038
7038
7030
3030
3870
3860
1860
1CE0
1CC0
0CC0
0FC0
0780
0780
0780
0300
ENDCHAR
STARTCHAR 0057
ENCODING 87
SWIDTH 600 0
DWIDTH 16 0
BBX 14 19 1 0
BITMAP
E38C
E39C
E39C
E79C
E79C
E79C
E69C
66DC
66DC
66D8
66D8
64D8
7CD8
7CD8
7CD8
7CF8
3C78
3C70
3870
ENDCHAR
STARTCHAR 0058
ENCODING 88
SWIDTH 562 0
DWIDTH 15 0
BBX 14 20 0 -1
BITMAP
6018
E018
7038
3870
3870
1CE0
0EC0
0FC0
0780
0780
0780
0FC0
1DC0
18E0
3860
7070
7038
E038
C01C
0008
ENDCHAR
STARTCHAR 0059
ENCODING 89
SWIDTH 562 0
DWIDTH 15 0
BBX 14 19 0 0
BITMAP
E00C
E01C
601C
7038
3038
3870
1C70
1CE0
0EC0
07C0
0780
0380
0300
0700
0E00
0E00
1C00
1C00
1800
ENDCHAR
STARTCHAR 005A
ENCODING 90
SWIDTH 562 0
DWIDTH 15 0
BBX 13 19 1 0
BITMAP
7FF8
FFF8
0070
00E0
00E0
01C0
0380
0380
0700
0E00
0E00
1C00
3800
3800
7000
7000
E000
FFF8
FFF8
ENDCHAR
STARTCHAR 005B
ENCODING 91
SWIDTH 562 0
DWIDTH 15 0
BBX 10 25 3 -2
BITMAP
FF80
FF80
E000
E000
E000
E000
E000
E000
E000
E000
E000
E000
E000
E000
E000
E000
E000
E000
E000
E000
E000
E000
E000
FFC0
FF80
ENDCHAR
STARTCHAR 005C
ENCODING 92
SWIDTH 562 0
DWIDTH 15 0
BBX 13 22 1 -1
BITMAP
C000
E000
E000
F000
7000
3800
3800
1C00
1C00
0E00
0600
0700
0300
0380
01C0
00C0
00E0
0060
0070
0078
0038
0018
ENDCHAR
STARTCHAR 005D
ENCODING 93
SWIDTH 562 0
DWIDTH 15 0
BBX 10 25 3 -2
BITMAP
FFC0
FFC0
01C0
01C0
01C0
01C0
01C0
01C0
01C0
01C0
01C0
01C0
01C0
01C0
01C0
01C0
01C0
01C0
01C0
01C0
01C0
01C0
01C0
FFC0
FFC0
ENDCHAR
STARTCHAR 005E
ENCODING 94
SWIDTH 562 0
DWIDTH 15 0
BBX 14 9 0 17
BITMAP
0380
0780
0FC0
1EE0
3CF0
3878
703C
E01C
400C
ENDCHAR
STARTCHAR 005F
ENCODING 95
SWIDTH 562 0
DWIDTH 15 0
BBX 13 2 1 -3
BITMAP
FFF8
FFF8
ENDCHAR
STARTCHAR 0060
ENCODING 96
SWIDTH 562 0
DWIDTH 15 0
BBX 6 5 4 17
BITMAP
C0
E0
F8
3C
0C
ENDCHAR
STARTCHAR 0061
ENCODING 97
SWIDTH 525 0
DWIDTH 14 0
BBX 12 14 1 0
BITMAP
07C0
1FF0
38F0
7070
6070
E070
E070
E070
E070
E0F0
E0F0
73F0
3F70
1E30
ENDCHAR
STARTCHAR 0062
ENCODING 98
SWIDTH 562 0
DWIDTH 15 0
BBX 13 21 2 0
BITMAP
C000
E000
E000
E000
E000
E000
E000
EF80
FFE0
F8F0
E070
E030
E038
E038
E038
E038
E070
E070
F0E0
FFC0
CF80
ENDCHAR
STARTCHAR 0063
ENCODING 99
SWIDTH 525 0
DWIDTH 14 0
BBX 12 14 1 0
BITMAP
0780
1FE0
3CE0
7070
7070
E000
E000
E000
E000
E020
E070
70F0
3FE0
1F80
ENDCHAR
STARTCHAR 0064
ENCODING 100
SWIDTH 562 0
DWIDTH 15 0
BBX 13 21 1 0
BITMAP
0030
0038
0038
0038
0038
0038
0038
1FB8
3FF8
78F8
7078
E038
E038
E038
E038
E038
E038
7078
78F8
3FF8
0F18
ENDCHAR
STARTCHAR 0065
ENCODING 101
SWIDTH 525 0
DWIDTH 14 0
BBX 12 14 1 0
BITMAP
0F80
3FC0
79E0
7070
E070
E3E0
FF80
FE00
F000
E020
E070
70F0
3FE0
1F80
ENDCHAR
STARTCHAR 0066
ENCODING 102
SWIDTH 562 0
DWIDTH 15 0
BBX 11 21 2 0
BITMAP
01E0
07E0
0F00
1C00
1C00
3800
3800
3800
FFE0
FFE0
3800
3800
3800
3800
3800
3800
3800
3800
1800
FFC0
FFC0
ENDCHAR
STARTCHAR 0067
ENCODING 103
SWIDTH 562 0
DWIDTH 15 0
BBX 12 22 2 -8
BITMAP
0FE0
1FE0
3870
7070
E070
E070
E070
E070
E070
E070
E0F0
71F0
7FF0
3E70
0070
0060
00E0
00E0
01C0
C7C0
FF80
3E00
ENDCHAR
STARTCHAR 0068
ENCODING 104
SWIDTH 562 0
DWIDTH 15 0
BBX 12 21 2 -1
BITMAP
C000
E000
E000
E000
E000
E000
E000
E7C0
FFE0
FCE0
F070
F070
E070
E070
E070
E070
E070
E070
E070
E070
E070
ENDCHAR
STARTCHAR 0069
ENCODING 105
SWIDTH 525 0
DWIDTH 14 0
BBX 9 19 3 0
BITMAP
0300
0780
0780
0300
0000
FF00
FF00
7F00
0700
0700
0700
0700
0700
0700
0700
0700
0700
0700
0700
ENDCHAR
STARTCHAR 006A
ENCODING 106
SWIDTH 562 0
DWIDTH 15 0
BBX 12 27 1 -8
BITMAP
0060
00F0
00F0
0060
0000
0000
00E0
00E0
00E0
00E0
00E0
00E0
00E0
00E0
00E0
00E0
00E0
00E0
00E0
C0E0
E0E0
E0E0
E1E0
E3C0
FF80
FF00
FC00
ENDCHAR
STARTCHAR 006B
ENCODING 107
SWIDTH 562 0
DWIDTH 15 0
BBX 12 21 2 -1
BITMAP
C000
E000
E000
E000
E000
E000
E000
E0E0
E1E0
E3C0
E700
EE00
FE00
FE00
F700
E380
E3C0
E1C0
E0E0
E070
E070
ENDCHAR
STARTCHAR 006C
ENCODING 108
SWIDTH 525 0
DWIDTH 14 0
BBX 13 21 1 0
BITMAP
7F00
7F00
0700
0700
0700
0700
0700
0700
0700
0700
0700
0700
0700
0700
0700
0700
0700
0700
0700
FFF8
FFF8
ENDCHAR
STARTCHAR 006D
ENCODING 109
SWIDTH 562 0
DWIDTH 15 0
BBX 13 15 1 -1
BITMAP
EE70
FEF8
F7B8
E738
E738
E738
E738
E738
E738
E738
E738
E738
E738
E738
0210
ENDCHAR
STARTCHAR 006E
ENCODING 110
SWIDTH 562 0
DWIDTH 15 0
BBX 12 15 2 -1
BITMAP
E780
FFC0
F8E0
F0E0
E0E0
E0E0
E0E0
E0E0
E0E0
E060
E070
E070
E070
E070
0020
ENDCHAR
STARTCHAR 006F
ENCODING 111
SWIDTH 525 0
DWIDTH 14 0
BBX 12 15 1 -1
BITMAP
0F80
3FC0
79E0
70E0
E070
E070
E070
E070
E070
E070
E070
70E0
3FE0
1FC0
0400
ENDCHAR
STARTCHAR 0070
ENCODING 112
SWIDTH 562 0
DWIDTH 15 0
BBX 12 23 2 -8
BITMAP
E000
EF80
FFC0
F9E0
E0E0
E060
E070
E070
E070
E070
E060
E0E0
E1E0
FFC0
FF00
E000
E000
E000
E000
E000
E000
E000
C000
ENDCHAR
STARTCHAR 0071
ENCODING 113
SWIDTH 525 0
DWIDTH 14 0
BBX 12 22 1 -8
BITMAP
0FC0
1FF0
3870
7070
6070
E070
E070
E070
E070
E070
7070
78F0
3FF0
1FF0
0070
0070
0070
0070
0070
0070
0070
0060
ENDCHAR
STARTCHAR 0072
ENCODING 114
SWIDTH 562 0
DWIDTH 15 0
BBX 11 15 2 -1
BITMAP
61C0
E7E0
FFE0
F8E0
F0E0
E040
E000
E000
E000
E000
E000
E000
E000
E000
4000
ENDCHAR
STARTCHAR 0073
ENCODING 115
SWIDTH 525 0
DWIDTH 14 0
BBX 12 14 1 0
BITMAP
07C0
3FE0
7CE0
6060
E040
7E00
3FC0
07E0
00F0
0070
E0F0
E3E0
7FC0
3F00
ENDCHAR
STARTCHAR 0074
ENCODING 116
SWIDTH 525 0
DWIDTH 14 0
BBX 11 19 1 0
BITMAP
3000
3800
3800
3800
3800
FFE0
FFE0
3800
3800
3800
3800
3800
3800
3800
3800
3800
1C20
1FE0
07C0
ENDCHAR
STARTCHAR 0075
ENCODING 117
SWIDTH 562 0
DWIDTH 15 0
BBX 12 14 2 -1
BITMAP
C060
E070
E070
E070
E070
E070
E070
E070
E070
E070
E0F0
F3F0
7FF0
3E70
ENDCHAR
STARTCHAR 0076
ENCODING 118
SWIDTH 562 0
DWIDTH 15 0
BBX 13 14 1 0
BITMAP
E018
E038
E038
7070
7070
3860
38E0
18C0
1DC0
0D80
0F80
0700
0700
0200
ENDCHAR
STARTCHAR 0077
ENCODING 119
SWIDTH 562 0
DWIDTH 15 0
BBX 14 14 0 1
BITMAP
C30C
C78C
C79C
E79C
E79C
E798
6598
6DD8
6CD8
7CD8
3CF0
38F0
38F0
1860
ENDCHAR
STARTCHAR 0078
ENCODING 120
SWIDTH 562 0
DWIDTH 15 0
BBX 13 15 1 0
BITMAP
0060
0060
0C30
3830
7818
FC18
0E30
0730
03F0
01E0
01C0
3FE0
7F70
7438
6018
ENDCHAR
STARTCHAR 0079
ENCODING 121
SWIDTH 562 0
DWIDTH 15 0
BBX 14 22 0 -9
BITMAP
600C
E01C
701C
7038
7038
3870
3870
1C60
1CE0
0CE0
0FC0
07C0
0780
0380
0700
0700
0E00
0E00
1C00
1C00
3800
3800
ENDCHAR
STARTCHAR 007A
ENCODING 122
SWIDTH 562 0
DWIDTH 15 0
BBX 12 13 2 1
BITMAP
FFF0
FFF0
00E0
01E0
03C0
0780
0F00
1E00
3800
7000
E000
FFF0
FFF0
ENDCHAR
STARTCHAR 007B
ENCODING 123
SWIDTH 525 0
DWIDTH 14 0
BBX 12 25 1 -3
BITMAP
01F0
03F0
0700
0E00
0E00
0E00
0E00
0E00
0700
0700
0700
FC00
FC00
0E00
0300
0300
0700
0600
0E00
0E00
0E00
0E00
0F80
07F0
01F0
ENDCHAR
STARTCHAR 007C
ENCODING 124
SWIDTH 562 0
DWIDTH 15 0
BBX 3 28 6 -5
BITMAP
40
E0
E0
E0
E0
E0
E0
E0
E0
E0
E0
E0
E0
E0
E0
E0
E0
E0
E0
E0
E0
E0
E0
E0
E0
E0
E0
C0
ENDCHAR
STARTCHAR 007D
ENCODING 125
SWIDTH 562 0
DWIDTH 15 0
BBX 11 25 2 -3
BITMAP
F800
FE00
0E00
0700
0700
0600
0E00
0E00
0C00
1C00
0F00
03E0
03E0
0E00
1C00
0E00
0E00
0E00
0700
0700
0700
0E00
1E00
FC00
F000
ENDCHAR
STARTCHAR 007E
ENCODING 126
SWIDTH 562 0
DWIDTH 15 0
BBX 14 7 0 7
BITMAP
1E04
3E0C
3F1C
7398
63F8
E1F0
40E0
ENDCHAR
STARTCHAR 2013
ENCODING 8211
SWIDTH 525 0
DWIDTH 14 0
BBX 10 2 2 7
BITMAP
FFC0
FFC0
ENDCHAR
STARTCHAR 2014
ENCODING 8212
SWIDTH 562 0
DWIDTH 15 0
BBX 13 2 1 7
BITMAP
FFF8
FFF8
ENDCHAR
STARTCHAR 2018
ENCODING 8216
SWIDTH 562 0
DWIDTH 15 0
BBX 5 7 4 13
BITMAP
C0
E0
E0
70
70
38
38
ENDCHAR
STARTCHAR 2019
ENCODING 8217
SWIDTH 562 0
DWIDTH 15 0
BBX 5 7 5 11
BITMAP
30
38
70
70
E0
E0
E0
ENDCHAR
STARTCHAR 201A
ENCODING 8218
SWIDTH 562 0
DWIDTH 15 0
BBX 4 7 5 13
BITMAP
C0
E0
E0
E0
70
70
70
ENDCHAR
STARTCHAR 201C
ENCODING 8220
SWIDTH 562 0
DWIDTH 15 0
BBX 9 8 3 13
BITMAP
0E00
4E00
C600
E700
E780
7380
7B00
3000
ENDCHAR
STARTCHAR 201D
ENCODING 8221
SWIDTH 562 0
DWIDTH 15 0
BBX 9 9 3 12
BITMAP
3800
3900
7380
7380
F700
E700
EE00
0E00
0400
ENDCHAR
STARTCHAR 2022
ENCODING 8226
SWIDTH 562 0
DWIDTH 15 0
BBX 5 5 5 9
BITMAP
70
F8
F8
F8
70
ENDCHAR
STARTCHAR 23FB
ENCODING 9211
SWIDTH 825 0
DWIDTH 22 0
BBX 22 26 0 -7
BITMAP
003000
007800
007800
007800
007800
007800
187860
3C78F0
3C78F0
7C78F8
787878
F0783C
F0783C
F0783C
F0783C
F0383C
F0003C
F0003C
780078
7C00F8
3E01F0
3F03F0
1FFFE0
0FFFC0
03FF00
00FC00
ENDCHAR
STARTCHAR 23FC
ENCODING 9212
SWIDTH 937 0
DWIDTH 25 0
BBX 25 25 0 -6
BITMAP
007F0000
03FFC000
07FFF000
0FFFF800
1FC3FC00
3F007E00
3E003E00
7C181F00
783C0F00
F83C0F80
F03C0F80
F03C0780
F03C0780
F03C0780
F03C0780
F83C0F80
783C0F00
7C3C1F00
7E183F00
3F007E00
1FC1FC00
0FFFF800
07FFF000
03FFE000
007F0000
ENDCHAR
STARTCHAR 23FD
ENCODING 9213
SWIDTH 562 0
DWIDTH 15 0
BBX 4 25 5 -6
BITMAP
60
F0
F0
F0
F0
F0
F0
F0
F0
F0
F0
F0
F0
F0
F0
F0
F0
F0
F0
F0
F0
F0
F0
F0
60
ENDCHAR
STARTCHAR 23FE
ENCODING 9214
SWIDTH 675 0
DWIDTH 18 0
BBX 17 24 0 -6
BITMAP
020000
060000
0C0000
1C0000
3C0000
7C0000
7C0000
780000
FC0000
FC0000
FC0000
FC0000
FC0000
FE0000
FE0000
7F0000
7F0000
3F8000
3FC000
1FE000
0FF000
07FC00
01FF80
003E00
ENDCHAR
STARTCHAR 2665
ENCODING 9829
SWIDTH 750 0
DWIDTH 20 0
BBX 20 18 0 -3
BITMAP
3F0FC0
7F9FE0
FFFFF0
FFFFF0
FFFFF0
FFFFF0
FFFFF0
FFFFF0
7FFFE0
7FFFE0
3FFFC0
1FFF80
0FFF00
07FE00
03FC00
01F800
00F000
004000
ENDCHAR
STARTCHAR 26A1
ENCODING 9889
SWIDTH 637 0
DWIDTH 17 0
BBX 16 25 0 -6
BITMAP
0002
0004
000C
0018
0038
0070
00F0
01F0
03E0
07E0
0FC0
1FFF
3FFE
7FFC
81F8
03F0
03E0
07C0
0780
0F00
0E00
0C00
1800
1000
2000
ENDCHAR
STARTCHAR 2B58
ENCODING 11096
SWIDTH 900 0
DWIDTH 24 0
BBX 24 24 0 -6
BITMAP
00FF00
03FFC0
07FFE0
1FFFF8
1F81F8
3E007C
7C003E
78001E
F8001E
F0000F
F0000F
F0000F
F0000F
F0000F
F0001F
78001E
78001E
7C003E
3F00FC
1F83F8
0FFFF0
07FFE0
03FFC0
007E00
ENDCHAR
STARTCHAR E000
ENCODING 57344
SWIDTH 787 0
DWIDTH 21 0
BBX 21 19 0 -3
BITMAP
030180
030180
FFFFF8
FFFFF8
0600C0
0630C0
0630C0
77FFF8
77FFF8
0E00C0
0E00C0
0C0060
0C0060
0C0060
0C0060
0C0060
0C0060
0C0060
0C0060
ENDCHAR
STARTCHAR E001
ENCODING 57345
SWIDTH 750 0
DWIDTH 20 0
BBX 20 21 0 -4
BITMAP
00C000
00C000
3EC600
6F5FC0
03DC00
1FDF00
3FFFC0
7FFBE0
7FF8E0
FFFCF0
FFFC70
FFFE70
FFFE70
FFFF70
FFFFE0
7FFFE0
7FFFE0
3FFFC0
1FFF80
0FFF00
03FC00
ENDCHAR
STARTCHAR E002
ENCODING 57346
SWIDTH 750 0
DWIDTH 20 0
BBX 20 21 0 -4
BITMAP
00C000
00C000
3EC700
6F5FC0
03DC00
1FDF80
3FFFC0
70F0E0
600060
C00030
C00030
C00030
C00030
C00030
E00070
600060
7000E0
3801C0
1E0780
0FFF00
03F800
ENDCHAR
STARTCHAR E003
ENCODING 57347
SWIDTH 750 0
DWIDTH 20 0
BBX 20 21 0 -4
BITMAP
00C000
00C000
3EC780
6F5FC0
03DC00
1FFF80
3FFFC0
7FFFE0
7FFFE0
FCFFF0
FC7FF0
FF1FF0
FF9FF0
FF9FF0
FF9FF0
7F9FE0
7F9FE0
3F9FC0
1FFF80
0FFF00
03FC00
ENDCHAR
STARTCHAR E004
ENCODING 57348
SWIDTH 750 0
DWIDTH 20 0
BBX 20 21 0 -4
BITMAP
00C000
00C000
3EC700
6F5FC0
03DC00
1FDF80
3FFFC0
70F0E0
600060
C00030
C00030
C00030
C00030
FFFFF0
FFFFF0
7FFFE0
7FFFE0
3FFFC0
1FFF80
0FFF00
01FC00
ENDCHAR
STARTCHAR E005
ENCODING 57349
SWIDTH 787 0
DWIDTH 21 0
BBX 21 20 0 -3
BITMAP
008000
02C000
024000
036000
014000
010000
000000
000000
FFFE00
FFFFF0
FFFFF8
FFFF18
FFFF18
FFFFF8
FFFDF0
FFFC40
7FFC00
3FF800
1FF000
0FC000
ENDCHAR
STARTCHAR E006
ENCODING 57350
SWIDTH 750 0
DWIDTH 20 0
BBX 20 21 0 -4
BITMAP
038000
0FF7C0
1FFFE0
00FF10
07FF80
0FFFC0
1FFFE0
3C7EE0
20E760
00E720
00E300
01E100
01C100
01C000
01C000
0FD800
3FDE00
7FDF00
FFFF80
7FFE00
0FF800
ENDCHAR
STARTCHAR E007
ENCODING 57351
SWIDTH 712 0
DWIDTH 19 0
BBX 19 21 0 -4
BITMAP
1E0000
3F0000
7F0000
7F8000
FF8000
CCC000
CCE000
CCF000
CFF800
FFFFC0
7FFFE0
7FFFE0
7FFFC0
3FFF00
3FFF80
1FFF80
0FFF00
0FF000
07F000
03F000
00F000
ENDCHAR
STARTCHAR E008
ENCODING 57352
SWIDTH 750 0
DWIDTH 20 0
BBX 20 22 0 -5
BITMAP
00C000
00C000
1EC780
7FEFE0
03EC00
0FEF80
3FEFC0
7FEFE0
7FEFE0
FC6FF0
FC0FF0
F99FF0
FBFFF0
FBFFF0
FBFFE0
7D0FE0
7C4FE0
7FEFC0
3FEF80
1FEF00
07EC00
006000
ENDCHAR
STARTCHAR E009
ENCODING 57353
SWIDTH 562 0
DWIDTH 15 0
BBX 5 20 5 -4
BITMAP
F8
F8
F8
F8
F8
F8
F8
F8
F8
F8
F8
F8
70
00
00
70
F8
F8
F8
70
ENDCHAR
STARTCHAR E00A
ENCODING 57354
SWIDTH 562 0
DWIDTH 15 0
BBX 11 20 2 -4
BITMAP
7E00
7E00
7E00
7C00
7C00
FC20
FDC0
FFC0
FF80
FF80
EF00
0F00
0E00
0E00
0C00
1C00
1800
1800
1000
1000
ENDCHAR
STARTCHAR E0A0
ENCODING 57504
SWIDTH 562 0
DWIDTH 15 0
BBX 12 30 1 -9
BITMAP
F000
F000
F000
F000
F180
F3C0
F3E0
F7F0
F180
F180
F180
F180
F180
F180
F180
C380
8780
0F00
3E00
7C00
7800
F000
F000
F000
F000
F000
F000
F000
F000
F000
ENDCHAR
STARTCHAR E0A1
ENCODING 57505
SWIDTH 562 0
DWIDTH 15 0
BBX 9 25 3 -6
BITMAP
C000
C000
C000
C000
C000
C000
C000
C000
C000
C000
FE00
FE00
0000
3180
3180
3980
3980
3D80
2D80
2D80
2780
3780
3780
3380
3380
ENDCHAR
STARTCHAR E0A2
ENCODING 57506
SWIDTH 562 0
DWIDTH 15 0
BBX 10 21 2 -4
BITMAP
1E00
3F00
3300
6180
6180
6180
6180
6180
6180
FFC0
FFC0
F3C0
E1C0
F3C0
F3C0
F3C0
F3C0
F3C0
FFC0
FFC0
FFC0
ENDCHAR
STARTCHAR E0A3
ENCODING 57507
SWIDTH 562 0
DWIDTH 15 0
BBX 11 26 2 -7
BITMAP
FF00
FF00
C000
C000
C000
C000
C000
C000
C000
C000
FF00
FF00
0000
38E0
38E0
3CE0
3CE0
3EE0
3E60
3760
3760
33E0
33E0
31E0
31E0
30E0
ENDCHAR
STARTCHAR E0B0
ENCODING 57520
SWIDTH 562 0
DWIDTH 15 0
BBX 14 29 0 -9
BITMAP
8000
8000
C000
E000
F000
F800
FC00
FE00
FF00
FF80
FFC0
FFE0
FFF0
FFF8
FFFC
FFF8
FFF0
FFF0
FFC0
FFC0
FF80
FF00
FE00
FC00
F800
F000
E000
C000
8000
ENDCHAR
STARTCHAR E0B1
ENCODING 57521
SWIDTH 562 0
DWIDTH 15 0
BBX 15 29 0 -9
BITMAP
4000
E000
7000
3800
1800
0C00
0600
0300
0180
00C0
00E0
0070
0038
001C
000E
000C
0018
0030
0060
00C0
01C0
0380
0700
0E00
1C00
3800
3000
6000
C000
ENDCHAR
STARTCHAR E0B2
ENCODING 57522
SWIDTH 562 0
DWIDTH 15 0
BBX 14 29 1 -9
BITMAP
0004
000C
001C
003C
007C
007C
00FC
01FC
03FC
07FC
0FFC
1FFC
3FFC
7FFC
FFFC
FFFC
7FFC
3FFC
1FFC
0FFC
07FC
03FC
01FC
00FC
007C
003C
001C
000C
0004
ENDCHAR
STARTCHAR E0B3
ENCODING 57523
SWIDTH 562 0
DWIDTH 15 0
BBX 15 29 0 -9
BITMAP
0004
000E
001C
0038
0070
00E0
00C0
0180
0300
0600
0C00
1800
3800
7000
E000
6000
3000
1800
1C00
0E00
0700
0380
01C0
00C0
0060
0030
0018
000C
0006
ENDCHAR
STARTCHAR E0B4
ENCODING 57524
SWIDTH 600 0
DWIDTH 16 0
BBX 16 29 0 -8
BITMAP
F000
FE00
FF80
FFC0
FFE0
FFF0
FFF8
FFFC
FFFC
FFFE
FFFE
FFFE
FFFF
FFFF
FFFF
FFFF
FFFF
FFFE
FFFE
FFFE
FFFE
FFFC
FFF8
FFF8
FFF0
FFC0
FF80
FE00
F800
ENDCHAR
STARTCHAR E0B5
ENCODING 57525
SWIDTH 562 0
DWIDTH 15 0
BBX 9 29 1 -8
BITMAP
C000
6000
3000
1800
0C00
0600
0600
0300
0300
0300
0100
0180
0180
0180
0180
0180
0180
0180
0180
0300
0300
0300
0600
0600
0C00
1800
1800
3000
C000
ENDCHAR
STARTCHAR E0B6
ENCODING 57526
SWIDTH 600 0
DWIDTH 16 0
BBX 16 29 0 -8
BITMAP
000F
007F
01FF
03FF
0FFF
1FFF
1FFF
3FFF
7FFF
7FFF
7FFF
FFFF
FFFF
FFFF
FFFF
FFFF
FFFF
FFFF
FFFF
7FFF
7FFF
3FFF
3FFF
1FFF
0FFF
07FF
01FF
007F
001F
ENDCHAR
STARTCHAR E0B7
ENCODING 57527
SWIDTH 562 0
DWIDTH 15 0
BBX 9 29 5 -8
BITMAP
0180
0300
0600
0C00
1800
3000
3000
6000
6000
6000
C000
C000
C000
C000
C000
C000
C000
C000
C000
6000
6000
6000
3000
3000
1800
1C00
0C00
0600
0180
ENDCHAR
STARTCHAR E0B8
ENCODING 57528
SWIDTH 1237 0
DWIDTH 33 0
BBX 33 30 0 -9
BITMAP
8000000000
C000000000
E000000000
F000000000
F800000000
FC00000000
FE00000000
FF00000000
FFC0000000
FFE0000000
FFF0000000
FFF8000000
FFFC000000
FFFE000000
FFFF000000
FFFFC00000
FFFFE00000
FFFFF00000
FFFFF80000
FFFFFC0000
FFFFFE0000
FFFFFF0000
FFFFFF8000
FFFFFFE000
FFFFFFF000
FFFFFFF800
FFFFFFFC00
FFFFFFFE00
FFFFFFFF00
FFFFFFFF80
ENDCHAR
STARTCHAR E0B9
ENCODING 57529
SWIDTH 1312 0
DWIDTH 35 0
BBX 34 30 1 -9
BITMAP
8000000000
4000000000
2000000000
1800000000
0C00000000
0600000000
0300000000
0180000000
0040000000
0020000000
0018000000
000C000000
0006000000
0003000000
0001800000
0000C00000
0000200000
0000100000
00000C0000
0000060000
0000030000
0000018000
000000C000
0000006000
0000001000
0000000800
0000000600
0000000300
0000000180
00000000C0
ENDCHAR
STARTCHAR E0BA
ENCODING 57530
SWIDTH 1237 0
DWIDTH 33 0
BBX 33 30 0 -9
BITMAP
0000000080
0000000080
0000000380
0000000780
0000000F80
0000001F80
0000003F80
0000007F80
000000FF80
000003FF80
000007FF80
00000FFF80
00001FFF80
00003FFF80
00007FFF80
0000FFFF80
0001FFFF80
0007FFFF80
000FFFFF80
001FFFFF80
003FFFFF80
007FFFFF80
00FFFFFF80
01FFFFFF80
03FFFFFF80
0FFFFFFF80
1FFFFFFF80
3FFFFFFF80
7FFFFFFF80
FFFFFFFF80
ENDCHAR
STARTCHAR E0BB
ENCODING 57531
SWIDTH 1312 0
DWIDTH 35 0
BBX 34 30 0 -9
BITMAP
0000000040
0000000080
0000000300
0000000600
0000000C00
0000001800
0000003000
0000004000
0000008000
0000010000
0000060000
00000C0000
0000180000
0000300000
0000400000
0000800000
0001000000
0002000000
000C000000
0018000000
0030000000
0060000000
00C0000000
0100000000
0200000000
0400000000
1800000000
3000000000
6000000000
C000000000
ENDCHAR
STARTCHAR E0BC
ENCODING 57532
SWIDTH 1237 0
DWIDTH 33 0
BBX 33 29 0 -9
BITMAP
FFFFFFFF80
FFFFFFFF00
FFFFFFFC00
FFFFFFF800
FFFFFFF000
FFFFFFE000
FFFFFFC000
FFFFFF8000
FFFFFF0000
FFFFFE0000
FFFFF80000
FFFFF00000
FFFFE00000
FFFFC00000
FFFF800000
FFFF000000
FFFE000000
FFFC000000
FFF0000000
FFE0000000
FFC0000000
FF80000000
FF00000000
FE00000000
FC00000000
F800000000
E000000000
C000000000
8000000000
ENDCHAR
STARTCHAR E0BD
ENCODING 57533
SWIDTH 1312 0
DWIDTH 35 0
BBX 34 30 0 -9
BITMAP
0000000040
0000000080
0000000300
0000000600
0000000C00
0000001800
0000003000
0000004000
0000008000
0000010000
0000060000
00000C0000
0000180000
0000300000
0000400000
0000800000
0001000000
0002000000
000C000000
0018000000
0030000000
0060000000
00C0000000
0100000000
0200000000
0400000000
1800000000
3000000000
6000000000
C000000000
ENDCHAR
STARTCHAR E0BE
ENCODING 57534
SWIDTH 1237 0
DWIDTH 33 0
BBX 32 29 1 -9
BITMAP
FFFFFFFF
7FFFFFFF
3FFFFFFF
1FFFFFFF
0FFFFFFF
07FFFFFF
03FFFFFF
01FFFFFF
007FFFFF
003FFFFF
001FFFFF
000FFFFF
0007FFFF
0003FFFF
0001FFFF
0000FFFF
00003FFF
00001FFF
00000FFF
000007FF
000003FF
000001FF
000000FF
0000007F
0000001F
0000000F
00000007
00000003
00000001
ENDCHAR
STARTCHAR E0BF
ENCODING 57535
SWIDTH 1312 0
DWIDTH 35 0
BBX 34 30 1 -9
BITMAP
8000000000
4000000000
2000000000
1800000000
0C00000000
0600000000
0300000000
0180000000
0040000000
0020000000
0018000000
000C000000
0006000000
0003000000
0001800000
0000C00000
0000200000
0000100000
00000C0000
0000060000
0000030000
0000018000
000000C000
0000006000
0000001000
0000000800
0000000600
0000000300
0000000180
00000000C0
ENDCHAR
STARTCHAR E0C0
ENCODING 57536
SWIDTH 1425 0
DWIDTH 38 0
BBX 37 29 0 -8
BITMAP
8380000000
EF00000000
FE1E200000
F87FC00000
F0FC000000
FFF801F000
FFFC07FE00
FFFE3FFFC0
FFFFFFF3F8
FFFFFF8000
FFFFFE0000
FFFFF80000
FFFFFF8000
FFFFFF4000
FFFFE00000
FFFFE00000
FFFFF80000
FFFFFC0200
FFFF3FFC00
FFFC0FC000
FFFC000000
FFFE000000
FC0FC00000
F800000000
FA00000000
FFC0000000
FFE0000000
F000000000
C000000000
ENDCHAR
STARTCHAR E0C1
ENCODING 57537
SWIDTH 1500 0
DWIDTH 40 0
BBX 40 29 0 -8
BITMAP
40F0000000
F740000000
3C87080000
031BF00000
0460E00000
0F8300FC00
040203FF80
00070C03E1
0003F0077E
0000003FF8
000000C000
0000030000
000003F000
000007E000
0000180000
0000380000
00001E0000
00000F8700
0000F3FE00
00037C3800
00070FC000
00F3800000
033FF80000
0407800000
07E0000000
0078000000
07E0000000
1800000000
E000000000
ENDCHAR
STARTCHAR E0C2
ENCODING 57538
SWIDTH 1425 0
DWIDTH 38 0
BBX 39 29 0 -8
BITMAP
0000000382
00000001EE
000010F0FE
00000FFC3E
0000007E1E
003F007FFE
00FFC07FFE
87FFF8FFFE
5F9FFFFFFE
0003FFFFFE
0000FFFFFE
00007FFFFE
0003FFFFFE
0005FFFFFE
00000FFFFE
00000FFFFE
00003FFFFE
00807FFFFE
007FF9FFFE
0007E07FFE
0000007FFE
000000FDFE
00000FE07E
000000003E
000000003E
00000003FE
0000000FFE
000000001E
000000000E
ENDCHAR
STARTCHAR E0C3
ENCODING 57539
SWIDTH 1500 0
DWIDTH 40 0
BBX 40 29 0 -8
BITMAP
0000000F02
00000006EF
000000E13C
00001FD8C0
0000070620
001E00C1F0
01FFC04020
878030C000
7FF00FC000
1FFC000000
0003000000
0000C00000
000FC00000
0007F00000
0000080000
00003C0000
0000700000
00FFE60000
003F3F0000
0007F0C000
000001C600
00001FBF80
00000FF840
000001E020
00000007E0
0000001E00
00000007E0
0000000018
0000000006
ENDCHAR
STARTCHAR E0C4
ENCODING 57540
SWIDTH 1012 0
DWIDTH 27 0
BBX 27 29 0 -8
BITMAP
CDBBB1E0
CDABB120
CDBBB120
CD9830E0
CD983120
CD983120
CD9B80C0
CD9A8000
CD9B8000
CD838000
CD828000
CD838000
CDBFF000
CDA7D000
003C2000
CD9B8000
CD9B8000
00038000
CC028F00
CC028900
00010600
CDB87000
CDA85000
00102000
CD800000
CD800000
00000000
CC380000
CC380000
ENDCHAR
STARTCHAR E0C5
ENCODING 57541
SWIDTH 1012 0
DWIDTH 27 0
BBX 27 29 0 -8
BITMAP
E1BBB660
A1BCB660
A1BBB660
E1833660
A1833660
A1833660
403B3660
002B3660
003B3660
00383660
00283660
00383660
03FFB660
027CB660
01878000
003B3660
003B3660
00380000
1C280660
14280660
08100000
03C73660
02453660
01820000
00003660
00003660
00000000
00070660
00070660
ENDCHAR
STARTCHAR E0C6
ENCODING 57542
SWIDTH 937 0
DWIDTH 25 0
BBX 25 29 0 -8
BITMAP
F7BEF000
F7A29000
F7A29000
003EF000
0000F000
F79C9000
F79C9000
F79C9000
0000F000
F7BE0780
F7A20880
F7A20880
003E0780
F01C0000
F01C0000
F01C0000
F01C0000
F780F000
F7809000
F7809000
F780F000
F7BE0000
F7A20000
F7A20000
F7BE0000
00000780
F7800880
F7800880
F7800780
ENDCHAR
STARTCHAR E0C7
ENCODING 57543
SWIDTH 937 0
DWIDTH 25 0
BBX 26 29 0 -8
BITMAP
07BEF3C0
04A2F3C0
04A2F3C0
07BE0000
03800000
049EF3C0
049EF3C0
049EF3C0
03000000
F83EF3C0
8822F3C0
8822F3C0
F83E0000
001E03C0
001E03C0
001E03C0
001E03C0
0780F3C0
0480F3C0
0480F3C0
0780F3C0
003EF3C0
0022F3C0
0022F3C0
003EF3C0
F8000000
8800F3C0
8800F3C0
F800F3C0
ENDCHAR
STARTCHAR E0C8
ENCODING 57544
SWIDTH 1387 0
DWIDTH 37 0
BBX 37 29 0 -8
BITMAP
F800000000
FFF0000000
F000000000
FFFE000000
FFFFFF8000
FFFFC00000
F800000000
FFE0000000
FFFFF00000
FFFF000000
FF00000000
FE00000000
FE00000000
FFFC000000
FFFE000000
FFFD800000
FF80000000
FFFFFF8000
FFFFFFFFF8
FFFFC00020
FF00000000
FF80000000
FFFF000000
FE02000000
FFFFE00000
FFE0000000
FE00000000
FF00000000
FEE0000000
ENDCHAR
STARTCHAR E0CA
ENCODING 57546
SWIDTH 1387 0
DWIDTH 37 0
BBX 37 30 0 -9
BITMAP
00000003F8
000000FFF8
0000004178
00003FFFF8
000FFFFFF8
0000077FF8
00000000F8
0000007FF8
00007FFFF8
000005FFF8
00000203F8
00000003F8
00000007F8
000000FFF8
000007FFF8
00000BFFF8
00000007F8
0007FFFFF8
FFFFFFFFF8
0000BFFFF8
00004017F8
0000000BF8
000007FFF8
0000000FF8
000003FFF8
00003DFFF8
0000020FF8
00000000F8
0000001FF8
0000000078
ENDCHAR
STARTCHAR E0CC
ENCODING 57548
SWIDTH 1012 0
DWIDTH 27 0
BBX 27 29 0 -8
BITMAP
FF000000
FF000000
FF800000
FF800000
FFC00000
FFE00000
FFE00000
FFC00000
FFC00000
FF81FE00
FF01FF00
FF03FF80
0003FF80
0007FFC0
000FFFE0
000FFFC0
0007FFC0
FF03FF80
FF03FF00
FF81FF00
FF80FE00
FFC00000
FFE00000
FFE00000
FFC00000
FFC00000
FF800000
FF000000
FF000000
ENDCHAR
STARTCHAR E0CD
ENCODING 57549
SWIDTH 1050 0
DWIDTH 28 0
BBX 27 29 0 -8
BITMAP
FF000000
80800000
80800000
80400000
80200000
80200000
80100000
80200000
80200000
8040FF00
80810080
80820080
FF020040
00040020
00080020
00080020
00040020
FF040040
80820080
80410080
8040FF00
80200000
80100000
80100000
80200000
80400000
80400000
80800000
FF000000
ENDCHAR
STARTCHAR E0CE
ENCODING 57550
SWIDTH 1275 0
DWIDTH 34 0
BBX 33 29 0 -8
BITMAP
00FFF80000
01FFF88000
01FFF18000
03FFE1C000
07FFE33000
07FFC73800
0FFF863800
0FFF8E7800
1FFF1E7800
3FFF1E3C00
3FFE3F3C00
7FFC731300
7FFC67F380
FFF8E7E780
0000E7E780
0000E7E780
FFF8E7F780
7FFC63F300
7FFE3F3C00
3FFE3F3C00
1FFF1E3800
1FFF8E7800
0FFF8E3800
07FFC63800
07FFE33000
03FFE3C000
03FFF1C000
01FFF88000
00FFF80000
ENDCHAR
STARTCHAR E0CF
ENCODING 57551
SWIDTH 1087 0
DWIDTH 29 0
BBX 30 29 0 -8
BITMAP
000FC000
001FE000
003FC000
00E01800
0FE03FC0
0FFDFFC0
0FFFDF80
301FC030
701FE078
1FFFFFE0
07EFDF84
C1E01E0C
F070383C
F83FE0FC
FE0F83FC
FF8307FC
FFE01FFC
FFF87FFC
FFF8FFFC
FFF8FFFC
FFF8FFFC
FFF8FFFC
7FF8FFF8
3FF8FFE0
0FF8FF80
03F8FE00
00F8FC00
0038F000
0008C000
ENDCHAR
STARTCHAR E0D0
ENCODING 57552
SWIDTH 862 0
DWIDTH 23 0
BBX 23 25 0 -6
BITMAP
0C00C0
330330
418408
814404
80C80E
80C806
80A406
40C40E
61421C
3C82E4
0F01F8
000000
000000
000000
0800C0
330330
418408
814404
80C80E
80C806
80AC06
40C40E
61421C
3E83E4
0F01F8
ENDCHAR
STARTCHAR E0D1
ENCODING 57553
SWIDTH 900 0
DWIDTH 24 0
BBX 25 30 0 -9
BITMAP
FFFFE000
FFFFE000
FFFFE000
FFFFFF80
FFFFE080
FFFFE080
FFFFFF80
FFFFFF80
FFFFFF80
FFFFFF80
FFFFFF80
FFFFFF80
FFFFE000
FFFFE000
FFFFE000
FFFFE000
FFFFE000
FFFFFF80
FFFFE080
FFFFFF80
FFFFFF80
FFFFFF80
FFFFFF80
FFFFFF80
FFFFFF80
FFFFE000
FFFFE000
FFFFE000
FFFFE000
FFFFE000
ENDCHAR
STARTCHAR E0D2
ENCODING 57554
SWIDTH 562 0
DWIDTH 15 0
BBX 13 29 0 -8
BITMAP
FFF8
FFF0
FFE0
FFE0
FFC0
FF80
FF80
FF00
FE00
FE00
FC00
F800
F800
0000
0000
0000
F000
F800
FC00
FC00
FE00
FF00
FF00
FF80
FFC0
FFE0
FFE0
FFF0
FFF8
ENDCHAR
STARTCHAR E0D4
ENCODING 57556
SWIDTH 562 0
DWIDTH 15 0
BBX 13 29 2 -8
BITMAP
FFF8
7FF8
3FF8
3FF8
1FF8
1FF8
0FF8
07F8
07F8
03F8
01F8
01F8
00F8
0000
0000
0000
00F8
00F8
01F8
03F8
03F8
07F8
0FF8
0FF8
1FF8
3FF8
3FF8
7FF8
FFF8
ENDCHAR
STARTCHAR E200
ENCODING 57856
SWIDTH 600 0
DWIDTH 16 0
BBX 16 26 0 -7
BITMAP
001C
003E
007F
00FE
01FE
03FC
07F8
0FF0
1FE0
3FC0
7F80
7F00
FE00
FE00
7F00
3F80
1FC0
0FE0
07F0
03F8
01FC
00FE
007F
003E
001E
0008
ENDCHAR
STARTCHAR E201
ENCODING 57857
SWIDTH 937 0
DWIDTH 25 0
BBX 26 19 0 -4
BITMAP
003F0000
007F8000
00FFC000
00FFE000
01FFE000
01FFFF00
07FFFF80
0FFFFFC0
0FFFFFC0
3FFFFFC0
7FFFFFC0
FFFFFF80
FFFFFF80
7FFFFE00
00000000
04400000
00000000
00000000
01000000
ENDCHAR
STARTCHAR E202
ENCODING 57858
SWIDTH 562 0
DWIDTH 15 0
BBX 8 25 3 -6
BITMAP
3C
3C
1C
3C
3C
3C
7E
7E
FF
FF
FF
FF
FF
FF
FF
FF
FF
FF
7E
7E
7F
FF
FF
FF
7E
ENDCHAR
STARTCHAR E203
ENCODING 57859
SWIDTH 937 0
DWIDTH 25 0
BBX 25 13 0 0
BITMAP
07FFF000
1FFFFC00
1FFFFC00
1FFFFE00
1FFFFE00
CFFFF980
F7FFF780
F7FFF780
F0000780
F7FFF780
F7FFF780
F7FFF780
F7FFF780
ENDCHAR
STARTCHAR E204
ENCODING 57860
SWIDTH 937 0
DWIDTH 25 0
BBX 25 25 0 -6
BITMAP
00400000
00660000
00660000
00EE0000
01DC0000
01980000
00880000
00000000
00000000
FFFFFF80
FFFFFF80
FFFFFF80
FFFFFF80
7FFFFF80
7FFFFF00
3FFFFF00
3FFFFE00
1FFFFC00
0FFFF800
07FFF000
01FFC000
003E0000
00000000
FFFFFF80
FFFFFF80
ENDCHAR
STARTCHAR E205
ENCODING 57861
SWIDTH 825 0
DWIDTH 22 0
BBX 21 25 0 -6
BITMAP
E00000
F80000
FC0000
FC0000
7C0000
7C0000
120000
010000
010000
010000
008000
00C000
003000
000800
000800
000800
000400
000600
000180
000040
000020
000020
000020
000010
000018
ENDCHAR
STARTCHAR E206
ENCODING 57862
SWIDTH 975 0
DWIDTH 26 0
BBX 26 26 0 -7
BITMAP
007D0000
01FCE000
07C01000
0F000C00
1C000600
38000200
30000100
70000180
60000180
E0000080
C00000C0
C00000C0
C00000C0
C00000C0
C00000C0
C00001C0
40000180
40000180
60000380
20000700
10000E00
18001C00
04003800
0201F000
018FC000
00740000
ENDCHAR
STARTCHAR E207
ENCODING 57863
SWIDTH 787 0
DWIDTH 21 0
BBX 21 25 0 -6
BITMAP
001F00
007FC0
30FFE0
39FFF0
39FFF0
3DFFF0
1FFFF0
0FFFF8
07FFF8
00FFF0
00FFF0
00FFF0
00FFF0
00FFE0
00FFE0
01FFE0
03FFC0
7FFF80
7FFF00
FFFE00
E3F800
E00000
E00000
700000
700000
ENDCHAR
STARTCHAR E208
ENCODING 57864
SWIDTH 862 0
DWIDTH 23 0
BBX 23 25 0 -7
BITMAP
003800
00FE00
01FF00
01FF80
03FF80
03FFF8
0FFFFC
1FFFFE
1FFFFE
7FFFFE
FFFFFE
FFFFFC
FFFFFC
3FFFE0
000000
007800
007800
00FC00
00F800
007000
006000
00C000
008000
010000
010000
ENDCHAR
STARTCHAR E209
ENCODING 57865
SWIDTH 937 0
DWIDTH 25 0
BBX 26 26 0 -7
BITMAP
1C000000
3E000000
67000000
E7E00000
C7F80000
C7FF0000
CFFFE000
7FFFF800
77FFFE00
00FFFE00
003F7F00
003E3FC0
003E3F80
003E3880
001F6000
000FC000
001B6000
001B6000
00333000
00333000
00631800
00631800
00C30C00
00C30C00
00830400
00030000
ENDCHAR
STARTCHAR E20A
ENCODING 57866
SWIDTH 562 0
DWIDTH 15 0
BBX 9 26 3 -7
BITMAP
1C00
2200
4200
4200
4200
4200
4200
4200
4200
4200
5A00
5A00
5A00
5A00
5A00
5A00
5A00
5A00
5B00
BD00
BE80
BE80
BE80
9D00
6300
1C00
ENDCHAR
STARTCHAR E20B
ENCODING 57867
SWIDTH 562 0
DWIDTH 15 0
BBX 9 26 3 -7
BITMAP
1C00
2200
4200
4200
5A00
5A00
5A00
5A00
5A00
5A00
5A00
5A00
5A00
5A00
5A00
5A00
5A00
5A00
5B00
BD00
BE80
BE80
BE80
DD00
6300
1C00
ENDCHAR
STARTCHAR E20C
ENCODING 57868
SWIDTH 562 0
DWIDTH 15 0
BBX 9 26 3 -7
BITMAP
1C00
2200
2200
2200
2200
2200
2200
2200
2200
2200
2200
2200
2200
2200
2200
3A00
3A00
3A00
5A00
BD00
BF00
BE80
BF00
9D00
6200
1C00
ENDCHAR
STARTCHAR E20D
ENCODING 57869
SWIDTH 975 0
DWIDTH 26 0
BBX 26 25 0 -7
BITMAP
C0000180
E00003C0
70000780
38000F00
1C001E00
0E003C00
07007800
0380F000
01C1E000
00E3C000
00778000
003F0000
001E0000
003E0000
007F0000
00F38000
01E1C000
03C0E000
07807000
0F003800
1E001C00
3C000E00
78000700
F0000380
E00001C0
ENDCHAR
STARTCHAR E20E
ENCODING 57870
SWIDTH 787 0
DWIDTH 21 0
BBX 21 25 0 -6
BITMAP
03FE00
07FF00
0FFF00
0FFF80
0FFF80
0FFF80
0FFF80
0FFF80
0FFF80
0FFF80
000000
FFFFF0
FFFFF8
FFFFF0
3FFFE0
1FFFC0
1FFF80
0FFF80
07FF00
01FC00
01FC00
03FC00
07FE00
07FF00
0FFF80
ENDCHAR
STARTCHAR E20F
ENCODING 57871
SWIDTH 937 0
DWIDTH 25 0
BBX 25 25 0 -7
BITMAP
07000080
07C00380
03E00780
01E00F00
00F01E00
C0F01E00
E1F03000
F3F06000
FFF8C000
7FFC8000
3FFE0000
1FFF0000
01FF8000
00FFC000
017FE000
03BFF000
07DFF800
0FEFFC00
1FE7FE00
3FC3FF00
7F81FF80
FF00FF80
FE007F80
FC001F80
78000F00
ENDCHAR
STARTCHAR E210
ENCODING 57872
SWIDTH 787 0
DWIDTH 21 0
BBX 21 26 0 -7
BITMAP
0E0380
1F8FC0
3FFFE0
7FFFF0
7FFFF0
FFFFF8
FFFFF8
FFFFF8
FFFFF8
FFFFF8
FFFFF8
7FFFF0
7FFFF0
3FFFE0
3FFFE0
3F8FE0
3F07E0
3E07E0
3E03E0
3E03E0
3E03E0
3E03E0
1E03C0
0E0380
060300
020200
ENDCHAR
STARTCHAR E211
ENCODING 57873
SWIDTH 937 0
DWIDTH 25 0
BBX 25 20 0 -4
BITMAP
1E001C00
7FFFFF00
41FFC180
C0C18180
F0638780
FE63BF80
5E73BD00
3E771F00
00370000
00160000
00140000
00140000
00120000
00120000
00120000
00120000
00120000
00120000
00140000
000C0000
ENDCHAR
STARTCHAR E212
ENCODING 57874
SWIDTH 937 0
DWIDTH 25 0
BBX 26 25 0 -6
BITMAP
7FFFFF80
FFFFFFC0
FFFFFFC0
FFFFFFC0
FFFFFFC0
FFFFFFC0
FFFFFFC0
CD91E3C0
C920C1C0
E93C99C0
E0309FC0
E0309FC0
E23C9BC0
F26081C0
F261C3C0
FFFFFFC0
FFFFFFC0
FFFFFFC0
FFFFFFC0
FFFFFFC0
7FFFFF80
1FFFFC00
03FFF000
007F8000
001C0000
ENDCHAR
STARTCHAR E213
ENCODING 57875
SWIDTH 562 0
DWIDTH 15 0
BBX 13 25 1 -7
BITMAP
0600
0F00
0F00
0600
0000
0F00
1F00
3F80
7F80
FFC0
DE70
DE38
DE08
DE00
1E00
1F00
1F80
3B80
39C0
39C0
39C0
70C0
70E0
E0E0
E060
ENDCHAR
STARTCHAR E214
ENCODING 57876
SWIDTH 937 0
DWIDTH 25 0
BBX 25 25 0 -6
BITMAP
00080000
000C0000
001C0000
007F0000
0FFFFC00
0FFFF800
0FFFF800
0FFFF800
0FFFF800
0FFFFC00
1FFFFC00
3FFFFF00
FFFFFF80
7FFFFF00
1FFFFE00
1FFFFC00
0FFFFC00
0FFFF800
0FFFF800
0FFFF800
0FFFFC00
087F8400
001E0000
001C0000
00080000
ENDCHAR
STARTCHAR E215
ENCODING 57877
SWIDTH 937 0
DWIDTH 25 0
BBX 25 24 0 -6
BITMAP
00FFC000
03FFF000
0FFFF800
1FFFFC00
3FFFFE00
3FFFFF00
7FFF9F00
7FFC1F80
FFF03F80
FF833F80
FC043F80
F8183F80
FC703F80
FFE07F80
FFC07F80
7FC07F80
7FD87F00
7FFE7F00
3FFFFE00
1FFFFC00
0FFFFC00
07FFF000
01FFE000
007F0000
ENDCHAR
STARTCHAR E216
ENCODING 57878
SWIDTH 600 0
DWIDTH 16 0
BBX 16 25 0 -6
BITMAP
0006
000F
000F
001E
001E
003C
007C
0078
00F8
00F0
01E0
01E0
03C0
07C0
0780
0F80
0F00
1F00
1E00
3C00
3C00
7800
F800
F000
7000
ENDCHAR
STARTCHAR E217
ENCODING 57879
SWIDTH 937 0
DWIDTH 25 0
BBX 25 22 0 -5
BITMAP
00000380
00000F80
00007F80
0001FF80
000FF780
003FCF00
01FF9F00
0FFE7F00
3FF8FF00
FFF1FF00
FFC3FE00
1F87FE00
020FFE00
021FFE00
023FFE00
013FFC00
013FFC00
013BFC00
00F1FC00
00607C00
00403800
00001800
ENDCHAR
STARTCHAR E218
ENCODING 57880
SWIDTH 937 0
DWIDTH 25 0
BBX 25 20 0 -4
BITMAP
03E1E000
3FF3FE00
FFFFFF80
FFFFFF80
FFFFFF80
7FFFFF80
7FFFFF00
7FFFFF00
07FFF000
07FFF000
07FFF000
07FFF000
07FFF000
07FFF000
07FFF000
07FFF000
07FFF000
07FFF000
07FFF000
07FFF000
ENDCHAR
STARTCHAR E219
ENCODING 57881
SWIDTH 975 0
DWIDTH 26 0
BBX 26 14 0 -1
BITMAP
00F80000
0FF80000
3FFFA000
7C07B800
33F9CC00
6FFEE200
DFFF7B00
3FCFBB80
3FF9BB80
7FFFD9C0
7FFFEDC0
7FE7EDC0
FFFFF1C0
FFFFF380
ENDCHAR
STARTCHAR E21A
ENCODING 57882
SWIDTH 937 0
DWIDTH 25 0
BBX 25 25 0 -6
BITMAP
02000000
C7000000
E7000000
F3800000
7B800000
3DC00000
1EE00000
0EE00000
07700000
03B00000
01F80000
00F80000
007C0000
00340000
001A0000
000C2000
0006FC00
0007FE00
001FFF00
0027F380
007EDF00
001D7E00
00F7FE00
00DFF000
001C0000
ENDCHAR
STARTCHAR E21B
ENCODING 57883
SWIDTH 937 0
DWIDTH 25 0
BBX 25 25 0 -6
BITMAP
C0000000
E0000000
F0000000
F8000000
FC000000
FE000000
FF000000
1F800000
1FC00000
FFE00000
FFF00000
FFF80000
1BFC0000
F9FE0000
F8FF0000
F87F8000
183FC000
181FE000
F80FF000
F807F800
FFFFFC00
1FFFFE00
FFFFFF00
FFFFFF80
FFFFFF80
ENDCHAR
STARTCHAR E21C
ENCODING 57884
SWIDTH 862 0
DWIDTH 23 0
BBX 22 25 0 -6
BITMAP
01FC00
03FF00
07FF80
0FFFC0
1FFFE0
1FFFF8
1FFFF8
5FFFFC
5FFFFC
DFFFFC
DFFFFC
FFFFFC
EFFFFC
F7FFF8
7BFFF0
3DFC80
1F0000
00F800
00F800
00F800
00F800
00F800
00F800
00F800
00F800
ENDCHAR
STARTCHAR E21D
ENCODING 57885
SWIDTH 937 0
DWIDTH 25 0
BBX 26 21 0 -4
BITMAP
00200000
00700000
0C798000
0FFF8000
0F038000
0C018000
3800E000
783F7000
307FF000
30FFE000
10FFE000
30FFEC00
71FFFF00
7FFFFF80
1FFFFFC0
0FFFFFC0
3FFFFFC0
7FFFFFC0
FFFFFF80
FFFFFF80
7FFFFE00
ENDCHAR
STARTCHAR E21E
ENCODING 57886
SWIDTH 937 0
DWIDTH 25 0
BBX 25 21 0 -4
BITMAP
07FFF000
0FFFF800
1A163C00
1B333600
3361A600
61C1A300
FFFFFF80
FFFFFF80
60804300
30C0C700
18C08E00
0C418C00
06619800
07613000
03B36000
01B3C000
00D38000
007F0000
003E0000
001E0000
000C0000
ENDCHAR
STARTCHAR E21F
ENCODING 57887
SWIDTH 937 0
DWIDTH 25 0
BBX 25 25 0 -6
BITMAP
00003000
00003800
00003C00
0001DE00
0001EF00
0006FF80
0007FF80
0007FF00
003BFE00
003DFC00
00DFF800
00FFF000
00FFE000
077FC000
07BF8000
1BFF0000
1FFE0000
1FFC0000
EFF80000
F7F00000
7FE00000
3FC00000
1F800000
0F000000
06000000
ENDCHAR
STARTCHAR E220
ENCODING 57888
SWIDTH 937 0
DWIDTH 25 0
BBX 26 24 -1 -6
BITMAP
000C0000
007F8000
01FFE000
07FFF800
0FFFFC00
1FFFFE00
3FFFFF00
3FFFFF00
7FFFFF80
63FFF180
40CCE080
808C4040
000C0000
000C0000
000C0000
000C0000
000C0000
000C0000
000C0000
000C0000
060C0000
071C0000
03F80000
01F00000
ENDCHAR
STARTCHAR E221
ENCODING 57889
SWIDTH 562 0
DWIDTH 15 0
BBX 13 25 1 -6
BITMAP
0F80
3FE0
73F0
63F0
C7F8
CFF8
CFF8
CFF8
CFF8
CFF8
CFF8
FFF8
FFF8
C018
C018
C018
C018
C018
C018
C018
C038
E030
7070
3FE0
0F80
ENDCHAR
STARTCHAR E222
ENCODING 57890
SWIDTH 675 0
DWIDTH 18 0
BBX 18 25 0 -6
BITMAP
006000
03E000
01E000
01F000
01F000
01F000
07F800
1FF800
3F7800
787C00
707C00
F03C00
E03000
E00000
E00000
E00000
E00000
703FC0
783FC0
3E1F00
1FFE00
0FFC00
07F800
1FFE00
3FFF00
ENDCHAR
STARTCHAR E223
ENCODING 57891
SWIDTH 562 0
DWIDTH 15 0
BBX 10 25 2 -6
BITMAP
0C00
0C00
0C00
0E00
1E00
3F00
3F80
0000
FFC0
FFC0
7FC0
7F80
7F80
7F80
0F80
0F80
7F80
7F80
0F80
7F80
7F80
7F80
7F80
7F80
7F80
ENDCHAR
STARTCHAR E224
ENCODING 57892
SWIDTH 937 0
DWIDTH 25 0
BBX 25 5 0 4
BITMAP
FFFFFF80
FFFFFF80
FFFFFF80
FFFFFF80
FFFFFF80
ENDCHAR
STARTCHAR E225
ENCODING 57893
SWIDTH 975 0
DWIDTH 26 0
BBX 25 23 0 -5
BITMAP
001C0000
003F0000
003F0000
003F0000
003F0000
001E0000
000C0000
000C0000
000C0000
001E0000
007F0000
007F8000
00FFC000
00FFC000
00FFC000
00FF8000
01FFE000
7FBF7F00
FF0E3F80
FC001F80
FC001F80
FC001F80
78000F00
ENDCHAR
STARTCHAR E226
ENCODING 57894
SWIDTH 975 0
DWIDTH 26 0
BBX 25 19 0 -3
BITMAP
03000000
0F000000
32000000
66000000
44000000
C43F0000
C47F8000
86FFC000
83FFE000
83FFE800
C1FFFF00
47FFFF80
6FFFFF80
3FFFFF80
7FFFFF80
FFFFFF80
FFFFFF80
FFFFFF00
7FFFFE00
ENDCHAR
STARTCHAR E227
ENCODING 57895
SWIDTH 900 0
DWIDTH 24 0
BBX 24 25 0 -6
BITMAP
00FF00
07FFE0
0FFFF0
3FFFFC
7FFFFE
7FFFFE
FFFFFF
FFFFFF
FFFFFF
FFFFFF
FFFFFF
7FFFFE
3FFFFC
007E00
007E00
007E00
007E00
007E00
00FF00
01FF80
01FF80
01FFC0
01FF80
01FF80
00FF00
ENDCHAR
STARTCHAR E228
ENCODING 57896
SWIDTH 937 0
DWIDTH 25 0
BBX 25 7 0 3
BITMAP
01C1E000
07F7F000
07FFF800
8FFFFC00
7FF7FF80
3FE3FF00
1F80FC00
ENDCHAR
STARTCHAR E229
ENCODING 57897
SWIDTH 937 0
DWIDTH 25 0
BBX 25 13 0 1
BITMAP
0001E000
00009000
00008800
00004400
00004400
00006200
C6002100
00000180
840EE880
CD119800
D54F9800
B542B800
01CC5600
ENDCHAR
STARTCHAR E22A
ENCODING 57898
SWIDTH 975 0
DWIDTH 26 0
BBX 26 7 0 3
BITMAP
3FFFFF00
40000080
96101040
9EDDFE40
96DF7A40
40000480
3FFFFF00
ENDCHAR
STARTCHAR E22B
ENCODING 57899
SWIDTH 937 0
DWIDTH 25 0
BBX 25 25 0 -6
BITMAP
007F0000
01FFE000
07FFF000
0F3E7800
1E1C3C00
3E1C3E00
3F3E7F00
7FFFFF00
77FFF780
E1FFC380
E1FFC380
E1FFC380
F3FFF780
FFFFFF80
FFFFFF00
FFFFFF00
7FFFFE00
7FFFF800
7FFE0000
3FFC0000
1FFC0000
0FFC0000
07FE0000
03FE0000
00FC0000
ENDCHAR
STARTCHAR E22C
ENCODING 57900
SWIDTH 975 0
DWIDTH 26 0
BBX 26 24 0 -7
BITMAP
07FFFF80
0FFFFFC0
1FFFFFC0
3FFFFF80
7FFFFF80
F1E1E000
81E1E000
01E1C000
01E1C000
01E1C000
01E1C000
01E3C000
01E3C000
01E3C000
01E3C000
01E3C000
03E1C000
03E1E080
07E1E0C0
07E1F1C0
07E1FF80
07C1FF80
07C0FF00
03807C00
ENDCHAR
STARTCHAR E22D
ENCODING 57901
SWIDTH 975 0
DWIDTH 26 0
BBX 26 26 0 -7
BITMAP
01C00000
03F00000
03FC0000
01FF0000
010F8000
0303E000
0319F000
0218F000
06007800
06003C00
04019E00
0C03CE00
0F03CF00
0F838700
1F800780
1F000380
100E0380
300E0FC0
30CE7DC0
23E3E180
67FF0000
47F80000
47E00000
DF000000
F8000000
40000000
ENDCHAR
STARTCHAR E22E
ENCODING 57902
SWIDTH 937 0
DWIDTH 25 0
BBX 25 15 0 -1
BITMAP
003E0000
00FF8000
01FFF800
03FFE700
0FFFE380
37FFF380
47FFFF80
C7FFBF00
E7F9FE00
FFFFFC00
FFFFF000
3FFFA000
07F3C000
00FF8000
003E0000
ENDCHAR
STARTCHAR E22F
ENCODING 57903
SWIDTH 937 0
DWIDTH 25 0
BBX 25 25 0 -6
BITMAP
F0000000
FE000000
FF800000
7FE00000
7FF00000
7FF00780
7FF03F80
3EF87F80
3F78FF80
1F70FF80
0F31FF00
0739EF00
0198DE00
001D9C00
001F9000
000F0000
000F0000
000E0000
000E0000
00060000
00060000
00060000
00060000
00060000
00060000
ENDCHAR
STARTCHAR E230
ENCODING 57904
SWIDTH 937 0
DWIDTH 25 0
BBX 25 19 0 -4
BITMAP
00700000
007E0000
007F8000
0079C000
0079E000
0079E000
0079E000
0079E000
0079E000
0079E000
0079C000
01F80000
0FFBFE00
7F7BC780
F87B0F80
F1F87F00
3FF9F800
007BE000
003B0000
ENDCHAR
STARTCHAR E231
ENCODING 57905
SWIDTH 862 0
DWIDTH 23 0
BBX 23 26 0 -7
BITMAP
007C00
01FF00
03FF80
07FFC0
07FFC0
0FFFE0
0FFFE0
0C7C60
0C7C60
0C7C60
067CC0
07EFC0
07C7C0
27FFC8
73FF9C
71FF1C
FC287E
FF83FE
43FF84
007C00
43EF84
FF83FE
FC007E
70001C
70001C
200008
ENDCHAR
STARTCHAR E232
ENCODING 57906
SWIDTH 937 0
DWIDTH 25 0
BBX 25 23 0 -5
BITMAP
00380000
007C0000
07FF8000
07FFC000
0FFFE000
3FFFF000
3FFFF800
3FFFF800
3FFFF800
3FFFF000
0FFFE000
0FFFE100
07FF8380
687C2300
EF93C000
6FFFC000
07FFC600
07FFCE00
07FFC600
07FFC000
07FFC000
07FFC000
07FFC000
ENDCHAR
STARTCHAR E233
ENCODING 57907
SWIDTH 562 0
DWIDTH 15 0
BBX 10 26 2 -7
BITMAP
1E00
3F80
7FC0
FFC0
FFC0
FFC0
FFC0
FFC0
FFC0
FFC0
FFC0
FFC0
FFC0
FFC0
FFC0
FFC0
0000
0000
0C00
0C00
0C00
0C00
0C00
0C00
0C00
0C00
ENDCHAR
STARTCHAR E234
ENCODING 57908
SWIDTH 937 0
DWIDTH 25 0
BBX 25 21 0 -4
BITMAP
00080000
001C0000
001C0000
001C0000
001C4000
063C6000
063CE000
0636F000
0F26F000
FF66DF80
FB66DF80
0366C000
01C68000
01C78000
01C38000
01C38000
00C38000
00838000
00038000
00030000
00010000
ENDCHAR
STARTCHAR E235
ENCODING 57909
SWIDTH 937 0
DWIDTH 25 0
BBX 25 25 0 -7
BITMAP
00FF0000
01FFC000
033FC000
033FE000
03FFE000
0007E000
1FFFFE00
7FFFFF00
7FFFFF00
FFFFFF80
FFFFDF80
FFFFBF80
FF007F80
FEFFFF80
FDFFFF80
FFFFFF80
7FFFFF00
7FFFFF00
1FFFFE00
03FFE000
03FFE000
03FE6000
01FE4000
01FFC000
007F0000
ENDCHAR
STARTCHAR E236
ENCODING 57910
SWIDTH 975 0
DWIDTH 26 0
BBX 26 26 0 -7
BITMAP
007F8000
01FFE000
07FFF800
0FFFFC00
1FFFFE00
3FE0FF00
3F803F00
7F1E1F80
7E3F0F80
FC7F0FC0
FC7F8FC0
FC7F87C0
FC7F87C0
FC7F87C0
FC7F8FC0
FC330FC0
FE301FC0
7F1C3F80
7F807F80
3FC07F00
3FFE1F00
1FFF9E00
0FFFFC00
03FFF000
01FFE000
003F0000
ENDCHAR
STARTCHAR E237
ENCODING 57911
SWIDTH 937 0
DWIDTH 25 0
BBX 25 26 0 -7
BITMAP
7FFFFF00
FFFFFF80
FFFFFF80
FFFFFF80
FFFFFF80
FFFFFF80
FFC1FF80
FF007F80
FE1E3F80
FE3F3F80
FC3F1F80
FC7F1F80
FC7F1F80
FC7F1F80
FC7F1F80
FC3F1F80
FE313F80
FE183F80
FF807F80
FFC07F80
FFFE3F80
FFFFFF80
FFFFFF80
FFFFFF80
FFFFFF80
3FFFFE00
ENDCHAR
STARTCHAR E238
ENCODING 57912
SWIDTH 937 0
DWIDTH 25 0
BBX 26 24 0 -6
BITMAP
06001800
0F003C00
1F007E00
3F807F00
7F80FF00
7FC0FF80
7FC0FF80
FF9C7F80
FF3E7FC0
FF7F3FC0
FF7F3FC0
007F0000
003E0000
001C0000
00000000
00220000
007F0000
007F8000
00FF8000
00FFC000
01FFC000
01FFE000
01FFE000
001E0000
ENDCHAR
STARTCHAR E239
ENCODING 57913
SWIDTH 975 0
DWIDTH 26 0
BBX 26 22 0 -5
BITMAP
003F8000
007FC000
00FFE000
00FFE000
00FFEC00
01FFFF00
07FFFF80
0FFFFFC0
0FFFFFC0
3FFFFFC0
7FFFFFC0
FFFFFF80
FFFFFF80
7FFFFE00
00000000
00000000
02B29000
0524A000
05252000
05492000
0A494000
0A4A4000
ENDCHAR
STARTCHAR E23A
ENCODING 57914
SWIDTH 637 0
DWIDTH 17 0
BBX 18 25 0 -6
BITMAP
006000
046000
0C6600
0C6E00
0CEC00
0EEC00
1EFC00
3FFF00
47FF80
79FF80
FCFF00
FE7F40
FF7EC0
FFBCC0
FFB980
FFC780
7FDF80
7FEF80
7FEF00
3FF300
1FFC00
0FFE00
07FC00
03F800
01F000
ENDCHAR
STARTCHAR E23B
ENCODING 57915
SWIDTH 562 0
DWIDTH 15 0
BBX 11 26 2 -7
BITMAP
FFE0
BFE0
BFE0
BFE0
BFE0
FFE0
8000
FFE0
FFE0
BFE0
BFE0
BFE0
BFE0
BFE0
BFE0
BFE0
BFE0
BFE0
BFE0
BFE0
BFE0
FFE0
FFE0
FFE0
0000
7FE0
ENDCHAR
STARTCHAR E23C
ENCODING 57916
SWIDTH 937 0
DWIDTH 25 0
BBX 25 24 0 -6
BITMAP
0FFFFF80
0FFFFF80
0FFFFF80
FFFFF880
FFFFF880
FFFFF880
80000880
80000880
80000880
80000880
80000880
80000880
80000880
80000880
80000880
80000880
80000880
80000880
80000880
80000880
80000F80
80000800
C0000800
FFFFF800
ENDCHAR
STARTCHAR E23D
ENCODING 57917
SWIDTH 825 0
DWIDTH 22 0
BBX 21 25 0 -6
BITMAP
01FC00
03FE00
03FE00
01FE00
01FC00
06FB00
0F77C0
1C01E0
3800E0
700070
600038
E00038
E00018
C00018
C00018
C00018
E00018
E00038
600038
700070
380070
3C01E0
1F07C0
07FF80
03FE00
ENDCHAR
STARTCHAR E23E
ENCODING 57918
SWIDTH 937 0
DWIDTH 25 0
BBX 25 21 0 -4
BITMAP
03E3F000
03E1F000
13CCF000
199E6600
391E2700
793F2700
FC7F8780
00000000
00000000
7E7FCF80
3E7F9F00
1E7F9E00
1F3F1C00
0F3F3800
073F3000
039E6000
019E4000
009E4000
004C8000
000C0000
00080000
ENDCHAR
STARTCHAR E23F
ENCODING 57919
SWIDTH 750 0
DWIDTH 20 0
BBX 20 25 0 -5
BITMAP
00F000
07FE00
1C0380
33FEC0
6E0700
19F980
37BEC0
6CF360
DB9DA0
1604A0
34F6F0
6D9AF0
DB0A50
326A50
66DAD0
CC9AD0
19B6B0
3326B0
E67EC0
8CD260
399320
661980
0C0C00
1BE600
023000
ENDCHAR
STARTCHAR E240
ENCODING 57920
SWIDTH 937 0
DWIDTH 25 0
BBX 25 26 0 -7
BITMAP
FFFFF800
E03E3800
E03E3C00
E03E3E00
E03E3F00
E03E3F80
E03E3F80
E03E3F80
E0003F80
F0003F80
F0007F80
FFFFFF80
FFFFFF80
FFFFFF80
FFFFFF80
F0000F80
E0000780
E0000780
E0000780
E0000780
E0000780
E0000780
E0000780
E0000780
FFFFFF80
7FFFFF00
ENDCHAR
STARTCHAR E241
ENCODING 57921
SWIDTH 862 0
DWIDTH 23 0
BBX 23 25 0 -6
BITMAP
0000C0
0001F0
0001F8
0001FC
0E01FE
1E03FE
3E03FE
7E03FE
FF03FE
FF01FC
FF81FC
FF81FC
FF81F8
7F03F8
7F03F0
3F03F0
3F87E0
1F87E0
1FC7E0
0FC7E0
07E3C0
07E000
07E000
03E000
03C000
ENDCHAR
STARTCHAR E242
ENCODING 57922
SWIDTH 937 0
DWIDTH 25 0
BBX 25 18 0 -2
BITMAP
18000400
10100600
201C0300
600C0100
401D0180
C01D8080
C03F8080
807BC080
8073C080
80628080
C0608080
C0208080
40110180
60000100
20000300
31FFF600
18000400
08000400
ENDCHAR
STARTCHAR E243
ENCODING 57923
SWIDTH 937 0
DWIDTH 25 0
BBX 25 8 0 2
BITMAP
00FFC000
03F83800
79FFDC00
CFFFEC80
99FFF180
1CFF3E00
0780C000
004B0000
ENDCHAR
STARTCHAR E244
ENCODING 57924
SWIDTH 937 0
DWIDTH 25 0
BBX 26 25 0 -6
BITMAP
07FFFF80
0FFFFFC0
0C0000C0
7FFFF8C0
FFFFFCC0
C0000CC0
C0000CC0
C0000CC0
C0000CC0
C0070CC0
C0078CC0
C0078CC0
C0030CC0
C0000CC0
C0000CC0
C0000CC0
C0038CC0
C0878CC0
C3FFCCC0
CFFFCCC0
CFFFEDC0
DFFFEFC0
C0000C00
FFFFFC00
FFFFFC00
ENDCHAR
STARTCHAR E245
ENCODING 57925
SWIDTH 975 0
DWIDTH 26 0
BBX 25 14 0 -1
BITMAP
01E1C000
03E1F000
0E001800
18000E00
7F003F80
FFFFFF80
F1FF8380
603F0180
603E0180
60330100
60630100
70E18300
3FC0FE00
0F007800
ENDCHAR
STARTCHAR E246
ENCODING 57926
SWIDTH 937 0
DWIDTH 25 0
BBX 25 22 0 -5
BITMAP
00FF8000
00BFC000
01DFC000
03DFE000
03EFF000
07FFF000
07F7F800
0FF7F800
0FE3FC00
1FE1FE00
3FC1FE00
3FC0FF00
7F80FF00
7F007F80
FF000000
FEFFFF80
7FFFFF00
3DFFFF00
3FFFFE00
1BFFFE00
17FFFC00
07FFFC00
ENDCHAR
STARTCHAR E247
ENCODING 57927
SWIDTH 937 0
DWIDTH 25 0
BBX 25 25 0 -6
BITMAP
A0000000
D8000000
EC000000
F7000000
FBC00000
FDF00000
FEFC0000
FF7F0000
FFBFC000
FFDFB000
FFEF7800
FFF6FE00
FFF9FF80
FFF9FF00
FFF6FC00
FFEF7000
FFDF8000
FFBF0000
FF7C0000
FEF00000
FDC00000
FB800000
F6000000
E8000000
C0000000
ENDCHAR
STARTCHAR E248
ENCODING 57928
SWIDTH 937 0
DWIDTH 25 0
BBX 26 26 0 -7
BITMAP
000C0000
000C0000
000C0000
000C0000
003F0000
00FFC000
01C0E000
03007000
06003800
063F1800
0C7F8C00
0C7F8C00
FCFF8FC0
FC7F8FC0
0C7F8C00
0C7F1800
063E1800
07003800
03807000
01C1E000
00FFC000
003F0000
000C0000
000C0000
000C0000
000C0000
ENDCHAR
STARTCHAR E249
ENCODING 57929
SWIDTH 937 0
DWIDTH 25 0
BBX 25 25 0 -6
BITMAP
007F0000
01FFE000
07F3F000
0FF7F800
1FF21C00
3FF5CE00
3FFDEF00
7FF5EF00
7FE3FF80
FFE81F80
FFC61F80
FF263F80
FE208F80
FC21C780
FCC3E380
FCC7FF80
7987FF80
7F8FFF00
3F9FFF00
3F1FFE00
1E3FFC00
0E7FF800
07FFF000
01FFE000
007F0000
ENDCHAR
STARTCHAR E24A
ENCODING 57930
SWIDTH 562 0
DWIDTH 15 0
BBX 10 26 2 -7
BITMAP
0C00
0C00
0C00
0C00
0C00
0C00
0C00
0C00
0C00
0C00
0C00
0C00
3F00
7F80
7F80
2180
2180
6180
7380
FFC0
FFC0
FFC0
FFC0
61C0
7F80
1E00
ENDCHAR
STARTCHAR E24B
ENCODING 57931
SWIDTH 862 0
DWIDTH 23 0
BBX 23 26 0 -7
BITMAP
FE002C
FFDFFE
FFDFFE
7FFFFE
FFFFFE
F8FF7E
70003E
F8003E
F8003E
A8003E
F8003E
F8003E
F4003E
04001E
00003E
00007E
0000FE
00037E
001FF8
003FB0
003F80
001F80
001C00
001800
001800
000800
ENDCHAR
STARTCHAR E24C
ENCODING 57932
SWIDTH 937 0
DWIDTH 25 0
BBX 26 16 0 -2
BITMAP
0C001C00
0E001C00
4E001C80
EE001DC0
EE001DC0
EE001DC0
EFFFFDC0
EFFFFDC0
EFFFFDC0
EE001DC0
EE001DC0
EE001DC0
EE001D80
4E001C00
0E001C00
0C001C00
ENDCHAR
STARTCHAR E24D
ENCODING 57933
SWIDTH 937 0
DWIDTH 25 0
BBX 25 21 0 -4
BITMAP
001C0000
01FFC000
07FFF000
0FFFFC00
1FFFFC00
3FFFFE00
3FFFFE00
3FFFFF00
7FFFFF00
7FFFFF00
00000000
FFFFFF80
00000000
FFFFFF80
FFFFFF80
FFFFFF80
00000000
3FFFFF00
7FFFFF00
7FFFFF00
3FFFFE00
ENDCHAR
STARTCHAR E24E
ENCODING 57934
SWIDTH 975 0
DWIDTH 26 0
BBX 25 8 0 2
BITMAP
00080000
007F0000
00FF8000
01FFC000
04FFE000
FF3FFF80
7FFFFF80
03FFF000
ENDCHAR
STARTCHAR E24F
ENCODING 57935
SWIDTH 862 0
DWIDTH 23 0
BBX 23 26 0 -7
BITMAP
003800
00FE00
03FF80
07FFC0
1FFFF0
7FFFFC
FFFFFE
FFFFFE
FFFFFE
FFFFFE
FFFFFE
FFFFFE
FFFFFE
FFFFFE
FFFFFE
FFFFFE
FFFFFE
FFFFFE
FFFFFE
FFFFFE
7FFFFC
1FFFF0
07FFC0
01FF00
00FE00
003800
ENDCHAR
STARTCHAR E250
ENCODING 57936
SWIDTH 937 0
DWIDTH 25 0
BBX 26 23 0 -5
BITMAP
20000000
70000000
78000000
7C000000
FE000000
FF000000
FF800000
FFC00000
7FE00000
3BF80000
31FC0000
30FE0C00
307FFE00
103FFF00
103FFFC0
101FFF80
101FFF80
100FFF80
100FFF80
100FFF80
100FFF00
1007FF00
0007F800
ENDCHAR
STARTCHAR E251
ENCODING 57937
SWIDTH 975 0
DWIDTH 26 0
BBX 25 25 0 -7
BITMAP
78000000
FFC00000
FEE00000
87300000
F3980000
79C40000
FDE60000
DDF30000
CC798000
C71CC000
43CE6000
61EF3000
30EF9800
1867CC00
0C33E600
0618F300
030E3900
01879D00
00C3DF00
0061CF00
0030EF00
00186380
000C3180
00071F80
0001FF00
ENDCHAR
STARTCHAR E252
ENCODING 57938
SWIDTH 562 0
DWIDTH 15 0
BBX 13 25 1 -6
BITMAP
0700
0380
0780
0FC0
1BC0
3FE0
3FE0
7FF0
FFF0
FFF8
FFF8
0000
3FE0
3FE0
3FC0
1FC0
1FC0
1F80
0F80
0F80
0F00
0700
0600
0600
0200
ENDCHAR
STARTCHAR E253
ENCODING 57939
SWIDTH 937 0
DWIDTH 25 0
BBX 26 14 0 -1
BITMAP
FFFFFFC0
C66318C0
CF2318C0
CF2318C0
C63FFFC0
FFBFFFC0
FFA000C0
FFBFFFC0
FFE000C0
FFE000C0
FFFFFFC0
FFE000C0
FFE000C0
FFFFFFC0
ENDCHAR
STARTCHAR E254
ENCODING 57940
SWIDTH 937 0
DWIDTH 25 0
BBX 25 10 0 1
BITMAP
EEF7CC00
EFF7EC00
EFF76D00
EFF76F80
EFF76D80
EFB76D80
EFB76D80
EDB76D80
EDB7ED80
EDB7EF80
ENDCHAR
STARTCHAR E255
ENCODING 57941
SWIDTH 937 0
DWIDTH 25 0
BBX 26 12 0 0
BITMAP
1F003C00
3FC0FF00
70E1C380
E0738180
C03F00C0
C01E00C0
C01E00C0
C03F00C0
60738180
70E1C380
3FC0FF00
0F003C00
ENDCHAR
STARTCHAR E256
ENCODING 57942
SWIDTH 712 0
DWIDTH 19 0
BBX 19 25 0 -6
BITMAP
000800
000800
001000
001000
002000
00C400
019800
032000
032000
022000
013000
011000
009000
0400C0
380220
0FDC20
000040
0FFC80
000000
040000
07F800
600040
E00180
1FFE40
0FFF80
ENDCHAR
STARTCHAR E257
ENCODING 57943
SWIDTH 937 0
DWIDTH 25 0
BBX 25 19 0 -3
BITMAP
001C0000
007F0000
03FFE000
0FFFF800
3FFFFF00
FFFFFF80
3FFFFE00
07FFF800
01FFC000
F03F0780
7C081F00
0F807800
03E3E000
607F8380
FC1C1F00
0F007C00
03E1E000
00FF8000
001E0000
ENDCHAR
STARTCHAR E258
ENCODING 57944
SWIDTH 937 0
DWIDTH 25 0
BBX 25 16 0 -2
BITMAP
00E3C000
037CE000
05FBF800
1BFFFC00
3FFFFE00
3FFFFF00
7FFFFF80
FE001F80
E3007380
FDFFFF80
67FFFF80
7FFFFF00
3FFFFE00
1FFFFC00
07FFF800
007F8000
ENDCHAR
STARTCHAR E259
ENCODING 57945
SWIDTH 562 0
DWIDTH 15 0
BBX 9 26 3 -7
BITMAP
0600
1E00
3E00
3E00
7E00
7E00
7E00
7E00
7E00
7E00
7F00
7F00
7F00
7F00
7F00
7F00
7F00
FF00
FF80
FF80
FF80
FF80
FF80
FF80
FF80
7F00
ENDCHAR
STARTCHAR E25A
ENCODING 57946
SWIDTH 937 0
DWIDTH 25 0
BBX 25 15 0 -2
BITMAP
0FFDFF00
3FFEBF80
7FFF3F80
7FFF7F00
FFFFFF00
FFFFFE00
FFFFFC00
FFFF7000
FFFF0000
FFFE0000
FFF80000
FFE00000
7F000000
79000000
70000000
ENDCHAR
STARTCHAR E25B
ENCODING 57947
SWIDTH 975 0
DWIDTH 26 0
BBX 26 24 0 -6
BITMAP
000C0000
000C0000
000C0000
008CC000
03CDF000
07EDF800
0FEDFC00
1FFFFC00
3FFFFE00
3FF3FF00
7FF3FF00
7FF3FF80
FFF3FF80
FFF3FF80
FFF3FFC0
FFF3FFC0
FFF3FFC0
FFE3FFC0
FFE1FFC0
FFC0FFC0
FF80FFC0
FF003F80
7E001F80
30000000
ENDCHAR
STARTCHAR E25C
ENCODING 57948
SWIDTH 562 0
DWIDTH 15 0
BBX 11 25 2 -6
BITMAP
7800
F840
FC40
F840
7840
7840
3040
3040
3040
3040
3040
3060
3060
3060
3060
3060
3060
3060
3060
3060
3060
3060
3040
3040
3040
ENDCHAR
STARTCHAR E25D
ENCODING 57949
SWIDTH 937 0
DWIDTH 25 0
BBX 25 25 0 -6
BITMAP
FFFFFF80
FFFFFF80
FFFFFF80
FFFFFF80
80000080
80000080
80000080
80000080
80000080
80000080
80000080
80000080
80000080
80000080
80000080
80000080
80000080
80000080
80000080
80000080
80000080
80000080
80000080
FFFFFF80
FFFFFF80
ENDCHAR
STARTCHAR E25E
ENCODING 57950
SWIDTH 975 0
DWIDTH 26 0
BBX 25 20 0 -4
BITMAP
7FFFFF00
C0000180
FFFFFE80
FFFFFE80
FFFFFE80
FFFFC080
FFFFBE80
FFFFB680
FFFFB680
FFFFB680
FFFFBE80
FFFFC080
FFFFFE80
FFFFFE80
FFFFFE80
FFFFFE80
FFFFFE80
FFFFFE00
FFFFFE00
7FFFFC00
ENDCHAR
STARTCHAR E25F
ENCODING 57951
SWIDTH 562 0
DWIDTH 15 0
BBX 13 26 1 -7
BITMAP
0080
0F80
3FC0
3FC0
7FE0
7FF0
FFF8
FDF8
FE10
FE00
FE00
FF00
FF80
FFC0
FFC0
7FC0
7FC0
7FC0
7FC0
7FC0
FFE0
FFE0
FFE0
FFE0
7FC0
FFE0
ENDCHAR
STARTCHAR E260
ENCODING 57952
SWIDTH 562 0
DWIDTH 15 0
BBX 9 26 3 -7
BITMAP
0800
1C00
0800
1C00
7F00
7F00
7F00
3E00
1C00
1C00
1C00
3E00
1C00
1C00
1C00
1C00
3E00
3E00
3E00
7F00
7F00
7F00
FF80
FF80
FF80
FF80
ENDCHAR
STARTCHAR E261
ENCODING 57953
SWIDTH 562 0
DWIDTH 15 0
BBX 12 25 1 -6
BITMAP
0F00
1F80
1FC0
1FC0
1F80
1F80
1FC0
3FE0
3FC0
0F00
0F00
0F00
0F80
1F80
1F80
1FC0
3FC0
7FE0
7FE0
7FF0
FFF0
FFF0
FFF0
7FE0
FFF0
ENDCHAR
STARTCHAR E262
ENCODING 57954
SWIDTH 562 0
DWIDTH 15 0
BBX 10 25 2 -6
BITMAP
0E00
0E00
0C00
4280
7F80
3F00
1F00
1E00
1E00
1E00
3F00
3F00
0E00
1E00
1E00
1E00
1F00
3F00
3F80
7F80
7F80
FFC0
FFC0
FFC0
FFC0
ENDCHAR
STARTCHAR E263
ENCODING 57955
SWIDTH 562 0
DWIDTH 15 0
BBX 14 26 0 -7
BITMAP
7338
7338
3FF8
3FF0
1FE0
1FF0
0FE0
1FE0
1FE0
1FE0
1FE0
1FE0
1FE0
1FE0
1FF0
1FF0
3FF8
3FF8
7FF8
7FFC
FFFC
FFFC
7FFC
7FF8
7FF8
7FFC
ENDCHAR
STARTCHAR E264
ENCODING 57956
SWIDTH 937 0
DWIDTH 25 0
BBX 25 20 0 -3
BITMAP
0000F000
0000F800
0000F800
0060F000
01E0F000
0FFFF800
3F7FFE00
FFFFFF00
C3FF8F00
FF070F80
FFFC0F80
FFFFF800
9F3FFF80
0F3FFF80
0FFFFF80
0FFFFF80
7DFFFF80
7FFFFF00
3FFE1F00
00001F00
ENDCHAR
STARTCHAR E265
ENCODING 57957
SWIDTH 637 0
DWIDTH 17 0
BBX 17 25 0 -6
BITMAP
000380
000380
000380
000380
000700
000700
003600
00ED00
01F180
01FF80
03FF80
03FF80
03FF80
03FF00
03FF00
07FE00
07FE00
07FC00
0FF800
1FF000
1FE000
3FC000
7F8000
FE0000
F00000
ENDCHAR
STARTCHAR E266
ENCODING 57958
SWIDTH 937 0
DWIDTH 25 0
BBX 25 24 0 -6
BITMAP
03FFE000
03FFE000
33FFE700
F3FFE780
F3FFE780
73FFE780
03FFE000
73FFE700
F3FFE780
F3FFE780
73FFE780
03FFE000
73FFE700
F3FFE780
F3FFE780
73FFE780
03FFE000
73FFE700
F3FFE780
F3FFE780
73FFE780
03FFE000
03FFE000
01FFC000
ENDCHAR
STARTCHAR E267
ENCODING 57959
SWIDTH 937 0
DWIDTH 25 0
BBX 25 21 0 -4
BITMAP
00038000
00078000
00038000
001F0000
003C0000
007E0000
00FA0000
01F3F000
01C00000
01F00000
00FC0000
1E3C3C00
618C4300
408C8100
804D0080
804D0080
804D0080
804D0080
40808100
61804300
1E003C00
ENDCHAR
STARTCHAR E268
ENCODING 57960
SWIDTH 937 0
DWIDTH 25 0
BBX 25 14 0 -1
BITMAP
003F0000
00FF8000
00FFC000
01FFC000
01FFE800
01FFFE00
07FFFF00
0FFFFF80
1FFFFF80
7FFFFF80
FFFFFF80
FFFFFF00
FFFFFF00
7FFFFC00
ENDCHAR
STARTCHAR E269
ENCODING 57961
SWIDTH 750 0
DWIDTH 20 0
BBX 20 26 0 -7
BITMAP
040000
030A00
030A00
029200
02F200
05FE00
03FE00
03FE00
03FE00
0FFF80
17FF40
2FFFE0
CFFF90
0FFF80
0FFF80
0FFF80
0FFF80
0FFF80
0FFF80
0FFF80
1FFFC0
17FF40
17FF40
13FE40
21FC20
00D800
ENDCHAR
STARTCHAR E26A
ENCODING 57962
SWIDTH 975 0
DWIDTH 26 0
BBX 26 25 0 -6
BITMAP
00000C00
00003D00
00007D80
07E07D80
1FF8FD80
3FF8FBC0
7FF8FBC0
FFE5F7C0
C03DFF80
3FF9EF80
FFF0FF80
7FE0DF00
7FC0DF00
0E7E5E00
00FE1800
01FF0000
03FD8000
07F30000
07EF0000
0F3F0000
0EFE0000
0DFE0000
0BFC0000
07F80000
03E00000
ENDCHAR
STARTCHAR E26B
ENCODING 57963
SWIDTH 937 0
DWIDTH 25 0
BBX 26 9 0 2
BITMAP
000FE000
00F02000
07007000
1800EF00
6003E0C0
801F80C0
81FE07C0
FFFFFF80
7FFFFE00
ENDCHAR
STARTCHAR E26C
ENCODING 57964
SWIDTH 937 0
DWIDTH 25 0
BBX 25 24 0 -6
BITMAP
00001C00
00007A00
0000FD00
0001F680
0003FB00
0007B400
000FD800
000FE800
001ED000
003D6000
00768000
00FD0000
00FE0000
01EF0000
07C00000
0F800000
1F000000
3F000000
7E000000
FE000000
FC000000
F8000000
78000000
30000000
ENDCHAR
STARTCHAR E26D
ENCODING 57965
SWIDTH 825 0
DWIDTH 22 0
BBX 22 25 0 -6
BITMAP
C00000
600000
700000
380000
1C0000
1E0000
0F2000
0FF000
7FF800
3FFC00
1FFE00
1FFF00
0FFF80
07FFC0
03FFE0
03FE30
01F808
00F00C
00F004
007004
003004
00100C
001808
000C38
0007E0
ENDCHAR
STARTCHAR E26E
ENCODING 57966
SWIDTH 975 0
DWIDTH 26 0
BBX 26 16 0 -2
BITMAP
000C0000
000C0000
00080000
00080000
C30C30C0
C20C20C0
211E2100
31FFE300
1FFFFE00
1FFFFE00
1FFFFC00
0FFFFC00
0FFFFC00
0FFFFC00
0FFFFC00
07FFE000
ENDCHAR
STARTCHAR E26F
ENCODING 57967
SWIDTH 787 0
DWIDTH 21 0
BBX 21 26 0 -7
BITMAP
07FF00
07FF00
7FFFF0
FFFFF8
FFFFF8
FFFFF8
7FFFF0
3FFFE0
3FFFE0
3FFFE0
3FFFE0
3F07E0
000000
000000
000000
000000
1E03C0
1F8FC0
1FFFC0
1FFFC0
1FFFC0
1FFFC0
1FFFC0
1FFFC0
1FFFC0
07FF00
ENDCHAR
STARTCHAR E270
ENCODING 57968
SWIDTH 975 0
DWIDTH 26 0
BBX 25 25 0 -6
BITMAP
3FFFFF00
7FFFFF80
FFFFFF80
FFFFFF80
FC7F1F80
F83E0F80
F83E0F80
FC7F1F80
FFFFFF80
FFFFFF80
FC7F1F80
F83E0F80
F83E0F80
F83E0F80
FC7F1F80
FFFFFF80
FFFFFF80
FC7F1F80
F83E0F80
F83E0F80
F83E0F80
FC7F1F80
FFFFFF80
FFFFFF80
7FFFFF00
ENDCHAR
STARTCHAR E271
ENCODING 57969
SWIDTH 975 0
DWIDTH 26 0
BBX 26 25 0 -6
BITMAP
007F8000
01FFE000
07FFF000
0FFFFC00
1FFFFE00
3FFFFE00
3FFFFF00
7FF7FF00
7FC0FF80
FF807F80
FF003F80
FF1C3F80
FF1E3FC0
FF1E3F80
FF0C3F80
FF007F80
7F80FF80
7FE1FF80
7FFFFF00
3FFFFF00
1FFFFE00
1FFFFC00
07FFF800
03FFF000
00FFC000
ENDCHAR
STARTCHAR E272
ENCODING 57970
SWIDTH 562 0
DWIDTH 15 0
BBX 15 25 0 -6
BITMAP
C006
C006
FFFE
C006
C006
DFF6
5FFC
600C
601C
37D8
1870
0FE0
0FC0
3FF0
7038
67DC
67CC
C00C
C006
DFF6
C006
C006
FFF6
FFF6
C006
ENDCHAR
STARTCHAR E273
ENCODING 57971
SWIDTH 937 0
DWIDTH 25 0
BBX 26 21 0 -4
BITMAP
003F0000
03FFF000
0F3FBC00
3E7F7F00
7FFFFF80
7F807F80
FF003BC0
F38073C0
E7F3FFC0
FCFFFFC0
FFFEFFC0
FFFDFFC0
DFFFFEC0
CFFFF8C0
CFFFF8C0
C37980C0
63180180
33180300
1E181E00
07FFF800
00FFC000
ENDCHAR
STARTCHAR E274
ENCODING 57972
SWIDTH 562 0
DWIDTH 15 0
BBX 12 25 1 -7
BITMAP
10C0
30C0
3DC0
3FC0
3FC0
3FC0
3FC0
1FC0
1FC0
0700
1FC0
3FC0
3FC0
3FE0
3FE0
7FE0
7FE0
7FF0
7FF0
7FF0
7FF0
FFF0
FFF0
FFF0
3FE0
ENDCHAR
STARTCHAR E275
ENCODING 57973
SWIDTH 675 0
DWIDTH 18 0
BBX 18 26 0 -7
BITMAP
008000
00C000
01E000
03E000
03F000
07F000
07F800
0FF800
0FFC00
1FFE00
3FFE00
3FFF00
7FFF00
7FFF80
FFFF80
FFFF80
FFFFC0
FFFFC0
FFFF80
FFFF80
7FFF80
7FFF00
3FFF00
1FFE00
0FF800
01E000
ENDCHAR
STARTCHAR E276
ENCODING 57974
SWIDTH 975 0
DWIDTH 26 0
BBX 26 25 0 -6
BITMAP
007F8000
01FFE000
07FFF800
0FFFFC00
1FFFFE00
3FFFFE00
7FFFFF00
7FFFFF80
7FFFFF80
FFFFFF80
FFFFFF80
FFFFFFC0
FFFFFFC0
FFFFFFC0
F9FFEF80
FDFFCF80
7CFFCF80
7E7F9F80
7F3E3F00
3FC0FF00
1FFFFE00
0FFFFC00
07FFF800
03FFE000
007F8000
ENDCHAR
STARTCHAR E277
ENCODING 57975
SWIDTH 862 0
DWIDTH 23 0
BBX 23 25 0 -6
BITMAP
003C00
00FE00
01FF80
07FFC0
0FFFF0
3FFFF8
7FFFFC
FFFFFE
FFFFFE
FFFFFE
FFFFFE
7FFFFC
3FFFF8
8FFFF2
E7FFC6
F3FF9E
F8FF3E
FE7C7E
FF11FE
FFC3FE
FFFFFE
FFFFFE
FFFFFE
FFFFFE
7FFFFE
ENDCHAR
STARTCHAR E278
ENCODING 57976
SWIDTH 825 0
DWIDTH 22 0
BBX 22 26 0 -7
BITMAP
007800
00FC00
018600
070380
0E01C0
1800E0
300030
600018
C0000C
C0000C
C0000C
C0000C
C0000C
E0001C
F8007C
DC00EC
C6018C
C3070C
C1CE0C
C0FC0C
C0200C
C0000C
C0000C
C0000C
FFFFFC
7FFFF8
ENDCHAR
STARTCHAR E279
ENCODING 57977
SWIDTH 937 0
DWIDTH 25 0
BBX 25 18 0 -3
BITMAP
7FFFFF00
FFFFFF80
FFFFFF80
FFFFFF80
FFFFFF80
FFFFFF80
7FFFFF00
00000000
00000000
00000000
00000000
7FFFFF00
FFFFFF80
FFFFFF80
FFFFFF80
FFFFFF80
FFFFFF80
7FFFFF00
ENDCHAR
STARTCHAR E27A
ENCODING 57978
SWIDTH 937 0
DWIDTH 25 0
BBX 25 17 0 -2
BITMAP
0000C000
0001E000
0001F000
7FF8F800
FFFE7C00
FFFE3E00
FFFE1F00
00000F80
00000780
00000F80
FFFE1F00
FFFE3E00
FFFE7C00
7FF8F800
0001F000
0001E000
0001C000
ENDCHAR
STARTCHAR E27B
ENCODING 57979
SWIDTH 937 0
DWIDTH 25 0
BBX 25 22 0 -5
BITMAP
001E0000
003F0000
007F8000
00FFC000
01FFE000
03F3F000
07E3F800
0FC7FC00
1F8FFE00
3F1FFF00
7E3FFF80
FC73FF80
F8E3FF80
FDC7FF80
7F8FFF00
3F1FFE00
1FB7FC00
0FE3F800
07E3F000
03F7E000
01FFC000
00FF8000
ENDCHAR
STARTCHAR E27C
ENCODING 57980
SWIDTH 900 0
DWIDTH 24 0
BBX 24 26 0 -7
BITMAP
FFE600
FFE700
FFE780
FFE7C0
FFE7E0
FFE7F0
FFE7F8
FFE7F8
FFE000
FFE000
FFFF00
FFFE00
FFFE70
FFF878
FFF03C
FFE01E
FFE7FE
FFE7FF
FFE7FE
FFF01C
FFFC38
FFFE78
FFFE30
FFFF00
FFFF8C
7FFFF8
ENDCHAR
STARTCHAR E27D
ENCODING 57981
SWIDTH 900 0
DWIDTH 24 0
BBX 24 26 0 -7
BITMAP
7FE000
FFE600
FFE700
FFE780
FFE7C0
FFE7E0
FFE7F0
FFE7F8
FFE7F8
FFE000
FFE000
FFFF30
FFFC70
FFF8F0
FFF1E0
FFF3FF
FFE7FF
FFE3FF
FFE1C0
FFF0E0
FFF870
FFFC30
FFFE00
FFFF00
FFFF88
7FFFF0
ENDCHAR
STARTCHAR E27E
ENCODING 57982
SWIDTH 937 0
DWIDTH 25 0
BBX 25 21 0 -4
BITMAP
03800000
07C00000
0C600000
0C60E000
0041F800
FFC3FC00
FF830C00
00030C00
00001C00
FFFFF800
FFFFF000
00000000
00000000
0FFFFE00
0FFFFF00
00000380
00003180
00003180
00003180
00001F80
00001F00
ENDCHAR
STARTCHAR E27F
ENCODING 57983
SWIDTH 937 0
DWIDTH 25 0
BBX 25 23 0 -5
BITMAP
03000000
03C1E000
04261000
081C1000
08181000
08141000
08221000
05FFD000
0E413800
3480A600
4300A100
83186080
821C4080
831C6100
6480A200
1C812C00
07FFD000
08221000
08141000
08081000
04141000
06221000
07C1E000
ENDCHAR
STARTCHAR E280
ENCODING 57984
SWIDTH 712 0
DWIDTH 19 0
BBX 19 25 0 -6
BITMAP
3C0000
7F0000
FFC000
FFF000
FFF800
FFFC00
7FFE00
3FFF00
0FFF00
03FF80
01FFC0
3CFFC0
7C7FE0
7E3FE0
7E3FE0
3F1FE0
3F1FE0
3F8FE0
1FC7C0
0FF100
0FFE00
07FE00
03FF00
00FE00
003E00
ENDCHAR
STARTCHAR E281
ENCODING 57985
SWIDTH 937 0
DWIDTH 25 0
BBX 25 23 0 -5
BITMAP
00000800
00001C00
00001C00
00001800
00003700
00007700
00007700
0000F700
0003F780
6007E780
FFFFEF80
FFFFEF80
7FFFDF80
3FFFBF80
1FFF3F80
07FEFF80
00F1FF00
000FFF00
07FFFE00
07FFFC00
07FFF800
03FFF000
00FFC000
ENDCHAR
STARTCHAR E282
ENCODING 57986
SWIDTH 937 0
DWIDTH 25 0
BBX 25 18 0 -3
BITMAP
00003000
00019000
00018000
00000000
00003000
00003000
00000000
FFFFFF80
FFFFFF80
FFFFFF80
7FFFFF00
7FFFFF00
3FFFFF00
3FFFFE00
3FFFFE00
1FFFFC00
07FFF000
07003000
ENDCHAR
STARTCHAR E283
ENCODING 57987
SWIDTH 937 0
DWIDTH 25 0
BBX 25 22 0 -5
BITMAP
1FFFFC00
3FFFFE00
3FFFFF00
3FFFFF00
3FFFFF00
301C0700
300C0700
00000000
00000000
00000000
FFFFFF80
FFFFFF80
FFFFFF80
FFFFFF80
FFFFFF80
FFFFFF80
FFFFFF80
FFFFFF80
7FFFFF80
3FFFFE00
1F007C00
0F003C00
ENDCHAR
STARTCHAR E284
ENCODING 57988
SWIDTH 862 0
DWIDTH 23 0
BBX 23 26 0 -7
BITMAP
003800
007C00
007C00
007C00
01FF00
77B9DC
FE00FE
FC007E
FC007E
F8003E
300018
300008
300008
300008
300008
70001C
F8003E
FC007E
FC007E
7E00FE
33BB98
00FF00
007C00
007C00
007C00
003800
ENDCHAR
STARTCHAR E285
ENCODING 57989
SWIDTH 600 0
DWIDTH 16 0
BBX 16 26 0 -7
BITMAP
3000
7800
FC00
FE00
7F00
3F80
1FC0
0FE0
07F0
03F8
01FC
00FE
007F
00FE
01FE
03FC
07F8
0FF0
1FE0
3FC0
7F80
FF00
FE00
FC00
7800
2000
ENDCHAR
STARTCHAR E286
ENCODING 57990
SWIDTH 937 0
DWIDTH 25 0
BBX 26 24 0 -6
BITMAP
00400000
0080C000
01004000
01002000
02002000
02003000
033F3000
037FB000
03A16000
01C0E000
0FF3FC00
3FF3FF00
62619100
43213080
83043080
839E7040
019EE040
01FFC000
00DF8000
001E0000
00370000
00738000
09C0EC00
06001000
ENDCHAR
STARTCHAR E287
ENCODING 57991
SWIDTH 937 0
DWIDTH 25 0
BBX 25 25 0 -6
BITMAP
007F0000
03FFE000
07FFF000
0FFFF800
1FFFFC00
3E01FE00
7C00FE00
78007F00
78007F00
F87C7F80
F87C7F80
F8000F80
F8000F80
F8000F80
F8000F80
F87F8F80
787F8F00
78000F00
7C001E00
3E003E00
1FFFFC00
0FFFF800
07FFF000
01FFE000
007F0000
ENDCHAR
STARTCHAR E288
ENCODING 57992
SWIDTH 937 0
DWIDTH 25 0
BBX 25 25 0 -6
BITMAP
7FFFFF00
FFFFFF80
FFFFFF80
FFFFFF80
FE00FF80
FC007F80
F8007F80
F83C7F80
F87E7F80
F87E7F80
F8007F80
F8001F80
F8000F80
F8000F80
F87F0F80
F87F0F80
F83E0F80
F8000F80
FC001F80
FE003F80
FFFFFF80
FFFFFF80
FFFFFF80
FFFFFF80
7FFFFF00
ENDCHAR
STARTCHAR E289
ENCODING 57993
SWIDTH 975 0
DWIDTH 26 0
BBX 26 23 0 -5
BITMAP
003E0000
003E0000
00000000
003E0000
003E0000
18000400
7F9E7F00
FFCDFF80
FFF3FF80
FFFFFFC0
FFFFFF80
7FFDFF80
3F807F00
1F007C00
0F003800
07807800
0FC1F800
0FFFFC00
1FFFBC00
0E7FB800
03E1F000
03C0F000
03807000
ENDCHAR
STARTCHAR E28A
ENCODING 57994
SWIDTH 937 0
DWIDTH 25 0
BBX 25 22 0 -5
BITMAP
FFC1FF80
FFF7FF80
FFFFFF80
FFFFFF80
FFFFFF80
FFFFFF80
FFFFFF80
FFFFFF80
FFFFFF80
FFFFFF80
FFFFFF80
FFFFFF80
FFFFFF80
FFFFFF80
FFFFFF80
FFFFFF80
FFFFFF80
FFFFFF80
FFFFFF80
7FFFFF80
003E0000
000C0000
ENDCHAR
STARTCHAR E28B
ENCODING 57995
SWIDTH 937 0
DWIDTH 25 0
BBX 26 21 0 -4
BITMAP
FFE1FFC0
FFFFFFC0
C03F00C0
C00C00C0
C00C00C0
C00C00C0
C00C00C0
C00C00C0
C00C00C0
C00C00C0
C00C00C0
C00C00C0
C00C00C0
C00C00C0
C00C00C0
C00C00C0
C00C00C0
FFCCFFC0
FFFFFFC0
007F8000
001E0000
ENDCHAR
STARTCHAR E28C
ENCODING 57996
SWIDTH 937 0
DWIDTH 25 0
BBX 25 24 0 -6
BITMAP
03FFC000
0FFFE000
1FFFF000
3FFFFC00
7FFFFC00
FFFFFE00
FFFFFE00
FFFFFF00
FFFFFF00
FFFFFF80
7FFFFF80
3FFFFF80
0FFFFF80
07FFFF80
07FFFF00
01FFFE00
000FFC00
000FFC00
0007F800
0003F000
00030000
00030000
00030000
00020000
ENDCHAR
STARTCHAR E28D
ENCODING 57997
SWIDTH 937 0
DWIDTH 25 0
BBX 25 22 0 -5
BITMAP
001E0000
003FC000
0031E000
00707800
01E03C00
07800E00
1F000700
3C000380
F0000180
F0001B80
78003F80
3C00FF00
9E01E000
CF07C180
67CF9F80
33FE3600
08FCE000
06718000
03070000
018C0000
00F80000
00600000
ENDCHAR
STARTCHAR E28E
ENCODING 57998
SWIDTH 975 0
DWIDTH 26 0
BBX 26 20 0 -3
BITMAP
7E001F80
FF007FC0
FFC0FFC0
FFE1FFC0
FFE3FFC0
FFF3FFC0
FFFFFF80
7FFFFF80
7FFFFF80
7FFFFF80
3FFFFF00
1FFFFE00
1FFFFE00
1FFFFE00
1FFFFE00
1FF7FE00
1FF3FE00
1FF3FC00
0FE1FC00
07C0F800
ENDCHAR
STARTCHAR E28F
ENCODING 57999
SWIDTH 937 0
DWIDTH 25 0
BBX 25 26 0 -7
BITMAP
00000600
00010E00
00011F80
00013700
00017C00
00037800
0003E000
0008C000
001E4000
001F0000
006F0000
00FF0000
01FE0000
03FE0000
07F40000
07F80000
0FF00000
0FE00000
17C00000
3F800000
7F000000
7E000000
EC000000
F0000000
E0000000
80000000
ENDCHAR
STARTCHAR E290
ENCODING 58000
SWIDTH 975 0
DWIDTH 26 0
BBX 25 25 0 -6
BITMAP
007F0000
03FFE000
07E1F000
0F003800
1C001C00
381C0E00
301C0700
701C0300
60000380
E07F0180
E07F0180
C07F0180
C07F0180
C07F0180
E07F0180
E01E0180
601E0380
701E0300
701E0700
381E0E00
1C1E1C00
0E003C00
0780F800
03FFE000
00FF8000
ENDCHAR
STARTCHAR E291
ENCODING 58001
SWIDTH 975 0
DWIDTH 26 0
BBX 25 25 0 -6
BITMAP
007F0000
03FFE000
07C1F000
0E003800
1C001C00
38000E00
30000700
70000300
60000300
E0E1C180
C1F3F180
C3162180
C3060180
C3060180
C3972180
E1F3E180
60E1C380
60000300
70000700
38000E00
1C001E00
0E003C00
0780F800
03FFE000
00FF8000
ENDCHAR
STARTCHAR E292
ENCODING 58002
SWIDTH 937 0
DWIDTH 25 0
BBX 25 25 0 -6
BITMAP
007F0000
03FFE000
07C1F000
0F003800
1C001C00
38080E00
30080700
783F0300
7E7F0380
FFE20180
C3F00180
C0FC0180
C03F0180
C007E180
C003F980
E063FF80
60FF8F80
607E0300
70080700
38080E00
1C001E00
0E003C00
0780F800
03FFE000
00FF8000
ENDCHAR
STARTCHAR E293
ENCODING 58003
SWIDTH 937 0
DWIDTH 25 0
BBX 25 25 0 -6
BITMAP
007F0000
03FFE000
07C1F000
0F003800
1C001C00
38000E00
301F8700
707F8300
7EFF0380
FFE00180
C7E00180
C3FF0180
C3FF0180
C3FFC180
C3FFF180
C1E0FF80
60F01F80
60FF8300
707F8700
381F0E00
1C001C00
0E003C00
0780F000
03FFE000
007F8000
ENDCHAR
STARTCHAR E294
ENCODING 58004
SWIDTH 937 0
DWIDTH 25 0
BBX 25 25 0 -6
BITMAP
007F0000
03FFE000
07C1F000
0F003800
1C001C00
38000E00
30000700
71E1C300
7EE1C380
FFF38180
C7F38180
C1FF0180
C0FFC180
C0FFC180
C01FF180
E01FFD80
60FFFF80
60FFCF00
701C0700
381C0600
1C1C1C00
0E003C00
0780F000
03FFE000
007F8000
ENDCHAR
STARTCHAR E295
ENCODING 58005
SWIDTH 975 0
DWIDTH 26 0
BBX 25 25 0 -6
BITMAP
007F8000
03FFE000
07C1F000
0F003C00
1C001C00
38000E00
30000700
70000300
60000380
E0000180
E0FF8180
C0FF8180
C0000180
C0000180
E0FF8180
E0FF8180
60000380
70000300
70000700
38000E00
1C001E00
0E003C00
0780F800
03FFE000
00FF8000
ENDCHAR
STARTCHAR E296
ENCODING 58006
SWIDTH 937 0
DWIDTH 25 0
BBX 25 25 0 -6
BITMAP
007F0000
03FFE000
07C1F000
0F003800
1C001C00
38200E00
30F80700
71FF0300
61FFC380
E1FFC180
C1FFC180
C7FFC180
CFEFB180
CFE31980
CFE0E980
E7CC4980
60035B80
6000E300
70000700
38000E00
1C001C00
0E003C00
0780F000
03FFE000
007F8000
ENDCHAR
STARTCHAR E297
ENCODING 58007
SWIDTH 937 0
DWIDTH 25 0
BBX 25 25 0 -6
BITMAP
007F0000
03FFE000
07C1F000
0F003800
1C001C00
38000E00
303E0700
707F8300
60FFC380
E1E1C180
C1C1E180
C3C0E180
C080E180
C000E180
C000E180
E1C1E180
61E3C380
60FFC300
707F8700
383C0E00
1C001C00
0E003C00
0780F800
03FFE000
00FF8000
ENDCHAR
STARTCHAR E298
ENCODING 58008
SWIDTH 975 0
DWIDTH 26 0
BBX 25 25 0 -6
BITMAP
007F0000
01FFE000
07E1F000
0F003800
1C001C00
38000E00
31FE0700
71020300
61020380
E11FC180
E1104180
C1104180
C1104180
C1104180
E1104180
E1F04180
60104380
70104300
70104700
381FCE00
1C001E00
0E003C00
07C0F800
03FFE000
00FF8000
ENDCHAR
STARTCHAR E299
ENCODING 58009
SWIDTH 975 0
DWIDTH 26 0
BBX 25 25 0 -6
BITMAP
007F0000
01FFE000
07C1F000
0E003800
1C001C00
383C0E00
307F0700
70FF8300
60E78300
E1C7C180
C1CFC180
C1CDC180
C1DDC180
C1D9C180
C1F1C180
E1F1C180
60E38380
60FF8300
707F0700
383E0E00
1C001E00
0E003C00
0780F800
03FFE000
00FF8000
ENDCHAR
STARTCHAR E29A
ENCODING 58010
SWIDTH 787 0
DWIDTH 21 0
BBX 21 26 0 -7
BITMAP
FFFFF8
FFFFF8
C00018
C00018
C00018
C18018
C30018
DF3FD8
DE3FD8
CC0018
C00018
C00018
CE3FD8
CE3FD8
C00018
C00018
C00018
C00018
CE3FD8
CE3FD8
C00018
C00018
C00018
C00018
FFFFF8
FFFFF8
ENDCHAR
STARTCHAR E29B
ENCODING 58011
SWIDTH 862 0
DWIDTH 23 0
BBX 22 25 0 -6
BITMAP
0000C0
000180
000780
000D00
001900
001300
002200
006200
004200
008200
008200
018200
010200
010200
1D03E0
3FC7F8
7FEFF8
FFDFFC
FFDFFC
FFDFFC
FFDFFC
FFDFFC
7FEFFC
7FCFF8
1F83F0
ENDCHAR
STARTCHAR E29C
ENCODING 58012
SWIDTH 562 0
DWIDTH 15 0
BBX 9 26 3 -7
BITMAP
0800
0800
1800
1C00
2E00
3E00
3E00
3E00
3E00
3C00
1C00
3E00
1C00
1C00
3E00
3E00
3E00
7F00
FF00
FF00
FF80
FF80
FF80
FF80
FF00
FF80
ENDCHAR
STARTCHAR E29D
ENCODING 58013
SWIDTH 937 0
DWIDTH 25 0
BBX 25 25 0 -6
BITMAP
007F0000
01FFE000
027F0000
081C0800
1E083C00
3F007E00
7F80FF00
7F80FF00
7F007F80
FE003F80
FE1C1F80
FC3E1F80
F87F0F80
F8FF8780
F1FFC780
F3FFE380
E7FFF380
67FFF300
6FFFFB00
2FFFFA00
1FFFFC00
0FFFFC00
07FFF800
03FFE000
00FF8000
ENDCHAR
STARTCHAR E29E
ENCODING 58014
SWIDTH 787 0
DWIDTH 21 0
BBX 21 26 0 -7
BITMAP
0043E0
00CFE0
006FC0
007F80
007F00
003800
062200
1FFFC0
3FFFE0
7FFFF0
7FFFF8
FFFFF8
FFFFF8
FFFFF8
FFFFF8
FFFFF8
7FFFF8
7FFFF0
7FFFF0
3FFFE0
3FFFE0
1FFFC0
0FFFC0
07FF80
03FE00
008800
ENDCHAR
STARTCHAR E29F
ENCODING 58015
SWIDTH 937 0
DWIDTH 25 0
BBX 25 25 0 -6
BITMAP
0001F000
0007FC00
000FFE00
000FFF00
001FFF00
003FFF00
003FFF80
007FFF80
007FFF00
007FFF00
00FFFF00
00FFFE00
00FFFC00
00FFF800
00FFE000
01FF8000
03FC0000
27C00000
FF800000
FF000000
FE000000
7F000000
1F000000
1F000000
0F000000
ENDCHAR
STARTCHAR E2A0
ENCODING 58016
SWIDTH 937 0
DWIDTH 25 0
BBX 25 15 0 -1
BITMAP
FFFFFF80
FFE1FF80
FFC0FF80
FFBF7F80
FF7F7F80
FF227F80
FF3E7F80
FFBE7F80
FFBEFF80
FFE1FF80
FFFFFF80
00000000
00000000
FFFFFF80
FFFFFF80
ENDCHAR
STARTCHAR E2A1
ENCODING 58017
SWIDTH 562 0
DWIDTH 15 0
BBX 6 25 4 -7
BITMAP
FC
EC
28
6C
44
44
5C
5C
5C
7C
7C
7C
7C
7C
7C
7C
7C
54
38
10
10
10
10
10
10
ENDCHAR
STARTCHAR E2A2
ENCODING 58018
SWIDTH 825 0
DWIDTH 22 0
BBX 22 25 0 -5
BITMAP
00F000
037800
0FF800
17F800
01FF80
037FC0
07FFE0
08FF60
007FA0
00FB80
01CDC0
038CC0
070880
070880
0E0000
0E0000
1E0000
1E0000
3C0000
3C0000
3FFF00
7FFFC0
7FFFF0
7FFFF8
FFFFFC
ENDCHAR
STARTCHAR E2A3
ENCODING 58019
SWIDTH 637 0
DWIDTH 17 0
BBX 17 25 0 -7
BITMAP
03F000
0FFC00
1E1E00
380F00
73E700
671380
660B80
ECFB80
ECFB80
ECF380
6E0780
670F00
37FF00
3BFE00
1CFC00
07F800
01C000
01C000
01C000
01C000
01C000
01C000
01C000
01C000
01C000
ENDCHAR
STARTCHAR E2A4
ENCODING 58020
SWIDTH 937 0
DWIDTH 25 0
BBX 25 15 0 -1
BITMAP
FFFFFF80
FFE1FF80
FFC0FF80
FFB67F80
FF7F7F80
FF7F7F80
FF3E7F80
FF9C7F80
FF88FF80
FFE1FF80
FFFFFF80
00000000
00000000
FFFFFF80
FFFFFF80
ENDCHAR
STARTCHAR E2A5
ENCODING 58021
SWIDTH 937 0
DWIDTH 25 0
BBX 25 21 0 -4
BITMAP
00000600
00007F00
0007E180
01FE0C80
0F807C80
1C07F980
31FFE380
67FFCF80
CF7FBF80
9C1F3F00
980E7C00
981EF000
DE3CE000
DFF9C000
EFF3C000
F3E78000
7C1F8000
7FFF0000
3FFE0000
1FFC0000
07F00000
ENDCHAR
STARTCHAR E2A6
ENCODING 58022
SWIDTH 937 0
DWIDTH 25 0
BBX 25 13 0 0
BITMAP
00180000
003C0000
003C0000
007E0000
00FF3000
00FF7800
01FFF800
01FFFC00
13FFFC00
3BFFFE00
3FFFFF00
7FFFFF00
FFFFFF80
ENDCHAR
STARTCHAR E2A7
ENCODING 58023
SWIDTH 637 0
DWIDTH 17 0
BBX 17 25 0 -6
BITMAP
3C0000
1F0000
1F8000
1F8E00
0FDE00
07DC00
01F800
007000
006000
0FF000
1FFC00
3FFE00
7FFF00
7FFF00
FFFF80
FFFF80
FFFF80
FFFF80
FFFF80
FFFF80
7F9F00
7FF700
3FBE00
1FFC00
07F000
ENDCHAR
STARTCHAR E2A8
ENCODING 58024
SWIDTH 750 0
DWIDTH 20 0
BBX 20 25 0 -6
BITMAP
3C1000
3F3800
3FF000
1FF000
07E000
00E000
0F6F00
3FFFC0
7FFFC0
7FFFE0
FFFFE0
FFFFF0
FFFFF0
FFFFF0
FFFFF0
FFFFF0
7FFFE0
7FFFE0
7FFFC0
3FFF80
1FFF80
0FFE00
03FC00
00F000
004000
ENDCHAR
STARTCHAR E2A9
ENCODING 58025
SWIDTH 562 0
DWIDTH 15 0
BBX 15 26 0 -7
BITMAP
7C60
FEC0
7F80
3F80
0180
07C0
07C0
0FE0
0FE0
0FE0
0FE0
1FF0
1FF0
3FF8
3FF8
7FFC
7FFE
FFFE
FFFE
FFFE
FFFE
FFFE
7FFC
7FFC
3FF8
0640
ENDCHAR
STARTCHAR E300
ENCODING 58112
SWIDTH 1537 0
DWIDTH 41 0
BBX 41 35 0 -11
BITMAP
000000400000
000000600000
000000600000
000000600000
000080601000
0001C0003800
0001C0007000
0000C000E000
000001F84000
000007FC0000
0007FF9E0000
001FFE070000
003C1E038000
003807038000
007003018F00
006003818F80
00E001F18F00
03E001FF8000
0781C03F0000
0E03E00F0000
0E03F0070000
000030030000
000030030000
FFFFF0033000
FFFFE0033800
000000073800
0000000E0000
0000003E0000
FFF1FFFC0000
FFF9FFF00000
003800000000
001800000000
01B800000000
01F000000000
00E000000000
ENDCHAR
STARTCHAR E301
ENCODING 58113
SWIDTH 1500 0
DWIDTH 40 0
BBX 40 33 0 -10
BITMAP
0000006000
0000006000
0000006000
0000006000
0001806030
0001C00070
0000C000E0
00000000E0
000003F800
0003F7FC00
000FFF0E00
001E1E0700
00380F0300
0070070380
006003819F
00E003819F
03E001F38E
07E001FF00
0F00001F00
0E00000700
1C00000700
0000000300
0000000300
3FFF800770
3FFF800770
0000000E30
0000003E00
FFFDFFFC00
FFF9FFF000
0000000000
0000000000
07FFF00000
0FFFF00000
ENDCHAR
STARTCHAR E302
ENCODING 58114
SWIDTH 1387 0
DWIDTH 37 0
BBX 37 29 0 -8
BITMAP
0000020000
0000030000
0000030000
0000030000
000C030080
000E000180
000E000380
0004000700
00000FC200
00063FE000
007FF8F000
00FFF03800
01E0F01800
0380381C00
03001C0CF8
07001C0CF8
1F001F9C00
3E001FFC00
780000F800
7000007800
E000003800
C000003800
C000001800
E000003B00
E000003B80
7000007180
780000F000
3FFFFFE000
0FFFFF8000
ENDCHAR
STARTCHAR E303
ENCODING 58115
SWIDTH 1537 0
DWIDTH 41 0
BBX 41 33 0 -10
BITMAP
000000600000
000000600000
000000600000
000000600000
000180601800
0001C0003800
0000C0007000
00000000E000
000003FC0000
0003F7FE0000
000FFF0F0000
001F3E030000
00380F038000
003007018000
007003818F80
006001E18F80
01E001F98000
07E001FF8000
0700000F0000
0E0000070000
000000000000
000000000000
07FFFFFE2000
0FFFFFFF3800
0FFFFFFF3800
000000001000
000000000000
FFFFFFF00000
FFFFFFF00000
000000000000
000000000000
03FFFFFFC000
03FFFFFFC000
ENDCHAR
STARTCHAR E304
ENCODING 58116
SWIDTH 1425 0
DWIDTH 38 0
BBX 37 37 0 -12
BITMAP
0000030000
0000030000
0000030000
0000030000
000C030180
000E000380
0006000780
0000000700
00001FC000
001F3FF000
007FF87000
00FBF03800
01C0701C00
0380381C00
03001C0CF8
07001C0CF8
1F000F8C00
3F000FFC00
780000F800
7000003800
E000003800
C000001800
C001081800
C0339C1B80
E0739C3B80
7073183180
786338F000
3EE73BE000
0EE6338000
0006000000
000E000000
01CE600000
008C600000
0000000000
0000000000
0018000000
0018000000
ENDCHAR
STARTCHAR E305
ENCODING 58117
SWIDTH 1387 0
DWIDTH 37 0
BBX 37 37 0 -13
BITMAP
0000060000
0000060000
0000060000
0000060000
000C060180
000E000380
0006000780
0000000700
00001FC000
001F3FF000
007FF07000
00FFE03800
01C0701800
0380301C00
0300380CF8
07001C0CF8
1F001FDC00
3F001FF800
700000F800
6000003000
E000003800
C007C01800
C007801800
E007801B80
E00F003980
700F007080
3C1E01E000
1E1FC3C000
061F830000
0003800000
0007000000
0006000000
000E000000
000C000000
0008000000
0010000000
0010000000
ENDCHAR
STARTCHAR E306
ENCODING 58118
SWIDTH 1387 0
DWIDTH 37 0
BBX 37 37 0 -12
BITMAP
0000030000
0000030000
0000030000
0000030000
000C030180
000E000380
000E000700
0000000700
00001FC000
001F3FF000
007FF87000
01FBE03800
01C0701C00
0380381C00
0300180CF8
07001F0CF8
1F001FDC00
3E000FF800
7000007800
E000003800
E000003800
C000001800
C020081800
E0301C3B80
E070183980
7020187000
380000E000
1E6633C000
0E66338000
0006000000
00C0600000
01CC600000
00CC600000
0000000000
0018000000
0018000000
0018000000
ENDCHAR
STARTCHAR E307
ENCODING 58119
SWIDTH 1425 0
DWIDTH 38 0
BBX 38 38 0 -13
BITMAP
0000030000
0000030000
0000030000
0000030000
000C0301C0
000E0003C0
0006000380
0000030300
00001FE000
003FBFF000
007FF07800
00F1F01800
01C0781C00
0380380C38
03001C0C7C
07001F8C38
1F000FFC00
380000FC00
7000007800
6000003800
E000001800
C000001800
E000001800
E000001980
E0000039C0
70186070C0
7818E1E000
3E38E7C000
0C71CF0000
00E39C0000
00E71C0000
000F380000
020E100000
071C000000
0008C00000
0000C00000
0060000000
0060000000
ENDCHAR
STARTCHAR E308
ENCODING 58120
SWIDTH 1387 0
DWIDTH 37 0
BBX 38 37 0 -12
BITMAP
0000030000
0000030000
0000030000
0000030000
000C0300C0
000E0001C0
0006000380
0000000700
00001FC000
001F3FF000
007FF87800
00FBF03800
01C0701C00
0380380C00
03001C0C7C
07001E0C7C
1F000FCC00
3F000FFC00
7800007800
6000003800
E000003800
C000001800
C000001800
E0319C1980
E0339C39C0
7073983080
787318F000
3E633BE000
0E673B8000
00E7300000
00C6300000
00C6700000
00CE600000
000C000000
000C000000
001C000000
001C000000
ENDCHAR
STARTCHAR E309
ENCODING 58121
SWIDTH 1387 0
DWIDTH 37 0
BBX 37 37 0 -12
BITMAP
0000060000
0000060000
0000060000
0000060000
0008060180
001C000380
000C000700
0000000600
00001FC000
003F7FE000
00FFF0F000
01F3E03800
03C0703800
0380301800
07003818F8
07001818F8
1E001F9800
3E001FD800
780000F800
6000007000
E000003000
C000003000
C020003000
E070183300
E070383380
7060387180
780001E000
3E0603C000
0E06038000
00C6600000
01C4600000
01C0E00000
0080400000
0008000000
0018000000
0018000000
0018000000
ENDCHAR
STARTCHAR E30A
ENCODING 58122
SWIDTH 1387 0
DWIDTH 37 0
BBX 37 36 0 -12
BITMAP
0000060000
0000060000
0000060000
0000060000
000C060180
000E000380
0004000700
0000070600
00003FE000
003FFFF000
00FFE03800
01E0E01800
0380701C00
0380380CF8
0700180CF8
0F001F9C00
3E001FF800
7C0000F800
7000007800
E000003800
E000003800
C000001800
C000001B00
E000003B80
6006007180
780600F000
3E6033E000
1E60338000
0000000000
0006000000
0006000000
0060300000
0060300000
0000000000
0006000000
0006000000
ENDCHAR
STARTCHAR E30B
ENCODING 58123
SWIDTH 1387 0
DWIDTH 37 0
BBX 37 32 0 -10
BITMAP
0000060000
0000060000
0000060000
0000060000
000C060180
000E000380
0004000700
0000070600
00003FE000
003FFFF000
00FFE03800
01E1E01800
0380701800
0300380C78
0700180CF8
0E001F8C70
3E001FF800
780100F800
7003807800
E003803800
E061001800
C060001800
C0F0001B00
E0F0003B80
6063003180
780780F000
3E07C3E000
1E0FC38000
000FE00000
000FC00000
0007C00000
0003800000
ENDCHAR
STARTCHAR E30C
ENCODING 58124
SWIDTH 1237 0
DWIDTH 33 0
BBX 33 31 0 -9
BITMAP
0000C00000
0001C00000
0001C00000
0001C00000
0001C00000
0600C01800
0700003800
0780007800
03C000F000
0183F06000
000FFC0000
001FFE0000
003E0F0000
0038070000
0078038000
0070038000
F870018F80
F87C018F80
70FE018700
01FF038000
03C3838000
0383E70000
0F81FF0000
1F01FE0000
1C001C0000
38001C6000
38001C7000
1C003C7800
1FFFF83800
0FFFF80000
07FFE00000
ENDCHAR
STARTCHAR E30D
ENCODING 58125
SWIDTH 1125 0
DWIDTH 30 0
BBX 29 29 0 -8
BITMAP
00030000
00030000
00030000
00030000
0C030180
0E000380
07000300
03000700
001FC000
003FF000
00787800
00E03800
00E01C00
00C00C00
F8C00CF8
F8C00CF8
00C00C00
00E01800
00703800
00787000
003FE000
010FC200
07000700
0F000380
0E030180
00030000
00030000
00030000
00030000
ENDCHAR
STARTCHAR E30E
ENCODING 58126
SWIDTH 1425 0
DWIDTH 38 0
BBX 38 37 0 -12
BITMAP
0000030000
0000030000
0000030000
0000030000
000C0300C0
000E0001C0
0006000380
0000000300
00001FC000
001FBFF000
007FF87800
00F9F03800
01C0701C00
0380380C00
0380180C7C
07001C0C7C
1F000F8C00
3F000FFC00
780000F800
7000003800
E000003800
C000001800
C000001800
E1F00C1980
E1E01C39C0
73E01C3880
7BC000F000
3FC303E000
0F8303C000
07F3300000
0FE2300000
0FC0700000
01C0300000
0184000000
030C000000
020C000000
040C000000
ENDCHAR
STARTCHAR E30F
ENCODING 58127
SWIDTH 1387 0
DWIDTH 37 0
BBX 37 37 0 -12
BITMAP
0000030000
0000030000
0000030000
0000030000
0008030080
000E000180
000E000380
0000000700
00001FC200
000E3FE000
007FF8F000
00FFE03800
01C0F01800
0380381C00
0300380CF8
07001C0CF8
1F001F9C00
3F001FFC00
780000F800
7000007800
E000003800
C000001800
C000001800
C1F1981B80
E1E3983B80
73E3187180
7BC338F000
3FC733E000
0F8733C000
07F6300000
0FE6700000
0FCE600000
01CE200000
018C000000
030C000000
021C000000
0408000000
ENDCHAR
STARTCHAR E310
ENCODING 58128
SWIDTH 1200 0
DWIDTH 32 0
BBX 31 25 0 -6
BITMAP
0007E000
001FF800
003E7C00
00701E00
00600E00
00E00700
00C00300
03C003F0
07C003F8
0E07C01C
1C07E00E
1806E006
00006006
00006006
FFFFE006
FFFF800E
0000000E
0000003C
FFE1FFF8
FFF1FFE0
00700000
00300000
03700000
03F00000
03C00000
ENDCHAR
STARTCHAR E311
ENCODING 58129
SWIDTH 1237 0
DWIDTH 33 0
BBX 33 24 0 -6
BITMAP
0003FC0000
0007FE0000
001E0F0000
001C038000
0038018000
003001C000
007000F800
01F000FE00
03C0000F00
0700000700
0600000380
0000000180
0000000180
0FFFC00180
0FFFE00380
0000000380
0000000F00
FFFEFFFE00
FFFEFFFC00
FFFEFFF800
0000000000
0000000000
03FFF80000
03FFF80000
ENDCHAR
STARTCHAR E312
ENCODING 58130
SWIDTH 1162 0
DWIDTH 31 0
BBX 31 20 0 -4
BITMAP
0000FE00
0001FF00
00008380
007C0180
01FF01C0
038380F8
0701C0FC
0600E00E
06007806
3E007E06
78000706
60000306
C000018C
C00001BC
C00001B0
C0000180
E0000300
70000700
3FFFFE00
0FFFF800
ENDCHAR
STARTCHAR E313
ENCODING 58131
SWIDTH 1275 0
DWIDTH 34 0
BBX 34 24 0 -6
BITMAP
0007F80000
000FFC0000
001C1E0000
0038070000
0070030000
0060038000
01E001F000
03E001FC00
0780001E00
0E00000E00
0C00000700
0000000000
0000000000
0FFFFFFF00
0FFFFFFF00
0000000000
0000000000
FFFFFFF000
FFFFFFF000
0000000000
0000000000
0000000000
03FFFFFFC0
03FFFFFFC0
ENDCHAR
STARTCHAR E314
ENCODING 58132
SWIDTH 1087 0
DWIDTH 29 0
BBX 29 28 0 -8
BITMAP
003F8000
00FFC000
01E0F000
03807000
03803800
03001800
07001F80
1F001FC0
380000E0
70000070
E0000038
E0000018
C0000018
C0311818
E0339818
E0731838
70733870
386738E0
1E6733C0
0E663380
00060000
008E6000
00CE6000
008C0000
00000000
00000000
00180000
00180000
ENDCHAR
STARTCHAR E315
ENCODING 58133
SWIDTH 750 0
DWIDTH 20 0
BBX 19 26 0 -7
BITMAP
0001E0
0003E0
0003C0
0FC3C0
0FC780
1F8780
1F0FE0
1F0FE0
3E01C0
3E0180
7C0380
7FC300
7F8600
FF8400
0F0400
0E0800
1E0000
1C0000
180000
380000
300000
200000
600000
400000
800000
800000
ENDCHAR
STARTCHAR E316
ENCODING 58134
SWIDTH 1087 0
DWIDTH 29 0
BBX 29 28 0 -8
BITMAP
003F8000
00FFE000
01E0F000
03807000
03803800
07001800
0F001F80
3E001FC0
780000F0
70000030
E0000038
C0000018
C0000018
C0300C18
E0301C38
70301830
780000F0
3E6233E0
0E673380
00060000
00C26000
01CC6000
01CC6000
00000000
00000000
00180000
00180000
00180000
ENDCHAR
STARTCHAR E317
ENCODING 58135
SWIDTH 1087 0
DWIDTH 29 0
BBX 29 28 0 -8
BITMAP
003F8000
00FFE000
01E0F000
03C03800
03803800
07001C00
0F001F80
3F001FE0
7C0000F0
70000070
E0000038
E0000038
C0000018
C0000018
E0000038
60002030
7038E070
3E78E3E0
1C71C7C0
00E38E00
01C71C00
008E3800
001C3000
061C0000
0618C000
0000C000
00E00000
00E00000
ENDCHAR
STARTCHAR E318
ENCODING 58136
SWIDTH 1087 0
DWIDTH 29 0
BBX 29 28 0 -8
BITMAP
003F8000
00FFE000
01E1F000
03C07000
03803800
07001800
07001F80
1F001FC0
380000E0
70000070
E0000038
E0000018
C0000018
C0311818
E0339818
E0731838
70733870
3C6739E0
1EE733C0
0EE63380
00C67000
00CE6000
01CE6000
008C0000
001C0000
001C0000
00180000
00080000
ENDCHAR
STARTCHAR E319
ENCODING 58137
SWIDTH 1087 0
DWIDTH 29 0
BBX 29 28 0 -8
BITMAP
003F8000
00FFE000
01E0F000
01C03800
03801800
03001C00
07001F80
1F000FC0
3E0001E0
70000070
E0000038
E0000018
C0000018
C0300818
E0301C18
E0701C38
70301870
3C0001E0
1E0703C0
0E070380
00C63000
00C07000
00C06000
00000000
000C0000
001C0000
001C0000
00080000
ENDCHAR
STARTCHAR E31A
ENCODING 58138
SWIDTH 1087 0
DWIDTH 29 0
BBX 29 27 0 -7
BITMAP
003F8000
00FFE000
01F1F000
03C07000
03803800
07001800
07001F80
1F001FC0
380000E0
70000070
E0000038
E0000018
C0000018
C0000018
E0000038
E0060030
78060070
3E6033E0
1E6033C0
06001300
00060000
00060000
00000000
00603000
00400000
00060000
00060000
ENDCHAR
STARTCHAR E31B
ENCODING 58139
SWIDTH 1087 0
DWIDTH 29 0
BBX 29 23 0 -5
BITMAP
001F0000
007FC000
00FBE000
01C07000
03803800
03001800
07001C00
1E001F80
3E001FE0
780100F0
60038030
E0018038
C0600018
C0F00018
C0F00018
E0F10038
70038070
7807C0F0
3E07E3E0
0E0FE380
000FE000
0007E000
0003C000
ENDCHAR
STARTCHAR E31C
ENCODING 58140
SWIDTH 1087 0
DWIDTH 29 0
BBX 29 28 0 -8
BITMAP
003F8000
00FFE000
01E0F000
03C07000
03803800
07001800
0F001F80
1F001FC0
3C0001E0
70000070
E0000038
E0000038
C0000018
C1F00C18
E1E01C38
63E01830
73C008F0
3FC203E0
1F8303C0
07870200
0FE63000
0FC07000
01C06000
01800000
030C0000
020C0000
021C0000
00080000
ENDCHAR
STARTCHAR E31D
ENCODING 58141
SWIDTH 1087 0
DWIDTH 29 0
BBX 29 28 0 -8
BITMAP
003F8000
00FFE000
01E0F000
03807000
03803800
07001800
0F001F80
3F001FE0
780000F0
70000070
E0000038
E0000038
C0000018
C1F19818
E1E39838
63E31830
7BC338F0
3FC73BE0
1F8733C0
07863000
0FE67000
0FEE7000
01CE6000
018C0000
018C0000
031C0000
021C0000
02000000
ENDCHAR
STARTCHAR E31E
ENCODING 58142
SWIDTH 1087 0
DWIDTH 29 0
BBX 29 10 0 1
BITMAP
1FFFFC00
0FFFFC00
00000000
00000000
FFFFE7F8
FFFFE7F8
00000000
00000000
03FFFF80
03FFFF80
ENDCHAR
STARTCHAR E31F
ENCODING 58143
SWIDTH 1237 0
DWIDTH 33 0
BBX 33 28 0 -8
BITMAP
000001F800
000003F800
0000079800
0007FE1800
000FFC1800
001C1E1C00
0038070E00
0070038780
0060038380
00E001F180
03E001FF80
0783C01F00
0E07E00E00
0C03700700
0000300300
0000700300
FFFFF00300
FFFFE00300
0000000700
0000000E00
0000003E00
FFF1FFFC00
FFF9FFF000
0038000000
0018000000
03B8000000
03F0000000
01E0000000
ENDCHAR
STARTCHAR E320
ENCODING 58144
SWIDTH 1312 0
DWIDTH 35 0
BBX 35 27 0 -7
BITMAP
0000007C00
000001FE00
000003EC00
0001FB8C00
0007FF0E00
000F9F0E00
001E038700
001C018380
003801C3E0
003800C0E0
00F000FCC0
01F000FFC0
03C0000780
0700000380
0700000180
0000000180
00000001C0
0FFFE00180
0FFFE00180
0000000380
0000000F00
FFFE7FFE00
FFFE7FF800
0000000000
0000000000
03FFF80000
03FFF80000
ENDCHAR
STARTCHAR E321
ENCODING 58145
SWIDTH 1125 0
DWIDTH 30 0
BBX 31 31 0 -9
BITMAP
00000780
00001FC0
00003FC0
001FF0C0
007FE0C0
00F1E0E0
01C070E0
03803878
0300183E
07001C1C
1F000F9C
3F000FFC
780000F8
70000030
E0000038
C0000018
C0010018
E0319C18
E0339838
70731830
786338F0
3E673BE0
0E673380
00060000
00062000
00CE6000
00CE2000
00000000
00080000
001C0000
00080000
ENDCHAR
STARTCHAR E322
ENCODING 58146
SWIDTH 1125 0
DWIDTH 30 0
BBX 30 28 0 -8
BITMAP
00001F80
00003F80
00007980
003FE180
00FFC1C0
01E0E0C0
038070F0
0300387C
0700181C
0F001F9C
3E001FF8
380000F8
70000070
E0000038
C007C018
C0078018
C0078018
E00F0038
600F0030
781E00F0
3E1FC3E0
1E1F8380
00030000
00070000
00060000
00040000
000C0000
00080000
ENDCHAR
STARTCHAR E323
ENCODING 58147
SWIDTH 1125 0
DWIDTH 30 0
BBX 30 31 0 -9
BITMAP
000007C0
00001FC0
00003CC0
003FF0C0
007FE0C0
01F1F0E0
01C07870
0380383C
0300181C
07001F8C
1E001FFC
3C0000F8
70000070
60000038
E0000018
C0000018
C0100818
E0301818
E0301838
70301870
3C0000F0
1E6633E0
0E663380
00060000
00C06000
01CC6000
00CC6000
00000000
00180000
00180000
00180000
ENDCHAR
STARTCHAR E324
ENCODING 58148
SWIDTH 1125 0
DWIDTH 30 0
BBX 30 32 0 -10
BITMAP
00000FC0
00001FC0
00003CC0
003FF0C0
007FE0C0
01E0F0E0
01C03870
0380183C
03001C1C
07001F8C
1F000FFC
3C0000F8
70000070
E0000038
E0000018
C0000018
C0000018
E0000038
E0080038
70186070
3E38E3E0
1C71C7C0
00E38F00
00E71C00
00C73C00
000E3800
061C3000
06180000
0000C000
0040C000
00E00000
00400000
ENDCHAR
STARTCHAR E325
ENCODING 58149
SWIDTH 1125 0
DWIDTH 30 0
BBX 31 31 0 -9
BITMAP
000007C0
00001FC0
00003EC0
001FF0C0
007FE0C0
00FBE0E0
01C070F0
03803878
0300183E
07001C1C
1F000F9C
3F000FFC
780000F8
70000030
E0000038
C0000018
C0010818
E0319C18
E0339838
70731830
787318F0
3E633BE0
0E673380
00E63000
00E63000
00C67000
00CE2000
000C0000
000C0000
000C0000
000C0000
ENDCHAR
STARTCHAR E326
ENCODING 58150
SWIDTH 1125 0
DWIDTH 30 0
BBX 31 31 0 -9
BITMAP
000007C0
00001FC0
00003EC0
001F70C0
007FE0C0
00F1F0E0
01C07060
03803878
0300183E
07001C1C
1F000F9C
3E000FFC
780000F8
70000070
E0000038
C0000018
C0200818
E0301C18
E0701C38
70701870
7C0000F0
3E0703E0
0E070380
00C63000
00C07000
00C06000
00806000
000C0000
001C0000
001C0000
00180000
ENDCHAR
STARTCHAR E327
ENCODING 58151
SWIDTH 1125 0
DWIDTH 30 0
BBX 31 31 0 -9
BITMAP
000007C0
00001FC0
00007FC0
003F70C0
007FE0C0
01F1E0E0
01C07060
03803878
0300183E
07001C1C
1F001F9C
3F001FFC
780000F8
70000030
E0000038
C0000018
C0000018
C0000018
E0000038
70060030
780600F0
3E6033E0
0E6033C0
00000000
00060000
00060000
00603000
00603000
00000000
00060000
00060000
ENDCHAR
STARTCHAR E328
ENCODING 58152
SWIDTH 1125 0
DWIDTH 30 0
BBX 30 26 0 -7
BITMAP
00001F80
00003F80
00007980
007FE180
00FFC1C0
01E0E0C0
038070F0
0300387C
0700183C
0F001F9C
3E001FF8
7C0101F8
70038070
E0038038
E0610038
C0600018
C0F00018
E0F10038
60638070
780380F0
3E07C3E0
0E0FC380
000FE000
000FE000
0007C000
00038000
ENDCHAR
STARTCHAR E329
ENCODING 58153
SWIDTH 1125 0
DWIDTH 30 0
BBX 31 31 0 -9
BITMAP
000007C0
00001FC0
00003EC0
001FF0C0
007FE0C0
00FBE0E0
01C070E0
03803870
0300183E
0700181C
1F001F9C
3F001FFC
780000F8
70000030
E0000038
C0000018
C0000018
E1F01C18
E1E01C38
73C01870
7BC001F0
3F8303E0
0F870380
07F73000
0FE07000
01C07000
01802000
018C0000
030C0000
021C0000
040C0000
ENDCHAR
STARTCHAR E32A
ENCODING 58154
SWIDTH 1125 0
DWIDTH 30 0
BBX 31 31 0 -9
BITMAP
000007C0
00001FC0
00003EC0
001FF0C0
007FF0C0
00F1F0E0
01C07060
03803878
0300183E
07001C1C
1F000F8C
3F000FFC
780000F8
70000030
E0000038
E0000018
C0010018
C1F19C18
E1E39C38
63E39838
7BC31870
3FC33BE0
1F873BC0
07863000
0FE63000
0FCE7000
01CE2000
018C0000
030C0000
021C0000
00080000
ENDCHAR
STARTCHAR E32B
ENCODING 58155
SWIDTH 750 0
DWIDTH 20 0
BBX 20 19 0 -3
BITMAP
01F000
07F000
1F3000
3C3000
383800
701800
601C00
E00F00
E007F0
E001F0
E00070
E00060
E00060
7000E0
7001C0
3C03C0
1E0F80
0FFF00
03FC00
ENDCHAR
STARTCHAR E32C
ENCODING 58156
SWIDTH 1237 0
DWIDTH 33 0
BBX 33 27 0 -7
BITMAP
0000004000
000003FC00
0003F7FE00
000FFE0700
001E1E0300
0038070380
0070070180
0070038180
006003E180
01E001F980
07E001FF80
0703E00F00
0E03F00700
0C02700300
0000300300
0000700300
FFFFE00300
FFFFC00700
0000000E00
0000003E00
FFF1FFFC00
FFF9FFF000
0038000000
0018000000
01B8000000
03F0000000
01E0000000
ENDCHAR
STARTCHAR E32D
ENCODING 58157
SWIDTH 1312 0
DWIDTH 35 0
BBX 35 25 0 -6
BITMAP
000000FE00
0000F9FF80
0003FF8380
0007DF01C0
000E0380E0
001C01C0E0
001800C060
003800E060
00F800FCE0
01F000FFE0
03C00007C0
03800003C0
07000001C0
00000001C0
00000000C0
0FFFE000C0
0FFFE001C0
0000000380
0000000780
FFFE7FFF00
FFFF7FFC00
0000000000
0000000000
03FFFC0000
03FFFC0000
ENDCHAR
STARTCHAR E32E
ENCODING 58158
SWIDTH 1125 0
DWIDTH 30 0
BBX 30 21 0 -4
BITMAP
00000700
00001FE0
003FFFF0
00FFF038
01E0F018
0380381C
0380380C
07001C0C
0F001F9C
3F001FFC
780000F8
70000078
E0000038
C0000038
C0000018
C0000018
E0000038
70000070
780000F0
3FFFFFE0
0FFFFF80
ENDCHAR
STARTCHAR E32F
ENCODING 58159
SWIDTH 1125 0
DWIDTH 30 0
BBX 30 29 0 -9
BITMAP
00000780
00003FE0
003FFFF0
00FFF038
01E0F018
03C0381C
0380380C
0700180C
0F001F9C
3F001FFC
780000F8
70000078
E0000038
E0000038
C0000818
C0319C18
E0739838
70731870
786338F0
3EE733E0
0EE73380
00060000
000E0000
00CE6000
01CC6000
00000000
00000000
00180000
00180000
ENDCHAR
STARTCHAR E330
ENCODING 58160
SWIDTH 1125 0
DWIDTH 30 0
BBX 30 27 0 -7
BITMAP
00000F80
00003FE0
003FFFF0
00FFF038
01E0F018
03C0381C
0380180C
03001C0C
0F001F8C
3F000FFC
380000F8
70000078
E0000038
E003C018
C007C018
C0078018
E0078038
600F0030
780F0070
3E1FC3E0
1E1FC3C0
02038200
00030000
00060000
00060000
00040000
00080000
ENDCHAR
STARTCHAR E331
ENCODING 58161
SWIDTH 1125 0
DWIDTH 30 0
BBX 30 31 0 -9
BITMAP
00000200
00001FC0
001F3FF0
007FF078
00FBE038
01C0701C
0380381C
0300180C
0700180C
1F001F9C
3F001FFC
780000F8
70000078
E0000038
C0000038
C0000018
E0301838
E0301838
70301870
780000F0
3E6633E0
0E663380
00060000
00806000
00C06000
01CC6000
008C0000
00000000
00180000
00180000
00180000
ENDCHAR
STARTCHAR E332
ENCODING 58162
SWIDTH 1125 0
DWIDTH 30 0
BBX 30 30 0 -9
BITMAP
00001FE0
001F3FF0
007FF878
00FBF038
01C0701C
0380380C
0300180C
07001C0C
1F000FCC
3F000FFC
780000F8
70000038
E0000038
E0000018
C0000018
C0000018
E0000038
60186038
7838E070
3E78E3E0
1CF1C7C0
00E38F00
00C71C00
000E3800
071C3000
071C0000
0008C000
0040C000
00600000
00600000
ENDCHAR
STARTCHAR E333
ENCODING 58163
SWIDTH 1125 0
DWIDTH 30 0
BBX 30 29 0 -8
BITMAP
00000F80
00001FE0
003FFFF0
00FFF038
01E0F018
03C0381C
0380180C
07001C0C
0F001F8C
3F000FFC
780000F8
70000078
E0000038
E0000018
C0000018
C0319C18
E0339C38
60731830
787318F0
3E673BE0
0E673BC0
00E63000
00E63000
00CE7000
00CE6000
000C0000
000C0000
001C0000
001C0000
ENDCHAR
STARTCHAR E334
ENCODING 58164
SWIDTH 1125 0
DWIDTH 30 0
BBX 30 30 0 -9
BITMAP
00000780
00003FE0
003FFFF0
00FFF038
01E0F018
03C0381C
0380180C
07001C0C
0F001F9C
3F000FFC
780000F8
70000078
E0000038
E0000038
C0000018
C0301818
E0301C38
70701870
782018F0
3E0303E0
0E0703C0
00462000
00C27000
00C07000
00C06000
00000000
000C0000
001C0000
001C0000
00080000
ENDCHAR
STARTCHAR E335
ENCODING 58165
SWIDTH 1125 0
DWIDTH 30 0
BBX 30 29 0 -8
BITMAP
00000F80
00003FE0
003FFFF0
00FFF038
01E0F018
03C0781C
0380380C
0700180C
0F001F8C
3F001FFC
3C0001F8
70000078
E0000038
E0000018
C0000018
C0000018
E0000038
60060030
70060070
3E6033E0
1E6033C0
06002200
00060000
00060000
00001000
00603000
00002000
00060000
00060000
ENDCHAR
STARTCHAR E336
ENCODING 58166
SWIDTH 1125 0
DWIDTH 30 0
BBX 30 25 0 -6
BITMAP
00000700
00001FE0
003F7FF0
00FFF078
01F1F018
03C0701C
0380380C
0300180C
07001F9C
1E001FDC
380101F8
70018078
60038038
E0210038
C0600018
C0F00018
E0F00038
E0F10038
70038070
7C07C1E0
3E07E3C0
0E0FE380
000FE000
0007C000
0003C000
ENDCHAR
STARTCHAR E337
ENCODING 58167
SWIDTH 1125 0
DWIDTH 30 0
BBX 30 30 0 -9
BITMAP
00000780
00001FE0
003FFFF0
00FFF038
01E0F018
03C0381C
0380180C
03001C0C
0F001F8C
3F000FFC
780000F8
70000038
E0000038
C0000018
C0000018
C1F00C18
E1E01C38
63E01C30
7BC008F0
3FC303E0
1F8303C0
07870200
0FE23000
0FE07000
01C07000
01800000
010C0000
030C0000
021C0000
00080000
ENDCHAR
STARTCHAR E338
ENCODING 58168
SWIDTH 1125 0
DWIDTH 30 0
BBX 30 30 0 -9
BITMAP
00000700
00001FE0
003FBFF0
00FFF038
01E0F018
03C0381C
0380180C
03001C0C
0F001F8C
3F000FFC
380000F8
70000038
E0000038
C0000018
C0000018
C1F19C18
E1E39838
73E39830
7BC338F0
3FC33BE0
0F8733C0
07F63000
0FE67000
0FEE7000
01CE6000
018C0000
010C0000
031C0000
021C0000
00080000
ENDCHAR
STARTCHAR E339
ENCODING 58169
SWIDTH 562 0
DWIDTH 15 0
BBX 15 13 0 0
BITMAP
7078
D8FC
8986
C900
7100
0100
0100
0100
0100
0100
0186
01CC
00FC
ENDCHAR
STARTCHAR E33A
ENCODING 58170
SWIDTH 1087 0
DWIDTH 29 0
BBX 29 20 0 -4
BITMAP
003F8000
00FFE000
01E0F000
03807000
03003800
07001800
0F001F80
1E001FC0
3C0001E0
70060070
E0060038
E0060018
C0060018
C0060018
E0366038
E03EE030
703FC070
3E1F83E0
1E0F03C0
06020300
ENDCHAR
STARTCHAR E33B
ENCODING 58171
SWIDTH 1087 0
DWIDTH 29 0
BBX 29 20 0 -4
BITMAP
003F8000
00FFE000
01E0F000
03803800
03003800
07001800
0F061F80
3E071FE0
780780F0
601FC070
E03F8038
C0770018
C0660018
C0603018
E0603038
70603070
787070F0
3E38E3E0
1E3FC3C0
000F8000
ENDCHAR
STARTCHAR E33C
ENCODING 58172
SWIDTH 1087 0
DWIDTH 29 0
BBX 29 20 0 -4
BITMAP
003F8000
00FFC000
01E1E000
03807000
03003800
07003800
0E001F00
1E001FC0
3C0003E0
70060070
E00F0038
E01F8018
C03FC018
C07EE018
E0366018
E0060030
70060070
3E0603E0
1E0603C0
06020300
ENDCHAR
STARTCHAR E33D
ENCODING 58173
SWIDTH 1087 0
DWIDTH 29 0
BBX 29 20 0 -4
BITMAP
003F8000
00FFE000
01E0F000
01C03800
03803800
03001C00
07001F80
1F000FC0
3C0001E0
70000070
E0000038
E0000018
C0000018
C0000018
E0000018
E0000038
70000070
380000E0
1FFFFFC0
0FFFFF80
ENDCHAR
STARTCHAR E33E
ENCODING 58174
SWIDTH 562 0
DWIDTH 15 0
BBX 5 5 5 4
BITMAP
70
D8
88
98
70
ENDCHAR
STARTCHAR E33F
ENCODING 58175
SWIDTH 562 0
DWIDTH 15 0
BBX 9 9 3 2
BITMAP
0180
0380
0700
CE00
DC00
F800
F000
FC00
FC00
ENDCHAR
STARTCHAR E340
ENCODING 58176
SWIDTH 562 0
DWIDTH 15 0
BBX 9 14 3 -1
BITMAP
1800
1800
1800
1800
1800
1800
1800
1800
1900
DB80
FF00
7E00
3C00
1800
ENDCHAR
STARTCHAR E341
ENCODING 58177
SWIDTH 562 0
DWIDTH 15 0
BBX 15 13 0 0
BITMAP
70FE
D8FE
8880
C880
7880
0080
00FC
0080
0080
0080
0080
0080
0080
ENDCHAR
STARTCHAR E342
ENCODING 58178
SWIDTH 1125 0
DWIDTH 30 0
BBX 30 23 0 -5
BITMAP
00030000
00030000
00030000
00030000
0C0300C0
0E0001C0
07000380
03000300
000FC000
003FF000
00787800
00703C00
00E01C00
00C00C00
F8C00E7C
F8C00E7C
00C00C00
00E01C00
00601C00
00000000
00000000
3FFFFFF8
7FFFFFF8
ENDCHAR
STARTCHAR E343
ENCODING 58179
SWIDTH 1050 0
DWIDTH 28 0
BBX 28 18 0 -3
BITMAP
00060000
00060000
00060000
00060000
18060180
1C000380
1E000780
06000700
003FC000
007FE000
00F0F000
01E07800
01C03800
00000000
00000000
00000000
FFFFFFF0
FFFFFFF0
ENDCHAR
STARTCHAR E344
ENCODING 58180
SWIDTH 562 0
DWIDTH 15 0
BBX 14 9 0 2
BITMAP
0800
1C00
3800
7000
FFFC
FFFC
7000
3800
1C00
ENDCHAR
STARTCHAR E345
ENCODING 58181
SWIDTH 562 0
DWIDTH 15 0
BBX 14 16 0 -2
BITMAP
7C78
FCFC
FEFC
B534
94A4
7878
3030
0000
0700
0FC0
0FC0
17C0
1240
0A80
0780
0300
ENDCHAR
STARTCHAR E346
ENCODING 58182
SWIDTH 1275 0
DWIDTH 34 0
BBX 34 27 0 -7
BITMAP
000000F000
000003F800
000007D800
0003FE1800
000FFC1800
001F7E1C00
00380F0E00
0070070F80
0060038380
006003F380
01E001FF80
0780001F00
0600000E00
0E00000700
0C00000300
0000000000
0000000000
0FFFFFFF00
0FFFFFFF00
0000000000
0000000000
FFFFFFF000
FFFFFFF000
0000000000
0000000000
03FFFFFFC0
03FFFFFFC0
ENDCHAR
STARTCHAR E347
ENCODING 58183
SWIDTH 562 0
DWIDTH 15 0
BBX 9 14 3 -1
BITMAP
0600
0700
1F80
3F80
7700
E600
C000
C000
C000
C000
6000
7000
3E00
0E00
ENDCHAR
STARTCHAR E348
ENCODING 58184
SWIDTH 562 0
DWIDTH 15 0
BBX 14 17 0 -2
BITMAP
0200
0700
0380
0FC0
1FC0
3B80
7700
E200
E000
C00C
C00C
E00C
E01C
7018
3878
1FF0
0FC0
ENDCHAR
STARTCHAR E349
ENCODING 58185
SWIDTH 562 0
DWIDTH 15 0
BBX 14 9 0 2
BITMAP
0040
00E0
0070
0038
FFFC
FFFC
0038
0070
00E0
ENDCHAR
STARTCHAR E34A
ENCODING 58186
SWIDTH 562 0
DWIDTH 15 0
BBX 11 15 2 -1
BITMAP
0100
0180
0380
6100
6000
F000
F000
F100
0380
07C0
07E0
0FE0
0FE0
07E0
07C0
ENDCHAR
STARTCHAR E34B
ENCODING 58187
SWIDTH 1237 0
DWIDTH 33 0
BBX 33 17 0 -2
BITMAP
0000001E00
0000003F00
0000003F80
0000000380
0000000380
FFFFFFFF80
FFFFFFFF00
0000000000
0000000000
0000000000
FFFFFF0000
FFFFFF8000
7FFFFF8000
000001C000
0000118000
00003F8000
00001F0000
ENDCHAR
STARTCHAR E34C
ENCODING 58188
SWIDTH 1275 0
DWIDTH 34 0
BBX 34 26 0 -7
BITMAP
0000C00000
0000C00000
0000C00000
0000C00000
0000C00000
0600C01800
0700003800
0380007000
01C000E000
0007F80000
000FFC0000
001E1E0000
0038070000
0070038000
0070038000
7C60038780
FC60018FC0
FC60018FC0
0070038000
0070C38000
0039E70000
0003F00000
0007F80000
00FF3FE000
00FE1FE000
00FC0FE000
ENDCHAR
STARTCHAR E34D
ENCODING 58189
SWIDTH 1275 0
DWIDTH 34 0
BBX 34 30 0 -9
BITMAP
0000C00000
0000C00000
0000C00000
0000C00000
0000C00000
0600C01800
0700007800
0380007000
018000E000
0007F80000
000FFC0000
001E1E0000
0038070000
0030078000
0070038000
F860038F80
FC60018FC0
FC60018FC0
0070038000
0070038000
0038070000
0000000000
0000000000
01FC0FC000
01FE1FC000
00FF3FC000
0007F80000
0003F00000
0001E00000
0000800000
ENDCHAR
STARTCHAR E34E
ENCODING 58190
SWIDTH 562 0
DWIDTH 15 0
BBX 14 30 0 -9
BITMAP
0FC0
0FC0
1CE0
1860
1860
1860
1860
1860
1860
1860
1860
1860
1860
1860
1860
1860
1860
1860
3870
7038
E01C
E00C
C00C
C00C
E00C
E01C
7038
3CF8
1FF0
0FC0
ENDCHAR
STARTCHAR E34F
ENCODING 58191
SWIDTH 562 0
DWIDTH 15 0
BBX 7 18 4 -3
BITMAP
10
10
10
10
10
10
10
10
10
10
10
7C
FE
FE
FE
FE
7C
10
ENDCHAR
STARTCHAR E350
ENCODING 58192
SWIDTH 562 0
DWIDTH 15 0
BBX 14 30 0 -9
BITMAP
0FC0
0FC0
1CE0
1C60
1C60
1C60
1C60
1C60
1C60
1C60
1E60
1E60
1E60
1E60
1E60
1E60
1E60
1E60
3E70
7238
E79C
EFCC
CFEC
CFEC
EFCC
E7DC
7138
3CF8
1FF0
0FC0
ENDCHAR
STARTCHAR E351
ENCODING 58193
SWIDTH 712 0
DWIDTH 19 0
BBX 20 20 0 -4
BITMAP
03FF00
1FFFC0
380070
600030
380060
7FFFC0
C3FF80
C00380
780F00
FFFC00
C3F000
FFF000
3FE000
600000
418000
7F8000
1E0000
210000
3F0000
1C0000
ENDCHAR
STARTCHAR E352
ENCODING 58194
SWIDTH 562 0
DWIDTH 15 0
BBX 9 9 3 2
BITMAP
1F80
1F80
0780
0F80
1D80
3980
7000
E000
C000
ENDCHAR
STARTCHAR E353
ENCODING 58195
SWIDTH 562 0
DWIDTH 15 0
BBX 9 14 3 -1
BITMAP
1800
3C00
7E00
FF00
DB80
9900
1800
1800
1800
1800
1800
1800
1800
1800
ENDCHAR
STARTCHAR E354
ENCODING 58196
SWIDTH 750 0
DWIDTH 20 0
BBX 20 20 0 -4
BITMAP
03FC00
0FFE00
1E0780
3803C0
3000C0
7000E0
600060
E18070
C1E030
C1FC30
C1FC30
C1E030
E18070
620060
7000E0
3000C0
3C03C0
1F0F80
07FE00
01F800
ENDCHAR
STARTCHAR E355
ENCODING 58197
SWIDTH 750 0
DWIDTH 20 0
BBX 20 20 0 -4
BITMAP
03FC00
0FFE00
1E0780
3803C0
3000C0
7000E0
600060
E00C70
C07830
C1F830
C3F030
C0F030
E07070
602060
7020E0
3000C0
3C03C0
1F0F80
07FE00
01F800
ENDCHAR
STARTCHAR E356
ENCODING 58198
SWIDTH 750 0
DWIDTH 20 0
BBX 20 20 0 -4
BITMAP
03FC00
0FFE00
1E0780
3803C0
3000C0
7000E0
600060
E18070
C1E030
C0FC30
C0FE30
C07030
E06070
606060
7020E0
3000C0
3C03C0
1F0F80
07FE00
01F800
ENDCHAR
STARTCHAR E357
ENCODING 58199
SWIDTH 750 0
DWIDTH 20 0
BBX 20 20 0 -4
BITMAP
03F800
07FE00
1E0780
3801C0
3000C0
600060
606060
E06070
C06030
C0F030
C0F030
C1F830
E1F870
600060
7000E0
3000C0
3C03C0
1F0F80
07FE00
01F800
ENDCHAR
STARTCHAR E358
ENCODING 58200
SWIDTH 750 0
DWIDTH 20 0
BBX 20 20 0 -4
BITMAP
03FC00
0FFE00
1E0780
3803C0
3000C0
7040E0
604060
E0E070
C0E030
C7F030
C3F030
C07030
E01870
600060
7000E0
3000C0
3C03C0
1F0F80
07FE00
01F800
ENDCHAR
STARTCHAR E359
ENCODING 58201
SWIDTH 750 0
DWIDTH 20 0
BBX 20 20 0 -4
BITMAP
03FC00
0FFE00
1E0780
3803C0
3000C0
7020E0
602060
E07070
C07030
C0FE30
C0FC30
C1E030
E18070
600060
7000E0
3000C0
3C03C0
1F0F80
07FE00
01F800
ENDCHAR
STARTCHAR E35A
ENCODING 58202
SWIDTH 750 0
DWIDTH 20 0
BBX 20 20 0 -4
BITMAP
03FC00
0FFF00
1E0780
3801C0
3000C0
7000E0
600060
E1F870
C1F830
C0F030
C0F030
C06030
E06070
606060
7000E0
3000C0
3C03C0
1F0F80
07FE00
01F800
ENDCHAR
STARTCHAR E35B
ENCODING 58203
SWIDTH 750 0
DWIDTH 20 0
BBX 20 20 0 -4
BITMAP
01F800
07FF00
1E0780
3801C0
3000C0
600060
600460
E01870
C07830
C3F830
C1F830
C07830
E01870
600060
7000E0
3000C0
3C03C0
1F0F80
07FE00
01F800
ENDCHAR
STARTCHAR E35C
ENCODING 58204
SWIDTH 900 0
DWIDTH 24 0
BBX 23 25 0 -6
BITMAP
00FC00
01FE00
038700
060180
0E0180
1C00F0
3800FC
60000E
C00006
C00002
C00002
C00002
E00006
700004
3F000C
1F8008
01C338
00FFF0
00FFE0
00FFC0
007F80
007F00
001F00
001F00
000E00
ENDCHAR
STARTCHAR E35D
ENCODING 58205
SWIDTH 787 0
DWIDTH 21 0
BBX 21 14 0 -1
BITMAP
FCFF98
FCFF98
000000
000000
1DFDF0
09FDF0
000000
000000
FFDBF8
FFDBF8
000000
000000
77F7C0
37F7C0
ENDCHAR
STARTCHAR E35E
ENCODING 58206
SWIDTH 1087 0
DWIDTH 29 0
BBX 29 27 0 -7
BITMAP
003F8000
00FFE000
01F1F000
01C07800
03803800
03001C00
07001F80
1F001FC0
3C0000E0
70000070
E0000038
E0000018
C0000018
C0000018
E0000038
E0030030
78030070
3E6033E0
1E6033C0
06201300
00060000
00060000
00000000
00C06000
00000000
000C0000
000C0000
ENDCHAR
STARTCHAR E35F
ENCODING 58207
SWIDTH 1387 0
DWIDTH 37 0
BBX 37 36 0 -12
BITMAP
0000060000
0000060000
0000060000
0000060000
000C060180
000E000380
0006000700
0000078600
00001FE000
003FFFF000
00FFE03800
01E0E01800
0380701C00
0380380CF8
0300180CF8
0F001F9C00
3E001FF800
7C0000F800
7000007800
E000003800
E000003800
C000001800
C000001B00
E000003B80
7003007180
780300F000
3E6033E000
0E60338000
0000000000
0006000000
0006000000
00C0600000
00C0600000
0000000000
000C000000
000C000000
ENDCHAR
STARTCHAR E360
ENCODING 58208
SWIDTH 1125 0
DWIDTH 30 0
BBX 30 29 0 -8
BITMAP
00000780
00001FE0
003FBFF0
00FFF038
01E0F018
03C0381C
0380180C
03001C0C
0F001F8C
1F000FFC
3C0000F8
70000078
E0000038
E0000018
C0000018
C0000018
E0000038
60030030
78030070
3E6033E0
1E6033C0
06200300
00060000
00060000
00000000
00C06000
00000000
000C0000
000C0000
ENDCHAR
STARTCHAR E361
ENCODING 58209
SWIDTH 1125 0
DWIDTH 30 0
BBX 31 31 0 -9
BITMAP
000007C0
00001FC0
00003FC0
001FF0C0
007FE0C0
00F1E0E0
01C07060
03803878
0300183E
07001C1C
1F001F9C
3F000FFC
780000F8
70000030
E0000038
C0000018
C0000018
C0000018
E0000038
70030030
780300F0
3E4023E0
0EE073C0
00000000
00060000
00060000
00C06000
00C06000
00000000
000C0000
000C0000
ENDCHAR
STARTCHAR E362
ENCODING 58210
SWIDTH 1425 0
DWIDTH 38 0
BBX 38 37 0 -12
BITMAP
0000030000
0000030000
0000030000
0000030000
000C0300C0
000E0001C0
0006000380
0000000300
00001FE000
001FBFF000
007FF87800
00F9F03800
01C0781C00
0380380C00
03001C0C7C
07001F0C7C
1F000FCC00
3F000FFC00
7000007800
6000003800
E000003800
C000001800
C0F0001800
E1F0001980
E1E00039C0
73E0007080
3BC000F000
1FC733E000
0F86338000
07F6000000
0FE0600000
01C4700000
018E600000
0180000000
030C000000
021C000000
041C000000
ENDCHAR
STARTCHAR E363
ENCODING 58211
SWIDTH 1125 0
DWIDTH 30 0
BBX 30 30 0 -9
BITMAP
00001FC0
001F3FF0
007FF078
01FBE038
01C0701C
0380381C
0300180C
0700180C
1F001F9C
3E001FFC
780000F8
70000078
E0000038
C0000038
C0000018
E1F00038
E1E00038
73C00070
3BC000F0
3F8633E0
0F863380
07F60000
0FE06000
0FC06000
018C6000
018C0000
03000000
02180000
02180000
04180000
ENDCHAR
STARTCHAR E364
ENCODING 58212
SWIDTH 1125 0
DWIDTH 30 0
BBX 30 31 0 -9
BITMAP
000007C0
00001FC0
00003CC0
003FF0C0
007FE0C0
01F1F0E0
01C07870
0380387C
0300181C
07001F8C
1F001FFC
3C0001F8
70000070
E0000038
E0000018
C0000018
C1F00018
E1E00018
63E00038
73C00070
3FC001E0
1F8733C0
07863300
07E60000
0FE06000
01CC6000
018C6000
03000000
03180000
02180000
00180000
ENDCHAR
STARTCHAR E365
ENCODING 58213
SWIDTH 1425 0
DWIDTH 38 0
BBX 38 37 0 -12
BITMAP
0000030000
0000030000
0000030000
0000030000
000C0300C0
000E0001C0
0006000380
0000000300
00001FC000
001FBFF000
007FF87800
00F9F03800
01C0701C00
0380380C00
0300180C7C
07001C0C7C
1F000F8C00
3F000FFC00
780000F800
7000003800
E000003800
C000001800
C000001800
C1F0001980
E1E00039C0
73E30038C0
7BC300F000
3FC033E000
0F8033C000
07F0000000
0FE3000000
0FC3000000
01C0300000
0180300000
0300000000
0203000000
0203000000
ENDCHAR
STARTCHAR E366
ENCODING 58214
SWIDTH 1125 0
DWIDTH 30 0
BBX 30 30 0 -9
BITMAP
00001FC0
001F3FF0
007FF070
01FBE038
01C0701C
0380381C
0300180C
0700180C
1F001F9C
3E001FFC
780000F8
70000078
E0000038
C0000038
C0000018
C1F00038
E1E00038
73C60070
7BC600F0
3F8033E0
1F8033C0
07E00000
0FE60000
0FC60000
01803000
03803000
03000000
02060000
04060000
04000000
ENDCHAR
STARTCHAR E367
ENCODING 58215
SWIDTH 1125 0
DWIDTH 30 0
BBX 31 31 0 -9
BITMAP
000007C0
00001FC0
00003EC0
001FF0C0
007FE0C0
00FBE0E0
01C070E0
03803870
0300183E
0700181C
1E001F9C
3E001FFC
780000F8
70000070
E0000038
C0000018
C0000018
C1F00018
E1E00038
63C60030
7BC600F0
3F8033E0
0F803380
07E00000
0FE60000
0FC60000
01803000
03803000
03000000
02060000
04060000
ENDCHAR
STARTCHAR E368
ENCODING 58216
SWIDTH 1125 0
DWIDTH 30 0
BBX 29 29 0 -8
BITMAP
00030000
00030000
00030000
00030000
0C030180
0E000380
07000300
03000700
001FC000
003FF000
007E7800
00FFB800
00FF9C00
00FFCC00
F9FFCCF8
F8FFCCF8
00FFCC00
00FF9800
007FB800
007E7000
003FE000
010F8200
07000700
0F000380
0E030180
00030000
00030000
00030000
00030000
ENDCHAR
STARTCHAR E369
ENCODING 58217
SWIDTH 562 0
DWIDTH 15 0
BBX 14 14 0 -1
BITMAP
0FC0
3FF0
7E78
7F98
FFDC
FFCC
FFCC
FFCC
FFCC
FFDC
7FB8
3F70
1FE0
0FC0
ENDCHAR
STARTCHAR E36A
ENCODING 58218
SWIDTH 825 0
DWIDTH 22 0
BBX 22 31 0 -9
BITMAP
000004
000008
000010
000010
000020
000060
0000C0
0009C4
000B88
0017B0
003F70
007FE0
00FFE0
01FFC0
03FFC0
07FFC0
0FFFB0
1FFFE0
3EFFC0
703FC0
600F80
C00F80
C00F00
C00700
C00E00
C00C00
600C00
601800
383800
1FF000
0FC000
ENDCHAR
STARTCHAR E36B
ENCODING 58219
SWIDTH 1125 0
DWIDTH 30 0
BBX 30 28 0 -8
BITMAP
00030000
00030000
00030000
00030000
0C0300C0
0E0001C0
07000380
03000300
001FE000
003FF000
00787800
00601C00
00E01C00
00C00C00
F8C00C7C
F880007C
00000000
00739C00
00E71C00
00C73800
00E71800
00E39C00
0073CE00
0039C600
0038C700
0039C600
0071CE00
00618C00
ENDCHAR
STARTCHAR E36C
ENCODING 58220
SWIDTH 562 0
DWIDTH 15 0
BBX 11 21 2 -5
BITMAP
0200
0F00
1C00
3800
3000
6000
7F00
FFC0
F1C0
E0E0
C060
C060
E0E0
71E0
7FC0
1FC0
01C0
0180
0300
0E00
1C00
ENDCHAR
STARTCHAR E36D
ENCODING 58221
SWIDTH 900 0
DWIDTH 24 0
BBX 24 26 0 -7
BITMAP
007C00
01FE00
03FF00
07FF80
07FF80
0FFFF0
3FFFFC
7FFFFE
FFFFFF
FFFFFF
FFFFFF
FFFFFF
FFFFFF
7FFFFE
7FFFFC
1FFFFC
01FFFC
00FFF8
007FE0
00FFE0
00FFC0
007F80
003F00
001F00
000F00
000E00
ENDCHAR
STARTCHAR E36E
ENCODING 58222
SWIDTH 750 0
DWIDTH 20 0
BBX 20 23 0 -5
BITMAP
03F800
0FFE00
1FFF80
3FFFC0
7FFFC0
7FFFE0
FFFFE0
FFFFF0
FFFFF0
FFFFB0
87FC30
81F820
40F020
40E060
206040
306080
1C6380
0FFF00
0FFE00
07FC00
03FC00
01F800
00E000
ENDCHAR
STARTCHAR E36F
ENCODING 58223
SWIDTH 787 0
DWIDTH 21 0
BBX 21 21 0 -4
BITMAP
006000
006000
000000
1060C0
1060C0
046300
0E6700
076E00
03FC00
01F800
DFFFD8
DFFFD8
01F800
03FC00
076E00
0E6700
046200
1060C0
000000
006000
006000
ENDCHAR
STARTCHAR E370
ENCODING 58224
SWIDTH 1012 0
DWIDTH 27 0
BBX 25 25 1 -6
BITMAP
00800000
00800000
00800000
01C00000
03E00000
0FF80000
1FFC0000
03E00000
01C00000
00800000
00800800
00800800
00000C00
00001E00
20007F80
70001E00
F0000C00
20100800
00100000
00380000
007C0000
00FE0000
00380000
00100000
00100000
ENDCHAR
STARTCHAR E371
ENCODING 58225
SWIDTH 562 0
DWIDTH 15 0
BBX 14 18 0 -2
BITMAP
0300
0780
0FC0
1FE0
1FF0
3FF8
7FF8
7FFC
FFFC
FFFC
FFFC
FFFC
FFFC
FFFC
7FF8
3FF8
1FF0
0FC0
ENDCHAR
STARTCHAR E372
ENCODING 58226
SWIDTH 750 0
DWIDTH 20 0
BBX 20 24 0 -6
BITMAP
01FC00
07FF00
1E0780
3821C0
3026E0
742460
660C70
E20830
C01830
DC3BB0
C07030
C0F030
E0F030
60F060
7000E0
3800C0
3C03C0
1F9F80
07FE00
01F800
01F800
01F800
01F800
01F800
ENDCHAR
STARTCHAR E373
ENCODING 58227
SWIDTH 787 0
DWIDTH 21 0
BBX 21 26 0 -7
BITMAP
006000
00F000
01F800
01FC00
03FE00
07FF00
0FFF80
1FFF80
18F9C0
3073C0
6673E0
6667E0
6667F0
E64FF0
F0CFF0
FF9878
FF9138
FF3330
FF3330
7E7130
7E7820
3CFC60
1FFFC0
0FFF80
07FE00
00F800
ENDCHAR
STARTCHAR E374
ENCODING 58228
SWIDTH 862 0
DWIDTH 23 0
BBX 23 9 0 2
BITMAP
E38670
F386F0
FB8CF8
FB8CD8
FF99D8
EF99DC
EF99FC
E7B3FE
E7B38E
ENDCHAR
STARTCHAR E375
ENCODING 58229
SWIDTH 862 0
DWIDTH 23 0
BBX 23 21 0 -4
BITMAP
001000
003800
007C00
00FE00
00DB00
001800
001800
001800
001800
001800
001800
001800
001800
818102
C3C3C6
FFFFFE
FFFFFE
FFFFFE
FFFFFE
FFFFFE
7FFFFE
ENDCHAR
STARTCHAR E376
ENCODING 58230
SWIDTH 1162 0
DWIDTH 31 0
BBX 31 27 0 -7
BITMAP
00780000
01FE0000
03870000
06038000
06018000
0C01E000
3C00F830
70001C70
60000EE0
C00006C0
C0000600
C0000600
C0000700
E0000F80
70001D8C
3FFFF99E
0FFFF380
00030300
00038700
0001FE00
00007840
001C00E0
00380070
00103030
00003000
00003000
00003000
ENDCHAR
STARTCHAR E377
ENCODING 58231
SWIDTH 1200 0
DWIDTH 32 0
BBX 31 28 0 -8
BITMAP
003F8000
00FFC000
01E1F000
03C07000
03803800
03001800
07001F80
1E001FC0
380000E0
70000070
E0000038
E0000038
C0000018
C0000018
E0000038
E0000038
70000070
380000F0
3FFFFFF8
0FFFFF9E
0000C002
0000C002
0000E006
00006006
0000700C
00003C38
00001FF0
000007C0
ENDCHAR
STARTCHAR E378
ENCODING 58232
SWIDTH 1200 0
DWIDTH 32 0
BBX 32 28 0 -8
BITMAP
003F8000
00FFE000
01F1F000
01C07000
03803800
03001800
07001F80
1F001FC0
3C0001E0
70000070
E0000038
E0000018
C0000018
C0000018
E000001C
E000003C
70000076
380000F6
1FFFFFC3
0FFFFF83
0000C003
0000C003
00004007
00006006
0000300E
00003C3C
00001FF8
000007E0
ENDCHAR
STARTCHAR E379
ENCODING 58233
SWIDTH 862 0
DWIDTH 23 0
BBX 23 22 0 -5
BITMAP
000FC0
003FC0
007FC0
00F1C0
01E1C0
01C1C0
0380E0
0380F0
03F07C
07F83E
0FFC1E
0E1C1C
1C0FBC
7C0FF8
7C0FF0
E000E0
E00070
E00060
F000E0
7FFFE0
3FFFC0
1FFF00
ENDCHAR
STARTCHAR E37A
ENCODING 58234
SWIDTH 1237 0
DWIDTH 33 0
BBX 33 20 0 -4
BITMAP
00C0000000
00C0000000
00030C1E00
0C030C3F00
1C00003380
0000000380
0000000380
FFFFFFFF00
FFFFFFFF00
0000000000
0000000000
7FFFFC0000
FFFFFF1800
FFFFFF9800
0000038000
000001C000
00C0118000
30C01F8000
30031F0000
0003040000
ENDCHAR
STARTCHAR E37B
ENCODING 58235
SWIDTH 862 0
DWIDTH 23 0
BBX 23 22 0 -5
BITMAP
000FC0
003FF0
007FF8
00F03C
01E01C
01C00E
03800E
03800E
03F006
07F80E
0FFC0E
0E1E0E
1C0F9C
7C0FF8
7C07F0
E000F0
E00070
E00070
F000F0
7FFFE0
3FFFC0
1FFF80
ENDCHAR
STARTCHAR E37C
ENCODING 58236
SWIDTH 1087 0
DWIDTH 29 0
BBX 28 26 0 -6
BITMAP
00060000
003FC000
01FFF800
07C03E00
0F000F00
1C000380
380001C0
300000C0
700000E0
60000060
FF0F87F0
FFBFDFF0
E1F6F870
80462010
00060000
00060000
00060000
00060000
00060000
00060000
00060000
01860000
01860000
01860000
00FC0000
00780000
ENDCHAR
STARTCHAR E37D
ENCODING 58237
SWIDTH 1425 0
DWIDTH 38 0
BBX 37 34 0 -11
BITMAP
0000030000
0000030000
0000030000
0004030080
000E030180
000F000380
0007000700
00010F8200
00003FE000
00007DF000
0000703800
0000E01800
0000C00C00
00F8C00CF8
00F8000CF8
0000000C00
0000001C00
0001C03800
0003E07800
000373F000
000033C000
0000300700
FFFFF00380
FFFFE00380
FFFFC20180
0000030000
0000030000
FFE0030000
FFF0030000
0038000000
0018000000
01B8000000
03F0000000
01E0000000
ENDCHAR
STARTCHAR E37E
ENCODING 58238
SWIDTH 1125 0
DWIDTH 30 0
BBX 30 23 0 -5
BITMAP
00000F80
00003FC0
00007F80
003F7180
007FE1C0
01FBE1C0
01C070E0
038030F0
0700387C
0700181C
1F001F98
3E001FF8
780000F0
60000070
E0000030
C0000030
C0000038
E0000030
E0000030
70000070
780000E0
3FFFFFC0
0FFFFF80
ENDCHAR
STARTCHAR E37F
ENCODING 58239
SWIDTH 562 0
DWIDTH 15 0
BBX 9 9 3 2
BITMAP
FC00
FC00
F000
F800
DC00
CE00
0700
0380
0180
ENDCHAR
STARTCHAR E380
ENCODING 58240
SWIDTH 562 0
DWIDTH 15 0
BBX 9 9 3 2
BITMAP
C000
E000
7000
3980
1D80
0F80
0780
1F80
1F80
ENDCHAR
STARTCHAR E381
ENCODING 58241
SWIDTH 750 0
DWIDTH 20 0
BBX 20 20 0 -4
BITMAP
03F800
07FE00
1E0780
3861C0
3060C0
606060
606060
E06070
C06030
C06030
C06030
C00030
E00070
600060
7000E0
3000C0
3C03C0
1F0F80
07FE00
01F800
ENDCHAR
STARTCHAR E382
ENCODING 58242
SWIDTH 750 0
DWIDTH 20 0
BBX 20 20 0 -4
BITMAP
03F800
07FE00
1E0780
3841C0
3040C0
605060
605060
E07070
C06030
C06030
C00030
C00030
E00070
600060
7000E0
3000C0
3C03C0
1F0F80
07FE00
01F800
ENDCHAR
STARTCHAR E383
ENCODING 58243
SWIDTH 750 0
DWIDTH 20 0
BBX 20 20 0 -4
BITMAP
03F800
07FE00
1E0780
3841C0
3040C0
604060
604060
E04C70
C07830
C07030
C00030
C00030
E00070
600060
7000E0
3000C0
3C03C0
1F0F80
07FE00
01F800
ENDCHAR
STARTCHAR E384
ENCODING 58244
SWIDTH 750 0
DWIDTH 20 0
BBX 20 20 0 -4
BITMAP
03F800
07FE00
1E0780
3841C0
3040C0
604060
604060
E04070
C04030
C07E30
C00030
C00030
E00070
600060
7000E0
3000C0
3C03C0
1F0F80
07FE00
01F800
ENDCHAR
STARTCHAR E385
ENCODING 58245
SWIDTH 750 0
DWIDTH 20 0
BBX 20 20 0 -4
BITMAP
03F800
07FE00
1E0780
3841C0
3040C0
604060
604060
E04070
C04030
C04030
C07030
C01C30
E00470
600060
7000E0
3000C0
3C03C0
1F0F80
07FE00
01F800
ENDCHAR
STARTCHAR E386
ENCODING 58246
SWIDTH 750 0
DWIDTH 20 0
BBX 20 20 0 -4
BITMAP
03F800
07FE00
1E0780
3841C0
3040C0
604060
604060
E04070
C04030
C04030
C06030
C03030
E03070
601860
7000E0
3000C0
3C03C0
1F0F80
07FE00
01F800
ENDCHAR
STARTCHAR E387
ENCODING 58247
SWIDTH 750 0
DWIDTH 20 0
BBX 20 20 0 -4
BITMAP
03F800
07FE00
1E0780
3841C0
3040C0
604060
604060
E04070
C04030
C04030
C04030
C04030
E04070
604060
7000E0
3000C0
3C03C0
1F0F80
07FE00
01F800
ENDCHAR
STARTCHAR E388
ENCODING 58248
SWIDTH 750 0
DWIDTH 20 0
BBX 20 20 0 -4
BITMAP
03F800
07FE00
1E0780
3841C0
3040C0
604060
604060
E04070
C04030
C04030
C04030
C0C030
E18070
618060
7000E0
3000C0
3C03C0
1F0F80
07FE00
01F800
ENDCHAR
STARTCHAR E389
ENCODING 58249
SWIDTH 750 0
DWIDTH 20 0
BBX 20 20 0 -4
BITMAP
03F800
07FE00
1E0780
3841C0
3040C0
604060
604060
E04070
C04030
C04030
C1C030
C38030
E60070
600060
7000E0
3000C0
3C03C0
1F0F80
07FE00
01F800
ENDCHAR
STARTCHAR E38A
ENCODING 58250
SWIDTH 750 0
DWIDTH 20 0
BBX 20 20 0 -4
BITMAP
03F800
07FE00
1E0780
3841C0
3040C0
604060
604060
E04070
C04030
C7C030
C00030
C00030
E00070
600060
7000E0
3000C0
3C03C0
1F0F80
07FE00
01F800
ENDCHAR
STARTCHAR E38B
ENCODING 58251
SWIDTH 750 0
DWIDTH 20 0
BBX 20 20 0 -4
BITMAP
03F800
07FE00
1E0780
3841C0
3040C0
604060
604060
E64070
C3C030
C0C030
C00030
C00030
E00070
600060
7000E0
3000C0
3C03C0
1F0F80
07FE00
01F800
ENDCHAR
STARTCHAR E38C
ENCODING 58252
SWIDTH 750 0
DWIDTH 20 0
BBX 20 20 0 -4
BITMAP
03F800
07FE00
1E0780
3841C0
3040C0
614060
61C060
E0C070
C0C030
C04030
C00030
C00030
E00070
600060
7000E0
3000C0
3C03C0
1F0F80
07FE00
01F800
ENDCHAR
STARTCHAR E38D
ENCODING 58253
SWIDTH 750 0
DWIDTH 20 0
BBX 20 20 0 -4
BITMAP
01F800
060600
180180
3000C0
200040
400020
400020
800010
800010
800010
800010
800010
800010
400020
400020
200040
3000C0
180180
060600
01F800
ENDCHAR
STARTCHAR E38E
ENCODING 58254
SWIDTH 562 0
DWIDTH 15 0
BBX 9 20 3 -4
BITMAP
C000
3800
1C00
0E00
0700
0700
0780
0380
0380
0380
0380
0380
0380
0380
0700
0700
0E00
1C00
3800
C000
ENDCHAR
STARTCHAR E38F
ENCODING 58255
SWIDTH 562 0
DWIDTH 15 0
BBX 9 20 3 -4
BITMAP
C000
7800
3C00
1E00
0F00
0F00
0F80
0780
0780
0780
0780
0780
0780
0F80
0F00
0F00
1E00
1C00
3800
C000
ENDCHAR
STARTCHAR E390
ENCODING 58256
SWIDTH 562 0
DWIDTH 15 0
BBX 9 20 3 -4
BITMAP
C000
7000
7C00
3E00
3E00
1F00
1F00
1F80
1F80
1F80
1F80
1F80
1F80
1F00
1F00
1E00
3E00
3C00
7000
C000
ENDCHAR
STARTCHAR E391
ENCODING 58257
SWIDTH 562 0
DWIDTH 15 0
BBX 10 20 2 -4
BITMAP
E000
7800
3E00
3F00
1F00
1F80
1F80
1FC0
1FC0
1FC0
1FC0
1FC0
1FC0
1F80
1F80
1F00
3F00
3E00
7800
E000
ENDCHAR
STARTCHAR E392
ENCODING 58258
SWIDTH 562 0
DWIDTH 15 0
BBX 10 20 2 -4
BITMAP
E000
7800
7E00
7F00
3F00
3F80
3F80
3FC0
3FC0
3FC0
3FC0
3FC0
3FC0
3F80
3F80
3F00
3F00
7E00
7800
E000
ENDCHAR
STARTCHAR E393
ENCODING 58259
SWIDTH 562 0
DWIDTH 15 0
BBX 10 20 2 -4
BITMAP
E000
7800
7E00
7F00
3F00
3F80
3F80
3FC0
3FC0
3FC0
3FC0
3FC0
3FC0
3F80
3F80
3F00
3F00
7E00
7800
E000
ENDCHAR
STARTCHAR E394
ENCODING 58260
SWIDTH 562 0
DWIDTH 15 0
BBX 10 20 2 -4
BITMAP
E000
F800
FE00
FF00
FF00
FF80
FF80
FFC0
FFC0
FFC0
FFC0
FFC0
FFC0
FF80
FF80
FF00
FF00
FE00
F800
E000
ENDCHAR
STARTCHAR E395
ENCODING 58261
SWIDTH 562 0
DWIDTH 15 0
BBX 11 20 2 -4
BITMAP
7000
7C00
7F00
FF80
FF80
FFC0
FFC0
FFE0
FFE0
FFE0
FFE0
FFE0
FFE0
FFC0
FFC0
FF80
FF80
FF00
7C00
7000
ENDCHAR
STARTCHAR E396
ENCODING 58262
SWIDTH 562 0
DWIDTH 15 0
BBX 12 20 1 -4
BITMAP
3800
7E00
7F80
7FC0
7FC0
FFE0
FFE0
FFF0
FFF0
FFF0
FFF0
FFF0
FFF0
FFE0
FFE0
FFC0
7FC0
7F80
7E00
3800
ENDCHAR
STARTCHAR E397
ENCODING 58263
SWIDTH 562 0
DWIDTH 15 0
BBX 13 20 1 -4
BITMAP
3C00
3F00
7FC0
7FC0
7FE0
FFF0
FFF0
FFF8
FFF8
FFF8
FFF8
FFF8
FFF8
FFF0
FFF0
7FE0
7FC0
7F80
3F00
3C00
ENDCHAR
STARTCHAR E398
ENCODING 58264
SWIDTH 562 0
DWIDTH 15 0
BBX 14 20 0 -4
BITMAP
1E00
1F80
3FE0
3FF0
7FF0
7FF8
7FF8
FFFC
FFFC
FFFC
FFFC
FFFC
FFFC
FFF8
7FF8
7FF0
7FF0
3FE0
3F80
1E00
ENDCHAR
STARTCHAR E399
ENCODING 58265
SWIDTH 562 0
DWIDTH 15 0
BBX 15 20 0 -4
BITMAP
0F00
1FC0
3FE0
3FF0
7FF8
7FFC
FFFC
FFFC
FFFE
FFFE
FFFE
FFFE
FFFC
FFFC
7FFC
7FF8
7FF0
3FE0
1FC0
0F00
ENDCHAR
STARTCHAR E39A
ENCODING 58266
SWIDTH 600 0
DWIDTH 16 0
BBX 16 20 0 -4
BITMAP
0780
1FE0
1FF0
3FF8
7FFC
7FFE
FFFE
FFFE
FFFF
FFFF
FFFF
FFFF
FFFE
FFFE
7FFE
7FFC
7FF8
3FF0
1FE0
0780
ENDCHAR
STARTCHAR E39B
ENCODING 58267
SWIDTH 750 0
DWIDTH 20 0
BBX 20 20 0 -4
BITMAP
01F800
07FE00
1FFF80
3FFFC0
3FFFC0
7FFFE0
7FFFE0
FFFFF0
FFFFF0
FFFFF0
FFFFF0
FFFFF0
FFFFF0
7FFFE0
7FFFE0
3FFFC0
3FFFC0
1FFF80
07FE00
01F800
ENDCHAR
STARTCHAR E39C
ENCODING 58268
SWIDTH 637 0
DWIDTH 17 0
BBX 17 20 0 -4
BITMAP
01E000
07F800
1FFC00
3FFE00
3FFE00
7FFF00
7FFF00
FFFF00
FFFF80
FFFF80
FFFF80
FFFF80
FFFF00
7FFF00
7FFF00
3FFF00
3FFE00
1FFC00
07F800
01E000
ENDCHAR
STARTCHAR E39D
ENCODING 58269
SWIDTH 600 0
DWIDTH 16 0
BBX 16 20 0 -4
BITMAP
01E0
07F0
1FF8
3FFC
3FFE
7FFE
7FFE
FFFF
FFFF
FFFF
FFFF
FFFF
FFFF
7FFE
7FFE
3FFE
3FFC
1FF8
07F0
01E0
ENDCHAR
STARTCHAR E39E
ENCODING 58270
SWIDTH 562 0
DWIDTH 15 0
BBX 15 20 0 -4
BITMAP
01E0
07F0
1FF0
3FF8
3FFC
7FFC
7FFC
FFFE
FFFE
FFFE
FFFE
FFFE
FFFE
7FFC
7FFC
3FFC
3FF8
1FF8
07F0
01E0
ENDCHAR
STARTCHAR E39F
ENCODING 58271
SWIDTH 562 0
DWIDTH 15 0
BBX 14 20 0 -4
BITMAP
01E0
07E0
1FF0
3FF0
3FF8
7FF8
7FFC
FFFC
FFFC
FFFC
FFFC
FFFC
FFFC
7FFC
7FF8
3FF8
1FF8
1FF0
07F0
01E0
ENDCHAR
STARTCHAR E3A0
ENCODING 58272
SWIDTH 562 0
DWIDTH 15 0
BBX 13 20 1 -4
BITMAP
01C0
07E0
1FE0
3FF0
3FF0
7FF0
7FF8
FFF8
FFF8
FFF8
FFF8
FFF8
FFF8
7FF8
7FF0
3FF0
3FF0
1FE0
07E0
01C0
ENDCHAR
STARTCHAR E3A1
ENCODING 58273
SWIDTH 562 0
DWIDTH 15 0
BBX 12 20 1 -4
BITMAP
01C0
07E0
1FE0
3FE0
3FE0
7FF0
7FF0
FFF0
FFF0
FFF0
FFF0
FFF0
FFF0
7FF0
7FF0
3FF0
3FE0
1FE0
07E0
01C0
ENDCHAR
STARTCHAR E3A2
ENCODING 58274
SWIDTH 562 0
DWIDTH 15 0
BBX 10 20 2 -4
BITMAP
01C0
07C0
1FC0
3FC0
3FC0
7FC0
7FC0
FFC0
FFC0
FFC0
FFC0
FFC0
FFC0
7FC0
7FC0
3FC0
3FC0
1FC0
07C0
01C0
ENDCHAR
STARTCHAR E3A3
ENCODING 58275
SWIDTH 562 0
DWIDTH 15 0
BBX 10 20 2 -4
BITMAP
01C0
07C0
0FC0
1FC0
3F80
7F80
7F80
7F80
FF80
FF80
FF80
FF80
7F80
7F80
7F80
3F80
1F80
0FC0
07C0
01C0
ENDCHAR
STARTCHAR E3A4
ENCODING 58276
SWIDTH 562 0
DWIDTH 15 0
BBX 10 20 2 -4
BITMAP
01C0
0780
1F80
3F00
3F00
7F00
7F00
FE00
FE00
FE00
FE00
FE00
FE00
7F00
7F00
3F00
3F00
1F80
0780
01C0
ENDCHAR
STARTCHAR E3A5
ENCODING 58277
SWIDTH 562 0
DWIDTH 15 0
BBX 10 20 2 -4
BITMAP
01C0
0780
1F00
3E00
3E00
7E00
7C00
FC00
FC00
FC00
FC00
FC00
FC00
7C00
7E00
3E00
3E00
1F00
0700
0180
ENDCHAR
STARTCHAR E3A6
ENCODING 58278
SWIDTH 562 0
DWIDTH 15 0
BBX 10 20 2 -4
BITMAP
01C0
0700
0F00
1E00
3C00
7C00
7800
7800
F800
F800
F800
F800
7800
7800
7C00
3C00
1C00
0E00
0700
0180
ENDCHAR
STARTCHAR E3A7
ENCODING 58279
SWIDTH 562 0
DWIDTH 15 0
BBX 9 20 2 -4
BITMAP
0180
0600
1C00
3800
3800
7000
7000
F000
E000
E000
E000
E000
F000
7000
7000
3000
3800
1C00
0600
0180
ENDCHAR
STARTCHAR E3A8
ENCODING 58280
SWIDTH 562 0
DWIDTH 15 0
BBX 9 20 2 -4
BITMAP
0180
0600
1800
3000
2000
6000
6000
C000
C000
C000
C000
C000
C000
6000
6000
3000
3000
1C00
0600
0180
ENDCHAR
STARTCHAR E3A9
ENCODING 58281
SWIDTH 750 0
DWIDTH 20 0
BBX 20 20 0 -4
BITMAP
03F800
07FE00
1E0780
3801C0
3040C0
606060
606060
E06070
C0F030
C0F030
C0F030
C0F030
E1F870
61F860
7198E0
3000C0
3C03C0
1F0F80
07FE00
01F800
ENDCHAR
STARTCHAR E3AA
ENCODING 58282
SWIDTH 1425 0
DWIDTH 38 0
BBX 37 37 0 -12
BITMAP
0000030000
0000030000
0000030000
0000030000
000C030180
000E000380
000E000700
0000000700
00001FC000
001F3FE000
007FF87000
01FBF03800
01C0781800
0380381C00
03001C0CF8
07001F0CF8
1F001FDC00
3E000FF800
7000007800
6000003000
E000003800
C000001800
C000001800
E000003B80
E000003B80
7000007180
380000F000
3E6733E000
0E66338000
0006000000
00C0600000
00CC600000
00CC600000
0000000000
0018000000
0018000000
0018000000
ENDCHAR
STARTCHAR E3AB
ENCODING 58283
SWIDTH 1125 0
DWIDTH 30 0
BBX 30 30 0 -9
BITMAP
00001FC0
001F3FF0
007FF078
01FBE038
01C0701C
0380381C
0300180C
0700180C
1F001F9C
3E001FFC
780000F8
60000078
E0000038
C0000018
C0000018
E0000038
E0000038
70000070
780000E0
3E6633C0
0E673380
00060000
00402000
00C06000
00CC6000
000C0000
00000000
00180000
00180000
00180000
ENDCHAR
STARTCHAR E3AC
ENCODING 58284
SWIDTH 1125 0
DWIDTH 30 0
BBX 30 31 0 -9
BITMAP
00000F80
00003FC0
00007D80
003F7180
00FFE1C0
01F1E0C0
03C070F0
0380387C
0700183C
07001F8C
1F001FDC
3E0001F8
70000070
E0000038
E0000018
C0000018
C0000018
E0000018
E0000038
70000070
3C0003E0
1E6733C0
06663300
00060000
00C06000
00CC6000
00CC6000
00000000
00180000
00180000
00180000
ENDCHAR
STARTCHAR E3AD
ENCODING 58285
SWIDTH 1087 0
DWIDTH 29 0
BBX 29 28 0 -8
BITMAP
003F8000
00FFE000
01E0F000
03807800
03003800
07001800
0F001F80
1E001FE0
380000F0
70000070
E0000038
E0000038
C0000018
C0000018
E0000038
E0000038
70000070
3C0001E0
1E6633C0
06663300
00060000
00C06000
00CC6000
00CC6000
00000000
00180000
00180000
00180000
ENDCHAR
STARTCHAR E3AE
ENCODING 58286
SWIDTH 1125 0
DWIDTH 30 0
BBX 29 23 0 -5
BITMAP
00030000
00030000
00030000
00030000
0C030180
0E000180
07000300
03000300
000FC000
001FE000
007CF800
00703800
00E01C00
00C00C00
F8C00CF8
F8C00CF8
00000000
0FFCDF80
0FFECF80
00000000
00000000
037F3E00
037FBE00
ENDCHAR
STARTCHAR E3AF
ENCODING 58287
SWIDTH 1050 0
DWIDTH 28 0
BBX 28 19 0 -3
BITMAP
00000800
00003C00
00000600
00000600
FFFFFC00
FFFFF800
FFFF0000
FFFF8000
0000C3C0
0000CFE0
00078FF0
00021C70
00001C70
00001C70
00003870
000018E0
00001DE0
00001FC0
00000F80
ENDCHAR
STARTCHAR E3B0
ENCODING 58288
SWIDTH 900 0
DWIDTH 24 0
BBX 24 19 0 -3
BITMAP
000008
00003C
000006
000006
FFFFFC
FFFFF0
000000
FFFF80
00008F
0000CE
00078E
00031E
00001E
00001E
00001C
00001C
00003C
00003C
00003C
ENDCHAR
STARTCHAR E3B1
ENCODING 58289
SWIDTH 1050 0
DWIDTH 28 0
BBX 28 19 0 -3
BITMAP
00000800
00003C00
00000600
00000600
FFFFFC00
FFFFF000
FFFF0000
FFFF8000
0000C7C0
0000CFE0
00078FF0
00021C70
00001C70
000001E0
000007C0
00001F00
00003FE0
00003FE0
00003FE0
ENDCHAR
STARTCHAR E3B2
ENCODING 58290
SWIDTH 1050 0
DWIDTH 28 0
BBX 28 19 0 -3
BITMAP
00000800
00003C00
00000600
00000600
FFFFFC00
FFFFF800
00000000
FFFF8000
000087C0
0000CFE0
00078EF0
00031C60
000001E0
000003C0
000000E0
000038E0
00003DE0
00001FC0
00000F80
ENDCHAR
STARTCHAR E3B3
ENCODING 58291
SWIDTH 1050 0
DWIDTH 28 0
BBX 28 19 0 -3
BITMAP
00000800
00003C00
00000600
00000600
FFFFFC00
FFFFF800
FFFF0000
FFFF8000
0000C070
0000C0F0
000781F0
000207E0
00000EE0
00001CE0
00001FF0
00003FF0
00003FF0
000001C0
000001C0
ENDCHAR
STARTCHAR E3B4
ENCODING 58292
SWIDTH 1050 0
DWIDTH 28 0
BBX 27 18 0 -2
BITMAP
00003C00
00000600
00000600
FFFFFC00
FFFFF800
00000000
FFFF8000
000087E0
0000CFE0
00078FE0
00030C00
00001FC0
00001FE0
000000E0
000038E0
00003DE0
00001FC0
00000F80
ENDCHAR
STARTCHAR E3B5
ENCODING 58293
SWIDTH 1050 0
DWIDTH 28 0
BBX 28 19 0 -3
BITMAP
00001000
00003C00
00000C00
00000C00
FFFFFC00
FFFFF000
00000000
FFFF8000
000087C0
0000CFE0
00079E70
00031C00
00003BC0
00003FE0
000038E0
000038E0
00003DE0
00001FC0
00000F80
ENDCHAR
STARTCHAR E3B6
ENCODING 58294
SWIDTH 1050 0
DWIDTH 28 0
BBX 28 19 0 -3
BITMAP
00000800
00003C00
00000600
00000600
FFFFFC00
FFFFF000
FFFF0000
FFFF8000
0000CFF0
0000CFF0
00078FF0
000200E0
000001C0
00000380
00000780
00000700
00000F00
00000E00
00000E00
ENDCHAR
STARTCHAR E3B7
ENCODING 58295
SWIDTH 1050 0
DWIDTH 28 0
BBX 27 19 0 -3
BITMAP
00001800
00003C00
00000400
00000400
FFFFFC00
FFFFF000
00000000
FFFF8000
0000C7C0
0000CFE0
00079C60
00001C60
00000FC0
00001FC0
000038E0
000038E0
000038E0
00003FC0
00001F80
ENDCHAR
STARTCHAR E3B8
ENCODING 58296
SWIDTH 1050 0
DWIDTH 28 0
BBX 28 19 0 -3
BITMAP
00000800
00003C00
00000600
00000600
FFFFFC00
FFFFF800
FFFF0000
FFFF8000
0000C7C0
0000CFE0
00079FF0
00021C70
00001C70
00001FF0
00000FF0
000002E0
000038E0
00001FC0
00000F80
ENDCHAR
STARTCHAR E3B9
ENCODING 58297
SWIDTH 1237 0
DWIDTH 33 0
BBX 33 19 0 -3
BITMAP
0000080000
00003C0000
0000060000
0000060000
FFFFFC0000
FFFFF00000
FFFF000000
FFFF800000
0000CE3E00
0000CE7F00
00078EF780
00021CE380
00001DC380
00001DC380
00001DC380
00003DC700
00003DEF00
00003CFE00
0000387C00
ENDCHAR
STARTCHAR E3BA
ENCODING 58298
SWIDTH 1087 0
DWIDTH 29 0
BBX 29 19 0 -3
BITMAP
00000800
00003C00
00000600
00000600
FFFFFC00
FFFFF000
00000000
FFFF8000
00008F78
0000CE78
00078E70
00010E70
00001E70
00001EF0
00001CF0
00001CE0
00003CE0
00003DE0
00003DE0
ENDCHAR
STARTCHAR E3BB
ENCODING 58299
SWIDTH 1237 0
DWIDTH 33 0
BBX 33 19 0 -3
BITMAP
0000080000
00003C0000
0000060000
0000060000
FFFFFC0000
FFFFF00000
0000000000
FFFF800000
00008F1E00
0000CE3F00
00078E7F80
00010E6380
00001E0380
00001E0F00
00001C3E00
00001C7C00
00003CFF00
00003DFF00
00003DFF00
ENDCHAR
STARTCHAR E3BC
ENCODING 58300
SWIDTH 1312 0
DWIDTH 35 0
BBX 35 30 0 -9
BITMAP
00000C0000
00001C0000
00001C0000
00001C0000
00300C0600
0038000E00
001C001E00
000C001C00
00007F0000
0000FFC000
0001E1C000
000380E000
0003806000
0003007000
03E30033E0
03E00073E0
0000007000
0000006000
7FFE00E000
FFFF0FC000
00000F0000
0000081800
1FFFC01C00
3FFFC00E00
1FFFC00600
00001C0000
00001C0000
7FFF1C0000
7FFF1C0000
0000080000
ENDCHAR
STARTCHAR E3BD
ENCODING 58301
SWIDTH 1050 0
DWIDTH 28 0
BBX 27 25 0 -6
BITMAP
0007FC00
003FFF80
00F803C0
03C003E0
07006700
0E07FE00
1C1C1E00
18303F00
30603000
30C03000
6080F800
6007F000
601F0000
C0380000
C0700000
C0601C00
C0C03F00
C0C0E380
C0C1C1E0
C181C1C0
6180C180
6180C180
6180C180
FFFFFFE0
FFFFFFE0
ENDCHAR
STARTCHAR E3BE
ENCODING 58302
SWIDTH 1012 0
DWIDTH 27 0
BBX 27 26 0 -7
BITMAP
00006000
03006000
03006000
0300E000
0300E000
0300E000
0700A000
0780A000
0799A000
0599A000
059DA000
0D9D2000
0C972000
7C9727C0
FCB727E0
00B22C00
00F03C00
00F03C00
00F03800
00E03800
00603800
00603800
00603000
00603000
00601000
00600000
ENDCHAR
STARTCHAR E3BF
ENCODING 58303
SWIDTH 787 0
DWIDTH 21 0
BBX 21 24 0 -6
BITMAP
004000
018000
038000
078000
07C400
0FC200
0FE300
0FF780
0FFF80
0FFF80
0FFFC0
2FFFC0
67FFC0
7FFFD0
7FFFB0
7FFFF0
7FFFF0
3FFFE0
1FFFE0
000000
000000
FFFFF8
FFFFF8
FFFFF8
ENDCHAR
STARTCHAR E3C0
ENCODING 58304
SWIDTH 787 0
DWIDTH 21 0
BBX 21 27 0 -7
BITMAP
006000
01F000
03F800
07FE00
0FFF00
0FFF00
0FFF00
07FE00
03FE00
00FC00
00F800
007000
003000
000000
005800
00F800
01BC00
019C00
039E00
07CF00
0FC780
3FE3C0
3FF3E0
7FE1F0
7FE3F0
FF83F8
FE07F8
ENDCHAR
STARTCHAR E3C1
ENCODING 58305
SWIDTH 750 0
DWIDTH 20 0
BBX 20 20 0 -4
BITMAP
03F000
07F000
1F3000
3C3000
383800
701C00
601E00
E00F00
E007F0
E001F0
E00030
E00030
E00070
606070
00F000
01F800
03FC00
7F9FE0
FF0FF0
7E07E0
ENDCHAR
STARTCHAR E3C2
ENCODING 58306
SWIDTH 750 0
DWIDTH 20 0
BBX 20 24 0 -6
BITMAP
03F000
0FF000
1F3000
3C3800
383800
701C00
601E00
E00F00
E007F0
E001F0
E00030
E00030
E00070
600070
000000
000000
000000
7E07E0
FF0FE0
7F9FE0
03FC00
01F800
00E000
004000
ENDCHAR
STARTCHAR E3C3
ENCODING 58307
SWIDTH 1125 0
DWIDTH 30 0
BBX 29 29 0 -8
BITMAP
00000800
00001C00
00007E00
0000FF00
0000FF00
0000FF00
00007C00
00003C00
00001800
00001000
00003C00
00003C00
00003800
FFF03800
7FC03800
61C03800
61C73800
61FFFF00
61FFFF00
61FFFF00
73FFFF00
7FFFFF00
7FFFFF00
7FFFFF80
3FFFFFC0
3F7EFDE0
3F7EFDE0
3F3EFDF0
1E1C79F8
ENDCHAR
STARTCHAR E3C4
ENCODING 58308
SWIDTH 562 0
DWIDTH 15 0
BBX 14 24 0 -6
BITMAP
B000
BC00
BF00
BFE0
BFF8
BFFC
BFE0
BF80
BE00
B000
8000
8000
8000
8000
8000
8000
8000
8000
8000
8000
8000
8000
8000
8000
ENDCHAR
STARTCHAR E3C5
ENCODING 58309
SWIDTH 562 0
DWIDTH 15 0
BBX 14 24 0 -6
BITMAP
B000
BC00
BF00
BFE0
BFF8
BFFC
BFE0
BF80
BE00
B000
8000
B800
BE00
BF80
BFF0
BFFC
BFF8
BFC0
BF00
B800
A000
8000
8000
8000
ENDCHAR
STARTCHAR E3C6
ENCODING 58310
SWIDTH 562 0
DWIDTH 15 0
BBX 14 24 0 -6
BITMAP
DFFC
DFFC
DFFC
DC1C
DC1C
DC1C
DFFC
DFFC
DFFC
C000
C000
C000
C000
C000
C000
C000
C000
C000
C000
C000
C000
C000
C000
C000
ENDCHAR
STARTCHAR E3C7
ENCODING 58311
SWIDTH 562 0
DWIDTH 15 0
BBX 14 24 0 -6
BITMAP
DFFC
DFFC
DFFC
DC1C
DC1C
DC1C
DFFC
DFFC
DFFC
C000
DFFC
DFFC
DFFC
DC1C
DC1C
DC1C
DC1C
DFFC
DFFC
DFFC
C000
C000
C000
C000
ENDCHAR
STARTCHAR E3C8
ENCODING 58312
SWIDTH 750 0
DWIDTH 20 0
BBX 20 20 0 -4
BITMAP
01F800
07F600
1FF980
3FFCC0
3FFE40
7FFE20
7FFF20
FFFF10
FFFF10
FFFF10
FFFF10
FFFF10
FFFF10
7FFF20
7FFE20
3FFE40
3FFCC0
1FF980
07F600
01F800
ENDCHAR
STARTCHAR E3C9
ENCODING 58313
SWIDTH 750 0
DWIDTH 20 0
BBX 20 20 0 -4
BITMAP
01F800
07E600
1FF180
3FF8C0
3FFC40
7FFC20
7FFE20
FFFE10
FFFE10
FFFE10
FFFE10
FFFE10
FFFE10
7FFE20
7FFE20
3FFC40
3FFCC0
1FF980
07F600
01F800
ENDCHAR
STARTCHAR E3CA
ENCODING 58314
SWIDTH 750 0
DWIDTH 20 0
BBX 20 20 0 -4
BITMAP
01F800
07E600
1FF180
3FF8C0
3FF840
7FFC20
7FFC20
FFFC10
FFFC10
FFFC10
FFFC10
FFFC10
FFFC10
7FFC20
7FFC20
3FF840
3FF8C0
0FF180
07EE00
01F800
ENDCHAR
STARTCHAR E3CB
ENCODING 58315
SWIDTH 750 0
DWIDTH 20 0
BBX 20 20 0 -4
BITMAP
01F800
07E600
1FE180
3FF0C0
3FF040
7FF820
7FF820
FFF810
FFF810
FFF810
FFF810
FFF810
FFF810
7FF820
7FF820
3FF840
3FF0C0
1FF180
07E600
01F800
ENDCHAR
STARTCHAR E3CC
ENCODING 58316
SWIDTH 750 0
DWIDTH 20 0
BBX 20 20 0 -4
BITMAP
01F800
07C600
1FE180
3FE0C0
3FF040
7FF020
7FF020
FFF010
FFF810
FFF810
FFF810
FFF810
FFF010
7FF020
7FF020
3FF040
3FE0C0
1FE180
07C600
01F800
ENDCHAR
STARTCHAR E3CD
ENCODING 58317
SWIDTH 750 0
DWIDTH 20 0
BBX 20 20 0 -4
BITMAP
01F800
07C600
1FC180
3FE0C0
3FE040
7FE020
7FE020
FFF010
FFF010
FFF010
FFF010
FFF010
FFF010
7FE020
7FE020
3FE040
3FE0C0
1FE180
07C600
01F800
ENDCHAR
STARTCHAR E3CE
ENCODING 58318
SWIDTH 750 0
DWIDTH 20 0
BBX 20 20 0 -4
BITMAP
01F800
07C600
1FC180
3FC0C0
3FC040
7FC020
7FC020
FFC010
FFC010
FFC010
FFC010
FFC010
FFC010
7FC020
7FC020
3FC040
3FC0C0
1FC180
07C600
01F800
ENDCHAR
STARTCHAR E3CF
ENCODING 58319
SWIDTH 750 0
DWIDTH 20 0
BBX 20 20 0 -4
BITMAP
01F800
07C600
1F8180
3F80C0
3F8040
7F8020
7F8020
FF8010
FF8010
FF8010
FF8010
FF8010
FF8010
7F8020
7F8020
3F8040
3F80C0
1F8180
07C600
01F800
ENDCHAR
STARTCHAR E3D0
ENCODING 58320
SWIDTH 750 0
DWIDTH 20 0
BBX 20 20 0 -4
BITMAP
01F800
078600
1F8180
3F00C0
3F0040
7F0020
7F0020
FE0010
FE0010
FE0010
FE0010
FE0010
FE0010
7F0020
7F0020
3F0040
3F00C0
1F8180
078600
01F800
ENDCHAR
STARTCHAR E3D1
ENCODING 58321
SWIDTH 750 0
DWIDTH 20 0
BBX 20 20 0 -4
BITMAP
01F800
078600
1F0180
3F00C0
3E0040
7E0020
7C0020
FC0010
FC0010
FC0010
FC0010
FC0010
FC0010
7C0020
7E0020
3E0040
3E00C0
1F0180
078600
01F800
ENDCHAR
STARTCHAR E3D2
ENCODING 58322
SWIDTH 750 0
DWIDTH 20 0
BBX 20 20 0 -4
BITMAP
01F800
070600
1E0180
3E00C0
3C0040
7C0020
780020
F80010
F80010
F80010
F80010
F80010
F80010
780020
780020
3C0040
3C00C0
1E0180
070600
01F800
ENDCHAR
STARTCHAR E3D3
ENCODING 58323
SWIDTH 750 0
DWIDTH 20 0
BBX 20 20 0 -4
BITMAP
01F800
070600
1E0180
3C00C0
380040
700020
700020
F00010
F00010
F00010
F00010
F00010
F00010
700020
700020
380040
3800C0
1C0180
070600
01F800
ENDCHAR
STARTCHAR E3D4
ENCODING 58324
SWIDTH 750 0
DWIDTH 20 0
BBX 20 20 0 -4
BITMAP
01F800
060600
1C0180
3800C0
300040
600020
600020
E00010
C00010
C00010
C00010
C00010
E00010
600020
600020
300040
3800C0
1C0180
070600
01F800
ENDCHAR
STARTCHAR E3D5
ENCODING 58325
SWIDTH 750 0
DWIDTH 20 0
BBX 20 20 0 -4
BITMAP
01F800
060600
180180
3000C0
200040
400020
400020
800010
800010
800010
800010
800010
800010
400020
400020
200040
3000C0
180180
060600
01F800
ENDCHAR
STARTCHAR E3D6
ENCODING 58326
SWIDTH 750 0
DWIDTH 20 0
BBX 20 20 0 -4
BITMAP
01F800
060E00
180380
3003C0
2001C0
4000E0
4000E0
8000F0
8000F0
800070
800070
8000F0
8000F0
4000E0
4000E0
2001C0
3001C0
180380
060E00
01F800
ENDCHAR
STARTCHAR E3D7
ENCODING 58327
SWIDTH 750 0
DWIDTH 20 0
BBX 20 20 0 -4
BITMAP
01F800
061E00
180F80
3007C0
2003C0
4003E0
4001E0
8001F0
8001F0
8001F0
8001F0
8001F0
8001F0
4001E0
4001E0
2003C0
3003C0
180780
060E00
01F800
ENDCHAR
STARTCHAR E3D8
ENCODING 58328
SWIDTH 750 0
DWIDTH 20 0
BBX 20 20 0 -4
BITMAP
01F800
061E00
180F80
300FC0
2007C0
4007E0
4003E0
8003F0
8003F0
8003F0
8003F0
8003F0
8003F0
4003E0
4007E0
2007C0
3007C0
180F80
061E00
01F800
ENDCHAR
STARTCHAR E3D9
ENCODING 58329
SWIDTH 750 0
DWIDTH 20 0
BBX 20 20 0 -4
BITMAP
01F800
061E00
181F80
300FC0
200FC0
400FE0
4007E0
8007F0
8007F0
8007F0
8007F0
8007F0
8007F0
4007E0
400FE0
200FC0
300FC0
181F80
061E00
01F800
ENDCHAR
STARTCHAR E3DA
ENCODING 58330
SWIDTH 750 0
DWIDTH 20 0
BBX 20 20 0 -4
BITMAP
01F800
061E00
181F80
301FC0
200FC0
400FE0
400FE0
800FF0
800FF0
800FF0
800FF0
800FF0
800FF0
400FE0
400FE0
200FC0
300FC0
181F80
061E00
01F800
ENDCHAR
STARTCHAR E3DB
ENCODING 58331
SWIDTH 750 0
DWIDTH 20 0
BBX 20 20 0 -4
BITMAP
01F800
063E00
181F80
301FC0
201FC0
401FE0
401FE0
801FF0
801FF0
801FF0
801FF0
801FF0
801FF0
401FE0
401FE0
201FC0
301FC0
181F80
063E00
01F800
ENDCHAR
STARTCHAR E3DC
ENCODING 58332
SWIDTH 750 0
DWIDTH 20 0
BBX 20 20 0 -4
BITMAP
01F800
063E00
183F80
303FC0
203FC0
403FE0
403FE0
803FF0
803FF0
803FF0
803FF0
803FF0
803FF0
403FE0
403FE0
203FC0
303FC0
183F80
063E00
01F800
ENDCHAR
STARTCHAR E3DD
ENCODING 58333
SWIDTH 750 0
DWIDTH 20 0
BBX 20 20 0 -4
BITMAP
01F800
063E00
183F80
303FC0
203FC0
407FE0
407FE0
807FF0
807FF0
807FF0
807FF0
807FF0
807FF0
407FE0
407FE0
203FC0
303FC0
183F80
063E00
01F800
ENDCHAR
STARTCHAR E3DE
ENCODING 58334
SWIDTH 750 0
DWIDTH 20 0
BBX 20 20 0 -4
BITMAP
01F800
063E00
187F80
307FC0
207FC0
407FE0
407FE0
80FFF0
80FFF0
80FFF0
80FFF0
80FFF0
80FFF0
407FE0
407FE0
207FC0
307FC0
187F80
063E00
01F800
ENDCHAR
STARTCHAR E3DF
ENCODING 58335
SWIDTH 750 0
DWIDTH 20 0
BBX 20 20 0 -4
BITMAP
01F800
067E00
187F80
307FC0
20FFC0
40FFE0
40FFE0
80FFF0
80FFF0
81FFF0
81FFF0
80FFF0
80FFF0
40FFE0
40FFE0
20FFC0
30FFC0
187F80
067E00
01F800
ENDCHAR
STARTCHAR E3E0
ENCODING 58336
SWIDTH 750 0
DWIDTH 20 0
BBX 20 20 0 -4
BITMAP
01F800
067E00
187F80
30FFC0
20FFC0
41FFE0
41FFE0
81FFF0
81FFF0
81FFF0
81FFF0
81FFF0
81FFF0
41FFE0
41FFE0
21FFC0
30FFC0
18FF80
067E00
01F800
ENDCHAR
STARTCHAR E3E1
ENCODING 58337
SWIDTH 750 0
DWIDTH 20 0
BBX 20 20 0 -4
BITMAP
01F800
067E00
18FF80
31FFC0
23FFC0
43FFE0
47FFE0
87FFF0
87FFF0
87FFF0
87FFF0
87FFF0
87FFF0
47FFE0
47FFE0
23FFC0
33FFC0
19FF80
06FE00
01F800
ENDCHAR
STARTCHAR E3E2
ENCODING 58338
SWIDTH 750 0
DWIDTH 20 0
BBX 20 20 0 -4
BITMAP
01F800
06FE00
19FF80
33FFC0
27FFC0
47FFE0
4FFFE0
8FFFF0
8FFFF0
8FFFF0
8FFFF0
8FFFF0
8FFFF0
4FFFE0
47FFE0
27FFC0
33FFC0
19FF80
06FE00
01F800
ENDCHAR
STARTCHAR E3E3
ENCODING 58339
SWIDTH 750 0
DWIDTH 20 0
BBX 20 20 0 -4
BITMAP
01F800
07FE00
1FFF80
3FFFC0
3FFFC0
7FFFE0
7FFFE0
FFFFF0
FFFFF0
FFFFF0
FFFFF0
FFFFF0
FFFFF0
7FFFE0
7FFFE0
3FFFC0
3FFFC0
1FFF80
07FE00
01F800
ENDCHAR
STARTCHAR E5FA
ENCODING 58874
SWIDTH 825 0
DWIDTH 22 0
BBX 22 18 0 -3
BITMAP
FFE000
FFF000
FFFFFC
FFFFFC
FFFFFC
FFFFFC
800004
BCF7F4
B4D654
B4D654
B4D654
B4F654
80C004
FC1FFC
FFFFFC
FFFFFC
FFFFFC
FFFFFC
ENDCHAR
STARTCHAR E5FB
ENCODING 58875
SWIDTH 825 0
DWIDTH 22 0
BBX 22 18 0 -3
BITMAP
FFC000
FFE000
FFF000
FFFFFC
FFCFFC
FFC7FC
FF63FC
FE31FC
FC18FC
F82C7C
F8247C
FC20FC
FE31FC
FF03FC
FF87FC
FFCFFC
FFFFFC
FFFFFC
ENDCHAR
STARTCHAR E5FC
ENCODING 58876
SWIDTH 825 0
DWIDTH 22 0
BBX 22 17 0 -2
BITMAP
FFC000
FFE000
FFFFFC
FFFFFC
FFFFFC
FF23FC
FF03FC
FE00FC
F8707C
F8F8FC
FCF8FC
FCF87C
F8707C
FC01FC
FF03FC
FF33FC
FFFFFC
ENDCHAR
STARTCHAR E5FD
ENCODING 58877
SWIDTH 825 0
DWIDTH 22 0
BBX 22 19 0 -3
BITMAP
FFC000
FFE000
FFF000
FFFFFC
FFFFFC
FCFEFC
FC487C
FC007C
FC007C
F8007C
F8003C
F9FE3C
FB3B3C
FB3B3C
F97B7C
FCFEFC
FF01FC
FFFFFC
FFFFFC
ENDCHAR
STARTCHAR E5FE
ENCODING 58878
SWIDTH 825 0
DWIDTH 22 0
BBX 22 19 0 -3
BITMAP
FC0000
FE0000
FF0000
FFFFC0
FFFFC0
FFFFC0
E00000
C00000
CFFFFC
CFFFF8
DFFFF8
DFFFF8
BFFFF0
BFFFF0
BFFFF0
FFFFE0
FFFFE0
FFFFC0
FFFFC0
ENDCHAR
STARTCHAR E5FF
ENCODING 58879
SWIDTH 825 0
DWIDTH 22 0
BBX 22 18 0 -3
BITMAP
FFC000
FFE000
FFF000
FFFFFC
FFFFFC
FFFFFC
FFFFFC
FFFFFC
FFFFFC
FFFFFC
FFFFFC
FFFFFC
FFFFFC
FFFFFC
FFFFFC
FFFFFC
FFFFFC
FFFFFC
ENDCHAR
STARTCHAR E600
ENCODING 58880
SWIDTH 712 0
DWIDTH 19 0
BBX 19 25 0 -6
BITMAP
000060
000080
000300
000200
000400
000800
000800
001000
001000
001000
01A000
00A000
00A000
00A000
013000
010000
020000
020000
020000
040000
080000
080000
100000
200000
C00000
ENDCHAR
STARTCHAR E601
ENCODING 58881
SWIDTH 787 0
DWIDTH 21 0
BBX 21 14 0 -1
BITMAP
FF8000
FF8000
000000
000000
3F1FC0
3F1FC0
000000
000000
03F8F8
03F8F8
000000
000000
1F8000
1F8000
ENDCHAR
STARTCHAR E602
ENCODING 58882
SWIDTH 562 0
DWIDTH 15 0
BBX 11 16 2 -1
BITMAP
C000
E000
F000
F800
FE00
FF00
FF80
FFE0
FF80
FF00
FE00
FC00
F000
E000
C000
8000
ENDCHAR
STARTCHAR E603
ENCODING 58883
SWIDTH 712 0
DWIDTH 19 0
BBX 19 23 0 -5
BITMAP
001F00
00FFC0
03E0C0
0F0060
1C0060
380040
7000C0
E00180
C00300
C1BE00
C06000
600000
300000
182000
0CC000
030000
0D0000
190000
230000
620000
660000
7C0000
200000
ENDCHAR
STARTCHAR E604
ENCODING 58884
SWIDTH 862 0
DWIDTH 23 0
BBX 23 22 0 -5
BITMAP
000100
0037E8
001FF8
003FFC
027F0A
06FE00
01FE00
01FA00
03F800
03F000
37F400
17F400
0FF000
0FF800
0FFC00
1FF000
1FF000
FFF000
DFFE00
1FFE00
1FF800
1FFC00
ENDCHAR
STARTCHAR E605
ENCODING 58885
SWIDTH 787 0
DWIDTH 21 0
BBX 20 16 0 -2
BITMAP
001FF0
003FF0
00FFF0
01FFF0
07FFE0
0FFFE0
1FFFE0
1FFFC0
3FFFC0
3FFFC0
7FFFC0
7FFF80
7FFF80
FFFF80
FFFF80
000300
ENDCHAR
STARTCHAR E606
ENCODING 58886
SWIDTH 825 0
DWIDTH 22 0
BBX 22 22 0 -5
BITMAP
01FE00
03FF00
027F00
03FF00
001F00
3FFF00
7FFF78
FFFF7C
FFFF7C
FFFE7C
FC00FC
F9FFFC
FBFFFC
FBFFFC
7BFFF8
3BFFF0
03E000
03FF80
03FD80
03FD80
01FF00
003800
ENDCHAR
STARTCHAR E607
ENCODING 58887
SWIDTH 600 0
DWIDTH 16 0
BBX 15 25 0 -6
BITMAP
F01E
F01E
F03C
F03C
F078
F000
F000
F3F0
FFF8
FFFC
FC3C
E03C
003C
003C
003C
003C
003C
803C
C03C
E03C
F03C
E03C
C03C
803C
003C
ENDCHAR
STARTCHAR E608
ENCODING 58888
SWIDTH 825 0
DWIDTH 22 0
BBX 22 16 0 -2
BITMAP
0F8400
3FDFC0
7FDFF0
7FFFF0
FFDFF8
DFDFFC
FFBFFC
FC7FF8
DFFFF0
9FFFE0
73FFE0
19EDE0
0DC0E0
09C1E0
18E0E0
00C0C0
ENDCHAR
STARTCHAR E609
ENCODING 58889
SWIDTH 675 0
DWIDTH 18 0
BBX 17 20 1 -4
BITMAP
100C00
1C1C00
1E7C00
1FFC00
1FFC00
1FFC00
1FFC00
1FFC00
1FFC00
1FFC00
1FFF80
FFFF00
7FFE00
3FFC00
1FF800
0FF000
07E000
03E000
01C000
008000
ENDCHAR
STARTCHAR E60A
ENCODING 58890
SWIDTH 562 0
DWIDTH 15 0
BBX 13 23 1 -5
BITMAP
0F00
18C0
3040
2040
3940
7F80
5B40
EBC0
FFA0
FFC0
FFC0
7F40
7EC0
7DC0
7EC0
5AE0
59C0
5170
70F0
78B0
F0B8
B870
3000
ENDCHAR
STARTCHAR E60B
ENCODING 58891
SWIDTH 712 0
DWIDTH 19 0
BBX 19 19 0 -3
BITMAP
1C0700
3C0780
380380
300180
300380
300380
300380
300380
700180
E000E0
F001E0
300380
300380
300380
300380
300180
380380
3C0780
1C0700
ENDCHAR
STARTCHAR E60C
ENCODING 58892
SWIDTH 750 0
DWIDTH 20 0
BBX 21 16 0 -2
BITMAP
0707E0
070FF0
071FE0
071C00
071C00
071E00
071F80
070FE0
0707F0
0701F0
070078
0F0070
0F1070
FE1FF0
FE3FE0
F80F80
ENDCHAR
STARTCHAR E60D
ENCODING 58893
SWIDTH 712 0
DWIDTH 19 0
BBX 19 16 0 -2
BITMAP
FFFC00
FFFC00
C00000
CFFFE0
C80020
C80220
C80720
C807A0
C80320
C88020
C9C020
0BE220
0FF720
0FFFA0
0FFFE0
0FFFE0
ENDCHAR
STARTCHAR E60E
ENCODING 58894
SWIDTH 675 0
DWIDTH 18 0
BBX 18 15 0 -1
BITMAP
021000
061800
0E1C00
1C0E00
380700
700380
E001C0
C00040
E000C0
7001C0
380380
1C0F00
0E1E00
061C00
021000
ENDCHAR
STARTCHAR E60F
ENCODING 58895
SWIDTH 900 0
DWIDTH 24 0
BBX 24 6 0 3
BITMAP
01E7C0
E7FFE7
CFFFF3
FFC3FF
7F00FE
38001C
ENDCHAR
STARTCHAR E610
ENCODING 58896
SWIDTH 562 0
DWIDTH 15 0
BBX 11 25 2 -6
BITMAP
0020
0040
0080
0100
0100
0100
FFC0
FFE0
FFE0
FFE0
DEC0
FFC0
7DC0
5DC0
2100
FFC0
7FC0
7FC0
7FC0
4400
3F80
3F80
3F80
3F80
3F00
ENDCHAR
STARTCHAR E611
ENCODING 58897
SWIDTH 675 0
DWIDTH 18 0
BBX 18 24 0 -6
BITMAP
014000
F9E7C0
35EB00
2E1D00
780780
840880
400080
500280
5C8E80
D214C0
8B3440
440880
200100
100200
100200
521280
B41380
9C0E80
47F880
4B3480
3B3700
180E00
0C1800
03E000
ENDCHAR
STARTCHAR E612
ENCODING 58898
SWIDTH 637 0
DWIDTH 17 0
BBX 17 18 0 -3
BITMAP
FFFF00
FFFF00
000000
000000
000000
FFFC00
FFFC00
000000
000000
000000
FFFF80
FFFF80
000000
000000
000000
000000
FFC000
FFC000
ENDCHAR
STARTCHAR E613
ENCODING 58899
SWIDTH 750 0
DWIDTH 20 0
BBX 20 16 0 -2
BITMAP
FFC000
FFC000
FFFFE0
FFFFF0
FFFFF0
FFFFF0
FFFFF0
FFFFF0
FFFFF0
FFFFF0
FFFFF0
FFFFF0
FFFFF0
FFFFF0
FFFFF0
FFFFF0
ENDCHAR
STARTCHAR E614
ENCODING 58900
SWIDTH 675 0
DWIDTH 18 0
BBX 18 17 0 -2
BITMAP
038F00
078F00
078E00
070E00
070E00
7FFFC0
7FFFC0
0F1C00
0E1C00
0E3C00
FFFF80
FFFF80
FFFF80
1C3800
1C7800
3C7800
3C7000
ENDCHAR
STARTCHAR E615
ENCODING 58901
SWIDTH 787 0
DWIDTH 21 0
BBX 21 21 0 -4
BITMAP
010C00
078F00
07FF00
07FF00
0FFF80
7FFFF0
7F8FF0
FE07F8
FE03F0
3C01E0
3C01E0
3C01E0
7E03F8
FE03F8
FF8FF8
7FFFF0
6FFF80
07FF00
07FF00
078F00
038600
ENDCHAR
STARTCHAR E616
ENCODING 58902
SWIDTH 900 0
DWIDTH 24 0
BBX 24 9 0 2
BITMAP
FFFFFF
810401
810401
891449
891449
891449
890449
FF1FFF
01F000
ENDCHAR
STARTCHAR E617
ENCODING 58903
SWIDTH 712 0
DWIDTH 19 0
BBX 19 20 0 -4
BITMAP
00E000
03F800
07FC00
1FFF00
3FFF80
7FFFC0
FFFFE0
FFFFE0
FFBFE0
FE0FE0
FC07E0
FC07E0
FC07E0
FC07E0
FC07E0
FC07E0
FC07E0
FC07E0
F001E0
C00060
ENDCHAR
STARTCHAR E618
ENCODING 58904
SWIDTH 675 0
DWIDTH 18 0
BBX 18 15 0 -1
BITMAP
021000
061800
0E1C00
1C0E00
380700
700380
E001C0
C00040
E000C0
7001C0
380380
1C0F00
0E1E00
061C00
021000
ENDCHAR
STARTCHAR E619
ENCODING 58905
SWIDTH 637 0
DWIDTH 17 0
BBX 17 17 0 -2
BITMAP
800000
FC0000
FF0000
FFC000
0FE000
03F000
E0F800
FC7C00
FE3E00
FF1E00
0F8F00
07CF00
63C700
F1E780
F9E780
F8E780
70E780
ENDCHAR
STARTCHAR E61A
ENCODING 58906
SWIDTH 862 0
DWIDTH 23 0
BBX 23 21 0 -4
BITMAP
01C000
07F038
1FF850
3FFCA0
3E1FE0
7FD9A0
7EDBE0
FF3E40
FFFD80
FFFBF0
FFF00E
FFF1FA
FFE006
7F800E
400038
6007E0
300C00
1C1C00
1FFC00
04FC00
00F000
ENDCHAR
STARTCHAR E61B
ENCODING 58907
SWIDTH 900 0
DWIDTH 24 0
BBX 24 19 0 -3
BITMAP
010F80
02B840
43E6C0
600103
3C001E
03FFE0
700007
3FFFFF
3FFFFE
7FFFFE
9FFFFC
9FFFFC
8FFFF8
C7FFF0
C7FFF0
7BFFE0
03FFE0
01FFC0
007F00
ENDCHAR
STARTCHAR E61C
ENCODING 58908
SWIDTH 600 0
DWIDTH 16 0
BBX 15 25 0 -6
BITMAP
0002
000C
0018
0010
0030
0020
0060
0060
0040
0040
00C0
00C8
00D0
40E0
40E0
44A0
42C0
41C0
41C0
21C0
A1C0
71C0
61C0
23E0
F000
ENDCHAR
STARTCHAR E61D
ENCODING 58909
SWIDTH 787 0
DWIDTH 21 0
BBX 21 23 0 -5
BITMAP
002000
00F800
03FE00
0FFF00
3FFFC0
7F07F0
FC01F8
F800F8
F071F8
F0FBF8
F1FDD8
E1F888
E1FDD8
F1FBF8
F071F8
F800F8
FC01F8
FE07F0
3FFFE0
0FFF80
07FE00
01FC00
007000
ENDCHAR
STARTCHAR E61E
ENCODING 58910
SWIDTH 787 0
DWIDTH 21 0
BBX 21 23 0 -5
BITMAP
002000
00F800
03FE00
0FFF80
1FFFC0
7F07F0
FC01F8
F800F8
F020F8
F0FBF8
F1FFF8
F1FFF8
F1FFF8
F1FFF8
F0F9F8
F800F8
F801F8
FE03F0
7F8FE0
1FFFC0
07FF00
01FC00
007000
ENDCHAR
STARTCHAR E61F
ENCODING 58911
SWIDTH 825 0
DWIDTH 22 0
BBX 22 16 0 -2
BITMAP
F38000
7BC000
3DE000
3CE000
1EF000
0F7BFC
0F39FC
07BC00
07BE00
0F7E7C
1E7F7C
1EF780
3DE7C0
79E3C0
7BC1E0
F780F0
ENDCHAR
STARTCHAR E620
ENCODING 58912
SWIDTH 712 0
DWIDTH 19 0
BBX 19 19 0 -3
BITMAP
000180
0003C0
0003E0
07E3E0
1FFBC0
3FFC00
7FC200
7F8200
FF8300
FFC300
FFFF00
FFFF00
FFFF00
FFFF00
7FFE00
7FFE00
3FFC00
1FF800
07E000
ENDCHAR
STARTCHAR E621
ENCODING 58913
SWIDTH 562 0
DWIDTH 15 0
BBX 2 26 6 -7
BITMAP
C0
C0
00
C0
C0
00
00
C0
C0
00
C0
C0
00
C0
C0
00
00
C0
C0
00
C0
C0
00
00
C0
C0
ENDCHAR
STARTCHAR E622
ENCODING 58914
SWIDTH 637 0
DWIDTH 17 0
BBX 17 21 0 -4
BITMAP
FC3F00
FC7F00
FC7E00
FCFC00
FDF800
FFF800
FFF000
FFE000
7FE000
7FC000
7FC000
7FE000
3FE000
3FF000
3FF800
1DF800
1CFC00
1CFE00
1C7E00
0C3F00
0C1F80
ENDCHAR
STARTCHAR E623
ENCODING 58915
SWIDTH 712 0
DWIDTH 19 0
BBX 18 17 0 -3
BITMAP
004000
004000
00E000
00E000
01F000
01F000
7FFFC0
FFFFC0
3FFF80
1FFF00
0FFE00
07FC00
0FFC00
0FFC00
0FFE00
0F1E00
0C0600
ENDCHAR
STARTCHAR E624
ENCODING 58916
SWIDTH 675 0
DWIDTH 18 0
BBX 18 17 0 -2
BITMAP
00C000
03F000
07F800
07F800
07F800
07F800
03F000
03E000
000000
3C0F00
7E1F80
FF3FC0
FF3FC0
FF3FC0
FF3FC0
7E1F80
3C0F00
ENDCHAR
STARTCHAR E625
ENCODING 58917
SWIDTH 900 0
DWIDTH 24 0
BBX 24 21 0 -4
BITMAP
0381C0
046620
043C20
041820
043C20
042420
07FFE0
1E8378
62814E
C33CC3
833CC1
833CC1
4399C2
34812C
0FFFF0
046420
043C20
041820
043C20
046620
0381C0
ENDCHAR
STARTCHAR E626
ENCODING 58918
SWIDTH 675 0
DWIDTH 18 0
BBX 18 25 0 -6
BITMAP
03F800
3C3F80
AF4580
D96580
D96500
49E900
463080
42A080
41C080
400080
400080
400080
C000C0
C000C0
400080
400080
400080
400080
400080
400080
400100
200100
100200
280500
37FB00
ENDCHAR
STARTCHAR E627
ENCODING 58919
SWIDTH 750 0
DWIDTH 20 0
BBX 20 25 0 -6
BITMAP
03F800
0FFE00
1FFF80
FFFFF0
F8F1E0
3060C0
3060C0
2060C0
30E0C0
39F1C0
3F0FC0
3F0FC0
3FFFC0
3FFFC0
3FFFC0
7FFFE0
7FFFE0
7FFFC0
7FFFC0
7FFFC0
3FFFC0
3FFF80
1FFF80
0FFF00
0FFF00
ENDCHAR
STARTCHAR E628
ENCODING 58920
SWIDTH 862 0
DWIDTH 23 0
BBX 23 14 0 -1
BITMAP
FFE3F8
FFE7FC
0E0F1C
0E0E0E
0E0F00
0E07C0
0E03F0
0E00FC
0E001E
0E000E
0E0E0E
0E0F1E
0E07FC
0E01F8
ENDCHAR
STARTCHAR E629
ENCODING 58921
SWIDTH 750 0
DWIDTH 20 0
BBX 20 22 0 -4
BITMAP
000400
19DF00
1DF300
1DF000
1DDE00
17CF00
17C180
17D980
17DF00
124E00
00F300
FFFFC0
FFDDE0
C79F60
C6DF00
CFDF00
CFCBE0
CFC7E0
C7FF70
C7BE70
FFFFE0
FEFFC0
ENDCHAR
STARTCHAR E62A
ENCODING 58922
SWIDTH 825 0
DWIDTH 22 0
BBX 22 19 0 -2
BITMAP
07F000
0FF800
0FF200
0FF3FC
1FF7FC
1FF7F8
1FE7F8
106FF8
060FF8
3FCFF0
3FC3C0
7FD810
7FDFE0
7F9FE0
7FBFE0
FFBFE0
813FC0
007FC0
003F80
ENDCHAR
STARTCHAR E62B
ENCODING 58923
SWIDTH 787 0
DWIDTH 21 0
BBX 20 19 0 -3
BITMAP
FF0FF0
FF0FF0
7E07F0
7E0FE0
7E1FC0
7E3F80
7E7F00
7EFE00
7FFC00
7FF800
7FF000
7FE000
7FC000
7F8000
7F0000
7E0000
7C0000
780000
700000
ENDCHAR
STARTCHAR E62C
ENCODING 58924
SWIDTH 712 0
DWIDTH 19 0
BBX 19 19 0 -3
BITMAP
7FDFE0
BFEFE0
DFF7E0
EFFBE0
F001E0
FBFAE0
FDF760
FEEFA0
FF5FC0
FFBFE0
FF5FC0
FEEFA0
FDF760
FBFAE0
F7FDE0
EFFEE0
DFFF60
BFFFA0
7FFFC0
ENDCHAR
STARTCHAR E62D
ENCODING 58925
SWIDTH 600 0
DWIDTH 16 0
BBX 15 24 0 -6
BITMAP
0100
0300
0700
0F80
0F80
1F80
3FC0
3FE0
3FF0
7FF8
7FF8
FFFC
FFFE
FFFE
FFFE
FFFE
FFFE
FFFE
7FFE
7FFE
3FFC
31F8
0CF0
01C0
ENDCHAR
STARTCHAR E62E
ENCODING 58926
SWIDTH 825 0
DWIDTH 22 0
BBX 22 24 0 -6
BITMAP
003000
004800
003400
000200
000200
1F05E0
603918
80C108
810088
860088
480088
103090
203090
500080
480080
840080
430088
A0C114
A03014
420FF8
010000
010200
008400
007800
ENDCHAR
STARTCHAR E62F
ENCODING 58927
SWIDTH 787 0
DWIDTH 21 0
BBX 21 21 0 -4
BITMAP
018000
03F800
07FF80
0FFFE0
1FFFE0
3FDFE0
7C1FE0
E03FF0
803FF0
C03FF0
603FF8
707FF8
787FF8
7C7FF8
3EFFF0
3FFFE0
3FFFC0
1FFF80
1FFF00
03FE00
003C00
ENDCHAR
STARTCHAR E700
ENCODING 59136
SWIDTH 562 0
DWIDTH 15 0
BBX 15 18 0 -2
BITMAP
E000
F000
F000
F000
F000
F3C0
F1F8
F1FE
F0FE
F03E
F0FE
F1FE
E7FC
DFF0
FFC0
7F80
3E00
1800
ENDCHAR
STARTCHAR E701
ENCODING 59137
SWIDTH 712 0
DWIDTH 19 0
BBX 18 20 0 -4
BITMAP
00E000
01E000
01E000
00E000
F0E1C0
F8E7C0
FCEFC0
7FFF80
1FFE00
03F800
07F800
1FFF00
7FFFC0
FCEFC0
F8E3C0
60E1C0
01E000
01E000
01E000
00C000
ENDCHAR
STARTCHAR E702
ENCODING 59138
SWIDTH 712 0
DWIDTH 19 0
BBX 19 19 0 -3
BITMAP
004000
00E000
01F000
00F800
063C00
0F1E00
1F1F00
3FAF80
7FB3C0
FFB1E0
FFB1E0
7FBFC0
3F9F80
1F1F00
0F1E00
07FC00
03F800
01F000
00E000
ENDCHAR
STARTCHAR E703
ENCODING 59139
SWIDTH 712 0
DWIDTH 19 0
BBX 18 20 0 -4
BITMAP
3FFF00
F003C0
F003C0
FFFFC0
FFFFC0
FFFFC0
7FBFC0
7E1FC0
7CEF80
7CEF80
7CEF80
7E4F80
3F1F80
1FFF00
37F900
1C0F00
1FFF00
1FFF00
1FFE00
07FC00
ENDCHAR
STARTCHAR E704
ENCODING 59140
SWIDTH 712 0
DWIDTH 19 0
BBX 18 17 0 -3
BITMAP
F00000
8E0000
410000
408000
204000
202000
102000
101000
201000
200800
240800
1C0600
0A0100
0000C0
000380
000100
0000C0
ENDCHAR
STARTCHAR E705
ENCODING 59141
SWIDTH 675 0
DWIDTH 18 0
BBX 18 19 0 -3
BITMAP
07F800
380700
400080
800040
800040
C000C0
B00340
8FFC40
800040
C000C0
B80740
87F840
800040
C000C0
B80740
87F840
C000C0
300300
0FF800
ENDCHAR
STARTCHAR E706
ENCODING 59142
SWIDTH 600 0
DWIDTH 16 0
BBX 16 18 0 -3
BITMAP
3FFC
F007
F007
FFFF
FFFF
7FFE
1FF8
C001
F00F
FFFF
FFFF
7FFE
0FF8
E007
FFFF
FFFF
7FFE
1FF8
ENDCHAR
STARTCHAR E707
ENCODING 59143
SWIDTH 712 0
DWIDTH 19 0
BBX 19 17 0 -2
BITMAP
040400
1E0F00
3FBF80
FFBFE0
7E1FC0
3C0780
000000
180300
3E0F80
FF3FE0
7FBFC0
1F5F00
0FFE00
0BFA00
07FC00
03F800
00E000
ENDCHAR
STARTCHAR E708
ENCODING 59144
SWIDTH 712 0
DWIDTH 19 0
BBX 19 16 0 -2
BITMAP
300180
3C0780
3FFF80
7FFF80
7FFF80
7FFFC0
FFFFC0
FFFFE0
F001E0
E60CE0
E61CE0
E61CC0
6208C0
600180
180300
0FFC00
ENDCHAR
STARTCHAR E709
ENCODING 59145
SWIDTH 712 0
DWIDTH 19 0
BBX 19 19 0 -3
BITMAP
004000
07FC00
0FFE00
3FFF80
37F980
7001C0
7001C0
F001E0
E001E0
E000E0
E000E0
F001E0
F001E0
7C07C0
6E0FC0
300F80
180F00
0E0E00
020800
ENDCHAR
STARTCHAR E70A
ENCODING 59146
SWIDTH 712 0
DWIDTH 19 0
BBX 19 19 0 -3
BITMAP
03F800
0FFE00
1E0F00
380380
7001C0
6000C0
E208E0
C7F860
C7FC60
C7FC60
C40460
C53460
E408E0
63F0C0
7001C0
380380
1E0F00
0FFE00
03F800
ENDCHAR
STARTCHAR E70B
ENCODING 59147
SWIDTH 712 0
DWIDTH 19 0
BBX 19 19 0 -3
BITMAP
03F000
0FFC00
1FFF00
3FFC00
040C00
0F1E00
8F1E40
8F8F20
C78F60
C78F60
E7C760
E346E0
6346C0
73E2C0
72E180
30F180
19F300
01F000
01F000
ENDCHAR
STARTCHAR E70C
ENCODING 59148
SWIDTH 712 0
DWIDTH 19 0
BBX 19 19 0 -3
BITMAP
000200
000780
000FE0
001FE0
403FE0
F07FE0
F8FBE0
DDF3E0
CFE3E0
C783E0
CFC3E0
DFE3E0
FDFBE0
F0FFE0
E07FE0
003FE0
001FE0
000FC0
000700
ENDCHAR
STARTCHAR E70D
ENCODING 59149
SWIDTH 562 0
DWIDTH 15 0
BBX 8 15 3 -1
BITMAP
06
07
09
12
12
12
2C
3C
5C
38
78
B0
B0
F0
E0
ENDCHAR
STARTCHAR E70E
ENCODING 59150
SWIDTH 825 0
DWIDTH 22 0
BBX 22 25 0 -6
BITMAP
020200
022200
03FE00
07FF00
0EF980
0FFFC0
0FFFC0
000000
EFFFD8
EFFFF8
EFFFFC
EFFFFC
EFFFFC
EFFFFC
EFFFFC
EFFFFC
EFFFD8
0FFFC0
0FFFC0
0FFF80
01CE00
01CE00
01CE00
01CE00
018E00
ENDCHAR
STARTCHAR E70F
ENCODING 59151
SWIDTH 712 0
DWIDTH 19 0
BBX 19 19 0 -3
BITMAP
000060
003FE0
3F7FE0
FF7FE0
FF7FE0
FF7FE0
FF7FE0
FF7FE0
FF7FE0
000000
FF7FE0
FF7FE0
FF7FE0
FF7FE0
FF7FE0
FF7FE0
FF7FE0
037FE0
0007E0
ENDCHAR
STARTCHAR E710
ENCODING 59152
SWIDTH 637 0
DWIDTH 17 0
BBX 17 21 0 -4
BITMAP
000200
000300
00C300
006300
003300
003100
061980
078D80
01CD00
007400
1C3000
1FC000
81F000
800C00
9FCC00
8FEC00
800C00
BFEC00
BFEC00
800C00
FFFC00
ENDCHAR
STARTCHAR E711
ENCODING 59153
SWIDTH 637 0
DWIDTH 17 0
BBX 17 21 0 -4
BITMAP
001800
003800
007000
007000
004000
1E3E00
3FFF00
7FFF00
FFFE00
FFFE00
FFFE00
FFFE00
FFFE00
FFFE00
FFFF00
7FFF80
7FFF80
3FFF80
3FFF00
1FFE00
0F3C00
ENDCHAR
STARTCHAR E712
ENCODING 59154
SWIDTH 825 0
DWIDTH 22 0
BBX 22 26 0 -7
BITMAP
00F800
00FC00
01FE00
01FE00
012600
01BE00
014600
011600
01FF00
016300
030380
0603C0
060140
0C01E0
0C00E0
0C00E0
1C00E0
1800E0
2603F0
C302D0
818208
810604
809E08
80FC30
788240
070180
ENDCHAR
STARTCHAR E713
ENCODING 59155
SWIDTH 712 0
DWIDTH 19 0
BBX 19 17 0 -3
BITMAP
004000
004000
002000
002000
003000
019800
039800
030C00
F76DE0
F6F6E0
EFF6E0
1C0300
180000
380180
100100
6000C0
400040
ENDCHAR
STARTCHAR E714
ENCODING 59156
SWIDTH 712 0
DWIDTH 19 0
BBX 19 19 0 -3
BITMAP
FFE1E0
FFE1E0
FFE1E0
FFE1E0
000000
000000
000000
000000
FFFFE0
FFFFE0
FFFFE0
FFFFE0
000000
000000
000000
000000
FE1FE0
FE1FE0
FE1FE0
ENDCHAR
STARTCHAR E715
ENCODING 59157
SWIDTH 975 0
DWIDTH 26 0
BBX 26 6 0 3
BITMAP
924B9F40
564C60C0
264C60C0
2F7C60C0
294A9100
20010440
ENDCHAR
STARTCHAR E716
ENCODING 59158
SWIDTH 712 0
DWIDTH 19 0
BBX 18 19 0 -3
BITMAP
004000
01E000
03F800
0EDC00
1CC600
70C380
E0C0C0
E1F1C0
FF3BC0
DE0E40
FF1F40
F3F1C0
C0E0C0
70C1C0
38C700
0CCE00
07F800
01F000
00C000
ENDCHAR
STARTCHAR E717
ENCODING 59159
SWIDTH 975 0
DWIDTH 26 0
BBX 26 7 0 3
BITMAP
7A090200
EA490200
C2E94B80
9AEF4BC0
CA494A40
CA494A40
7A697BC0
ENDCHAR
STARTCHAR E718
ENCODING 59160
SWIDTH 712 0
DWIDTH 19 0
BBX 18 21 0 -4
BITMAP
00C000
01F000
071C00
1C0E00
700380
C000C0
800040
82FC40
82C640
82C240
82FC40
820E40
828340
82C640
827C40
C20040
7601C0
3C0700
000C00
03B800
00E000
ENDCHAR
STARTCHAR E719
ENCODING 59161
SWIDTH 975 0
DWIDTH 26 0
BBX 26 7 0 2
BITMAP
00020000
00020000
610E2180
F7DE7E40
97D274C0
97DE6640
01002180
ENDCHAR
STARTCHAR E71A
ENCODING 59162
SWIDTH 712 0
DWIDTH 19 0
BBX 19 19 0 -3
BITMAP
FFFFE0
FFFFE0
C00060
C00060
C00060
C71C60
C31860
C1B860
C1B060
C0E060
C0E060
C06060
C06060
C06060
C00060
C00060
C00060
FFFFE0
FFFFE0
ENDCHAR
STARTCHAR E71B
ENCODING 59163
SWIDTH 975 0
DWIDTH 26 0
BBX 26 10 0 1
BITMAP
00030000
00050000
00050000
000A0000
120E3000
3AAF7500
2BE95700
F2E967C0
3EBBFC00
10A43400
ENDCHAR
STARTCHAR E71C
ENCODING 59164
SWIDTH 975 0
DWIDTH 26 0
BBX 27 12 0 0
BITMAP
011C4700
01004000
3D3C4780
41634840
C1415020
81815020
81815020
C1415020
43634840
3D1C4780
00004000
00008000
ENDCHAR
STARTCHAR E71D
ENCODING 59165
SWIDTH 975 0
DWIDTH 26 0
BBX 26 9 0 2
BITMAP
16000000
10000000
76EF3FC0
D6296A40
D6E94A40
D7A96B40
76E93980
06001800
0C007000
ENDCHAR
STARTCHAR E71E
ENCODING 59166
SWIDTH 975 0
DWIDTH 26 0
BBX 26 10 0 1
BITMAP
FFFFFFC0
81810040
85891240
85891240
85891240
85811240
85811240
FF8FFFC0
FF8FFFC0
01F80000
ENDCHAR
STARTCHAR E71F
ENCODING 59167
SWIDTH 975 0
DWIDTH 26 0
BBX 26 9 0 2
BITMAP
00100000
00100080
E19404C0
015B6880
F1532E80
01932280
D1D2CEC0
02400000
01C00000
ENDCHAR
STARTCHAR E720
ENCODING 59168
SWIDTH 975 0
DWIDTH 26 0
BBX 26 13 0 0
BITMAP
00F60000
00F7C000
00F7F000
00F7FC00
00F7FE00
0FF7FE00
0FF7FF00
0FF7FF80
0FF7FF80
FFF7FF80
FFF7FFC0
FFF7FFC0
FFF7FFC0
ENDCHAR
STARTCHAR E721
ENCODING 59169
SWIDTH 712 0
DWIDTH 19 0
BBX 19 19 0 -4
BITMAP
000F80
007F80
00FBC0
0786C0
0E06C0
1C0CC0
381C60
701860
FFF840
7FF840
301860
181C60
0C0CC0
0606C0
0387C0
00FBC0
007F80
000F80
000080
ENDCHAR
STARTCHAR E722
ENCODING 59170
SWIDTH 637 0
DWIDTH 17 0
BBX 17 22 0 -5
BITMAP
7E7F00
418100
488900
46B100
21C200
13EC00
1C3C00
242200
4FF200
708E00
708500
A08480
90C480
B32E80
7C1900
441100
442100
222200
17E400
0C1800
022000
01C000
ENDCHAR
STARTCHAR E723
ENCODING 59171
SWIDTH 712 0
DWIDTH 19 0
BBX 19 13 0 0
BITMAP
7CF800
7CF800
7CF800
0003E0
0003E0
79F3C0
F9F000
F9F000
0007C0
0007C0
03E780
03E000
03E000
ENDCHAR
STARTCHAR E724
ENCODING 59172
SWIDTH 600 0
DWIDTH 16 0
BBX 16 22 0 -5
BITMAP
0FF0
7EEE
D316
EB52
5194
4EE2
C382
4282
4102
4002
4002
C003
4002
4002
4002
4002
4002
4004
4004
2008
5814
77E8
ENDCHAR
STARTCHAR E725
ENCODING 59173
SWIDTH 562 0
DWIDTH 15 0
BBX 15 22 0 -5
BITMAP
7800
FC00
CC00
CC1C
CC3E
7862
3062
3066
303E
303C
303C
303C
31F8
3FF0
3FE0
3E00
7800
CC00
CC00
CC00
7800
3000
ENDCHAR
STARTCHAR E726
ENCODING 59174
SWIDTH 637 0
DWIDTH 17 0
BBX 17 20 0 -3
BITMAP
00C000
79C000
CBFC00
8BFE00
D9FE00
70C700
704700
700700
700700
700700
700700
700700
700700
700700
700700
780F00
C80980
880880
C80980
780F00
ENDCHAR
STARTCHAR E727
ENCODING 59175
SWIDTH 675 0
DWIDTH 18 0
BBX 19 21 0 -5
BITMAP
780000
FC0000
CC0000
CC0000
CC0000
780000
380000
3C0000
3E0000
3F0100
37C7C0
33FC40
31FC60
307C40
3007C0
300000
780000
CC0000
CC0000
CC0000
780000
ENDCHAR
STARTCHAR E728
ENCODING 59176
SWIDTH 675 0
DWIDTH 18 0
BBX 18 20 0 -4
BITMAP
001000
703000
D87E00
88FF00
C87F80
703380
701380
700380
700380
700380
700380
700380
700380
720380
710380
7F86C0
3FC440
1FC640
018380
010000
ENDCHAR
STARTCHAR E729
ENCODING 59177
SWIDTH 712 0
DWIDTH 19 0
BBX 19 11 0 1
BITMAP
01E000
03F800
07FC00
0F1C00
FE0FE0
FE0FE0
FE0FE0
0F1C00
07FC00
03F800
01F000
ENDCHAR
STARTCHAR E72A
ENCODING 59178
SWIDTH 712 0
DWIDTH 19 0
BBX 19 19 0 -3
BITMAP
018000
078000
1F8000
3E0000
39F000
73F800
77FC00
EFFE00
EFFE00
EFFE00
EFFEE0
EFFEE0
EFFCC0
77FDC0
7BFB80
3C4780
1FFF00
0FFE00
03F800
ENDCHAR
STARTCHAR E72B
ENCODING 59179
SWIDTH 712 0
DWIDTH 19 0
BBX 19 11 0 1
BITMAP
FF0000
1C0000
0E1F80
0E0C00
0718E0
03B0E0
01E0C0
01C0C0
01C0C0
01C000
07F880
ENDCHAR
STARTCHAR E72C
ENCODING 59180
SWIDTH 712 0
DWIDTH 19 0
BBX 19 9 0 2
BITMAP
FF87E0
FF87E0
FF87E0
1C7800
1C7800
1C7800
1C7FE0
1C7FE0
1C7FE0
ENDCHAR
STARTCHAR E72D
ENCODING 59181
SWIDTH 712 0
DWIDTH 19 0
BBX 19 19 0 -3
BITMAP
000600
000300
000100
700300
F0F380
E0FF80
E0FF80
F07F80
700F80
7807C0
7E01C0
7F81C0
7FE0C0
3FE0E0
3FF0E0
39E0E0
300180
100000
1C0000
ENDCHAR
STARTCHAR E72E
ENCODING 59182
SWIDTH 712 0
DWIDTH 19 0
BBX 18 8 0 2
BITMAP
000300
0003C0
377FC0
1B6F00
197F00
1B4740
FBFFC0
FBB980
ENDCHAR
STARTCHAR E72F
ENCODING 59183
SWIDTH 712 0
DWIDTH 19 0
BBX 19 18 0 -3
BITMAP
07F800
0FFE00
1FFF00
3FFF80
7FBFC0
7FBFC0
FF1FE0
FE9FE0
FC8FE0
FC4FE0
FC8FE0
FF8FE0
7E0FC0
7FBFC0
3FFF80
1FFF00
0FFE00
07FC00
ENDCHAR
STARTCHAR E730
ENCODING 59184
SWIDTH 712 0
DWIDTH 19 0
BBX 19 19 0 -3
BITMAP
007800
007F80
077FC0
07FFC0
3FF840
3F4840
254840
F54840
B54840
B54840
B54840
F54840
274820
3F4820
3FF860
07FFE0
07FFE0
007FC0
007C00
ENDCHAR
STARTCHAR E731
ENCODING 59185
SWIDTH 712 0
DWIDTH 19 0
BBX 19 17 0 -2
BITMAP
01F800
00F800
06FC00
077C00
0F7E00
0FBF00
1F9F00
3F1F80
3E0F80
7E0FC0
7C07C0
FC0000
FBFFE0
7BFFC0
37FFC0
27FF80
0FFF00
ENDCHAR
STARTCHAR E732
ENCODING 59186
SWIDTH 712 0
DWIDTH 19 0
BBX 19 15 0 -1
BITMAP
7CF3E0
F9E7C0
F3CF80
E000E0
E000E0
E000E0
E000E0
E000E0
E000E0
E000E0
E000E0
E000E0
FFFFE0
FFFFE0
FFFFE0
ENDCHAR
STARTCHAR E733
ENCODING 59187
SWIDTH 712 0
DWIDTH 19 0
BBX 19 18 0 -3
BITMAP
3C0780
1E0F00
0F1E00
07BC00
FFFFE0
FFFFE0
FFFFE0
E000E0
E000E0
E000E0
E000E0
E040E0
E0E0E0
E1F0E0
E3F8E0
FFBFE0
FF1FE0
FE0FE0
ENDCHAR
STARTCHAR E734
ENCODING 59188
SWIDTH 712 0
DWIDTH 19 0
BBX 18 14 0 -1
BITMAP
FF8000
7FC000
01E400
30FE00
30E700
39F300
1FBB00
0FBB00
07DB00
05EB00
06F300
0F0000
07FF80
03FFC0
ENDCHAR
STARTCHAR E735
ENCODING 59189
SWIDTH 712 0
DWIDTH 19 0
BBX 19 17 0 -2
BITMAP
006000
03FC00
00FF80
FC1FE0
FF83E0
FFF0E0
E3F8E0
E000E0
E000E0
E000E0
E000E0
E000E0
F003E0
FE1FE0
FFFFC0
1FFC00
01E000
ENDCHAR
STARTCHAR E736
ENCODING 59190
SWIDTH 712 0
DWIDTH 19 0
BBX 19 21 0 -4
BITMAP
FFFFE0
FFFFE0
FFFFC0
FFFFC0
7041C0
7041C0
7041C0
73FFC0
73FFC0
7041C0
7041C0
7FF1C0
79F3C0
79F3C0
786380
380380
3E0F80
3FFF80
3FFF80
1FFF00
01F800
ENDCHAR
STARTCHAR E737
ENCODING 59191
SWIDTH 562 0
DWIDTH 15 0
BBX 12 20 1 -3
BITMAP
0030
03F0
FFF0
FFF0
FFF0
FFC0
FC10
0070
1FF0
FFF0
FFF0
FFE0
FF80
E010
01F0
FFF0
FFF0
FFF0
FFE0
FE00
ENDCHAR
STARTCHAR E738
ENCODING 59192
SWIDTH 600 0
DWIDTH 16 0
BBX 16 20 0 -3
BITMAP
0020
0020
0040
0080
0130
0240
0480
04C0
02C0
0240
0040
380B
1FF1
0002
0FEC
0800
07E0
C000
FCFF
0FFC
ENDCHAR
STARTCHAR E739
ENCODING 59193
SWIDTH 862 0
DWIDTH 23 0
BBX 23 22 0 -5
BITMAP
0003FE
001D7E
007FF2
00FBC0
01F0FE
07EBFA
0FDFF6
0FBDF6
1F7FEE
3E7EDE
32CEDE
4EF9BE
5FFF7E
4DFEBE
ADFBFE
BDF7DE
F7DFFE
FF3FEE
FAFFF6
C1FFFE
3F8FFA
0077CE
ENDCHAR
STARTCHAR E73A
ENCODING 59194
SWIDTH 712 0
DWIDTH 19 0
BBX 19 19 0 -3
BITMAP
01F000
0FFE00
1FFF00
3FF380
7E23C0
7D1FC0
F9E3E0
F1F9E0
F3F9E0
CBFFE0
CBF9E0
F3F9E0
F9F3E0
7D07C0
7E13C0
3FE380
1FF700
0FFE00
03F000
ENDCHAR
STARTCHAR E73B
ENCODING 59195
SWIDTH 712 0
DWIDTH 19 0
BBX 18 19 0 -3
BITMAP
000800
00DE80
007F80
01FE40
0DFC00
03F000
07E800
07C000
0FE000
6FE000
1FC000
1FC000
1FE000
3FC000
FFC000
FFC000
3FD000
3FE000
3FE000
ENDCHAR
STARTCHAR E73C
ENCODING 59196
SWIDTH 712 0
DWIDTH 19 0
BBX 19 19 0 -3
BITMAP
01F000
07F800
04FC00
07FC00
007C00
7FFF80
7FFFC0
FFFFC0
FFFBE0
FC07E0
FBFFE0
F7FFE0
F7FFC0
77FFC0
078000
07FC00
07E400
07EC00
03F800
ENDCHAR
STARTCHAR E73D
ENCODING 59197
SWIDTH 712 0
DWIDTH 19 0
BBX 19 9 0 2
BITMAP
008000
018000
7DF7C0
679660
679660
473460
FF3FC0
C00C00
C00C00
ENDCHAR
STARTCHAR E73E
ENCODING 59198
SWIDTH 712 0
DWIDTH 19 0
BBX 19 11 0 1
BITMAP
FFFFE0
FFFFE0
C719E0
C619E0
C019E0
C019E0
C91060
CF18E0
CF19E0
FFFFE0
FFFFE0
ENDCHAR
STARTCHAR E73F
ENCODING 59199
SWIDTH 712 0
DWIDTH 19 0
BBX 19 13 0 0
BITMAP
780000
880000
440000
440100
220680
210240
1102E0
108F00
10F080
0F4040
002040
002380
001C00
ENDCHAR
STARTCHAR E740
ENCODING 59200
SWIDTH 675 0
DWIDTH 18 0
BBX 18 21 0 -4
BITMAP
00C000
01E000
07F800
1F3E00
3C0F00
F807C0
E001C0
C330C0
C738C0
C738C0
C738C0
C738C0
C738C0
C738C0
C738C0
C738C0
473880
073800
073800
03F000
00C000
ENDCHAR
STARTCHAR E741
ENCODING 59201
SWIDTH 712 0
DWIDTH 19 0
BBX 19 19 0 -3
BITMAP
700180
F803C0
FE1FE0
FFBFE0
7F7FC0
38E380
31D380
3BBB80
3F3F00
1E1E00
1F1F00
3FBF00
337380
30E380
7FD7C0
FFBFE0
FF3FE0
F803E0
7001C0
ENDCHAR
STARTCHAR E742
ENCODING 59202
SWIDTH 712 0
DWIDTH 19 0
BBX 19 20 0 -3
BITMAP
00C000
01E000
03F800
0FFE00
1FFF00
3FFF80
7FFFC0
7FFFC0
FFFFE0
FFFFE0
FFFFE0
FEFFE0
F83E20
F00C20
700040
703E40
3FFB80
1FFF00
0F8200
03FC00
ENDCHAR
STARTCHAR E743
ENCODING 59203
SWIDTH 712 0
DWIDTH 19 0
BBX 19 19 0 -3
BITMAP
01F000
0FFC00
1FFF00
3FFF80
5FFF80
5F0000
EEEFC0
EDF7E0
FBFBE0
FBFBE0
FBFBE0
FFF7E0
FDE7C0
7F0FC0
7FFFC0
3FDF80
1FFF00
0FBE00
037800
ENDCHAR
STARTCHAR E744
ENCODING 59204
SWIDTH 712 0
DWIDTH 19 0
BBX 19 19 0 -3
BITMAP
000300
00FCC0
03FE40
07FF40
0FFFC0
1F8FC0
1F07C0
2E03C0
1E03E0
3FFFE0
3FFFE0
7FFFE0
7E0000
7E07C0
DF8FC0
CFFF80
8FFF00
C3FE00
7CF800
ENDCHAR
STARTCHAR E745
ENCODING 59205
SWIDTH 712 0
DWIDTH 19 0
BBX 19 19 0 -3
BITMAP
00C000
073800
180400
420280
7E0380
7C01C0
7D81C0
FF01C0
FA01E0
FC01E0
FC01E0
FFE3C0
7DC3C0
7E07C0
7FBFC0
3FFF80
1FFE00
0FFE00
01F000
ENDCHAR
STARTCHAR E746
ENCODING 59206
SWIDTH 712 0
DWIDTH 19 0
BBX 19 21 0 -4
BITMAP
004000
07FC00
1EDE00
3D3F00
7E1780
7E17C0
FC0FC0
FC0FC0
FC0FE0
FC0FE0
FC0FE0
FC0FE0
FC0FE0
FC0FC0
FC0FC0
7C0FC0
7E1780
3E1F80
1F2F00
0FFE00
03F800
ENDCHAR
STARTCHAR E747
ENCODING 59207
SWIDTH 712 0
DWIDTH 19 0
BBX 19 18 0 -3
BITMAP
7FFFC0
FFFFE0
FFFFE0
F807E0
F803E0
F8F3E0
F8F3E0
F8F3E0
F807E0
F803E0
F8F1E0
F8F1E0
F8F1E0
F803E0
F807E0
FFFFE0
FFFFC0
7FFF80
ENDCHAR
STARTCHAR E748
ENCODING 59208
SWIDTH 712 0
DWIDTH 19 0
BBX 19 21 0 -4
BITMAP
030000
028000
010000
07FC00
0E0E00
1BF300
37FD80
6FFEC0
5FFF40
DFAF60
FEDF60
BEE720
BD6F60
DE7F60
DEDF60
5DDF40
6FFEC0
37FD80
19F300
0F1E00
03F800
ENDCHAR
STARTCHAR E749
ENCODING 59209
SWIDTH 712 0
DWIDTH 19 0
BBX 19 21 0 -4
BITMAP
FFFFE0
FFFFE0
FFFFE0
FFFFC0
F001C0
F001C0
7FF9C0
7FF9C0
7E01C0
7E01C0
7E01C0
7FF1C0
71F3C0
71F3C0
700380
780380
7F1F80
3FFF80
3FFF80
1FFF00
01F000
ENDCHAR
STARTCHAR E74A
ENCODING 59210
SWIDTH 712 0
DWIDTH 19 0
BBX 19 17 0 -2
BITMAP
1FFFE0
3FFFE0
3FFFC0
0001C0
0001C0
3FFFC0
7FFFC0
7FFF80
000380
000380
700380
F00780
FC1F00
FFFF00
7FFE00
0FF000
018000
ENDCHAR
STARTCHAR E74B
ENCODING 59211
SWIDTH 975 0
DWIDTH 26 0
BBX 26 19 0 -3
BITMAP
007E0000
03FF0000
0F018000
1C018000
38010000
60030000
60060000
C21C0000
C1F03000
60013000
30337000
185B5F00
0D9D98C0
06B4B840
1AB9D040
32FBA000
62D00000
64000000
7C000000
ENDCHAR
STARTCHAR E74C
ENCODING 59212
SWIDTH 600 0
DWIDTH 16 0
BBX 16 22 0 -5
BITMAP
0080
73CE
7BDE
4C34
700E
8C32
4002
718E
B83E
9649
8C33
6004
2004
2004
6426
A825
9FFA
5012
3E7C
0810
0420
03C0
ENDCHAR
STARTCHAR E74D
ENCODING 59213
SWIDTH 712 0
DWIDTH 19 0
BBX 19 17 0 -2
BITMAP
078000
184380
202500
401D00
43A600
834E00
803C00
803E00
8041C0
8087E0
8000E0
400380
401E00
603000
387000
1FF000
03E000
ENDCHAR
STARTCHAR E74E
ENCODING 59214
SWIDTH 712 0
DWIDTH 19 0
BBX 19 15 0 -1
BITMAP
000200
0E1FC0
0E3FC0
0E7840
0E7000
0E7800
0E7E00
0E3F80
0E0FC0
0E01E0
0E00E0
0E00E0
FE7FE0
FC7FC0
F83F00
ENDCHAR
STARTCHAR E74F
ENCODING 59215
SWIDTH 712 0
DWIDTH 19 0
BBX 19 21 0 -4
BITMAP
FFFFE0
FFFFE0
F803E0
F803E0
F801C0
F9F1C0
79F1C0
79F1C0
71FFC0
7001C0
7001C0
7FF1C0
71F3C0
71F3C0
70C3C0
780380
7E0F80
3FFF80
3FFF80
1FFF00
03F000
ENDCHAR
STARTCHAR E750
ENCODING 59216
SWIDTH 712 0
DWIDTH 19 0
BBX 18 17 0 -2
BITMAP
004000
042000
442000
843000
861C00
860780
830000
C38000
C1C040
E0FF80
E03E00
700000
7C0000
3E0080
1FFF00
07FE00
01F000
ENDCHAR
STARTCHAR E751
ENCODING 59217
SWIDTH 712 0
DWIDTH 19 0
BBX 18 14 0 0
BITMAP
0CFC00
872C40
6011C0
4FFC00
7C01C0
7FFFC0
7FFFC0
BFFF80
9FFF80
9FFF00
CFFE00
67FE00
07FC00
03F800
ENDCHAR
STARTCHAR E752
ENCODING 59218
SWIDTH 600 0
DWIDTH 16 0
BBX 16 19 0 -4
BITMAP
8001
E007
F81F
FC3F
FFFF
E7E7
EFF7
FFFF
FC3F
F00F
F81F
FE7F
FFFF
E7E7
EFF7
FE7F
F83F
F00F
C003
ENDCHAR
STARTCHAR E753
ENCODING 59219
SWIDTH 712 0
DWIDTH 19 0
BBX 19 20 0 -4
BITMAP
01F000
0FFC00
3FBF80
FF3FE0
FF1FE0
FF1FE0
FE4FC0
7E4FC0
7CE7C0
7CE7C0
7803C0
79F3C0
73F9C0
73F9C0
7FFF80
3FFF80
0FFE00
07F800
01F000
004000
ENDCHAR
STARTCHAR E754
ENCODING 59220
SWIDTH 712 0
DWIDTH 19 0
BBX 19 16 0 -2
BITMAP
7FFFC0
FFFFE0
FFFBE0
FFF8E0
E3F8E0
E3F8E0
E3FFE0
E3F0E0
E3F0E0
F1E1E0
F001E0
7803C0
7E0FC0
3FFF80
1FFF00
07F800
ENDCHAR
STARTCHAR E755
ENCODING 59221
SWIDTH 712 0
DWIDTH 19 0
BBX 19 16 0 -1
BITMAP
000800
000400
240600
120300
090380
06C380
036380
03F380
00FFC0
007FC0
803F80
603FC0
3FFFC0
1FFFE0
07FE60
01F820
ENDCHAR
STARTCHAR E756
ENCODING 59222
SWIDTH 562 0
DWIDTH 15 0
BBX 13 13 1 0
BITMAP
0030
0058
0080
1D80
33A0
31C0
1B00
CB00
5300
2300
0200
3400
3800
ENDCHAR
STARTCHAR E757
ENCODING 59223
SWIDTH 712 0
DWIDTH 19 0
BBX 19 19 0 -3
BITMAP
01F000
0FFC00
1FFF00
3FFF00
7FED80
7FEDC0
FCCFC0
FBDBC0
F987E0
F99FE0
EC9FE0
EDBFE0
FF3FC0
7F3FC0
7B7F80
3AFF80
1FFF00
0FFC00
03F000
ENDCHAR
STARTCHAR E758
ENCODING 59224
SWIDTH 787 0
DWIDTH 21 0
BBX 21 10 0 1
BITMAP
700030
500010
500010
539DD0
D45110
D7DDD8
540450
5BDFD0
400010
600020
ENDCHAR
STARTCHAR E759
ENCODING 59225
SWIDTH 787 0
DWIDTH 21 0
BBX 21 20 0 -4
BITMAP
000180
000200
000400
000800
001000
001000
021000
042000
44A490
48A510
28A908
28AF50
C10020
010000
020000
020000
040000
080000
080000
300000
ENDCHAR
STARTCHAR E75A
ENCODING 59226
SWIDTH 787 0
DWIDTH 21 0
BBX 21 21 0 -4
BITMAP
FFFFF8
FFFFF8
C06018
C06018
C06018
C06018
C06018
C06018
C06018
C06018
C06018
C06018
C07FF8
C07FF8
C07FF8
C07FF8
C07FF8
FFFFF8
FFFFF8
FFFFF8
FFFFF8
ENDCHAR
STARTCHAR E75B
ENCODING 59227
SWIDTH 787 0
DWIDTH 21 0
BBX 21 20 0 -4
BITMAP
800000
E00038
3C01E0
0FFF80
01FC00
180080
1E73C0
0E7380
0F2780
078F00
03DE00
03FE00
01FC00
00F800
007800
01BC00
039E00
038E00
038E00
038E00
ENDCHAR
STARTCHAR E75C
ENCODING 59228
SWIDTH 637 0
DWIDTH 17 0
BBX 17 22 0 -5
BITMAP
01C000
39CE00
388E00
180C00
000000
C00180
F1C780
79CF00
798F00
3C1E00
3E3E00
1F7C00
0FF800
07F000
03E000
01F000
04F000
0E7800
1E7C00
1E3C00
1E3C00
1E3C00
ENDCHAR
STARTCHAR E75D
ENCODING 59229
SWIDTH 637 0
DWIDTH 17 0
BBX 17 19 0 -3
BITMAP
000E00
007E00
00FF00
01FF00
03FF00
23FF00
27FF80
67FF80
6FFF80
EFFF80
EFFF80
EFFF80
FFFF80
7FFF00
7FFF00
3FFE00
3FFE00
1FFC00
07F000
ENDCHAR
STARTCHAR E75E
ENCODING 59230
SWIDTH 562 0
DWIDTH 15 0
BBX 14 23 0 -5
BITMAP
0300
0FC0
3FF0
FFFC
F87C
E01C
E01C
E01C
E01C
E01C
E01C
F03C
FCFC
7FF8
1FE0
3FF0
FFFC
F87C
F03C
FDFC
7FF8
1FE0
0380
ENDCHAR
STARTCHAR E75F
ENCODING 59231
SWIDTH 675 0
DWIDTH 18 0
BBX 18 18 0 -3
BITMAP
01F000
033800
061C00
0E0E00
1E1B00
3F1980
6BF0C0
CB00C0
C90040
C98040
C8C0C0
687380
383F00
1C0600
0C0C00
061800
03F000
01E000
ENDCHAR
STARTCHAR E760
ENCODING 59232
SWIDTH 675 0
DWIDTH 18 0
BBX 19 18 0 -3
BITMAP
FFFFC0
FFFFE0
FFFCE0
FFF860
FFF860
FFF820
FFFBE0
EFF7E0
C7E7E0
C3EFE0
C1DFE0
BE1FE0
FF1FE0
FF1FE0
FFFFE0
FFFFE0
FFFFE0
FFFFC0
ENDCHAR
STARTCHAR E761
ENCODING 59233
SWIDTH 750 0
DWIDTH 20 0
BBX 20 20 0 -4
BITMAP
0003F0
003FF0
03FFF0
0FFFF0
1FFFF0
3FFFF0
7FFFE0
7F7FE0
FD6FE0
FE5FE0
FF3FC0
FC0FC0
FE5FC0
FD6FC0
7B7F80
7FFF80
3FFF00
1FFE00
0FFC00
03F000
ENDCHAR
STARTCHAR E762
ENCODING 59234
SWIDTH 712 0
DWIDTH 19 0
BBX 19 11 0 1
BITMAP
00F800
01FC00
1F8C00
1EF400
3EFF00
7DFF80
FBFF80
F7FFC0
FFFFE0
77FFE0
07FFE0
ENDCHAR
STARTCHAR E763
ENCODING 59235
SWIDTH 562 0
DWIDTH 15 0
BBX 11 26 2 -6
BITMAP
0020
0040
0080
0100
0100
3F80
FFE0
FFE0
FFE0
FFE0
DFE0
BEE0
7FE0
5D20
24C0
FEC0
7FC0
7FC0
7FC0
7FC0
3F80
3F80
3F80
3F80
3F80
3F00
ENDCHAR
STARTCHAR E764
ENCODING 59236
SWIDTH 787 0
DWIDTH 21 0
BBX 21 19 0 -3
BITMAP
038300
044C80
041080
042080
044080
07FC00
1C83C0
630030
830218
823108
C33108
250118
0480B0
088080
084080
082080
081080
0D8880
020700
ENDCHAR
STARTCHAR E765
ENCODING 59237
SWIDTH 787 0
DWIDTH 21 0
BBX 21 6 0 3
BITMAP
040100
040100
250940
A52948
A52948
040100
ENDCHAR
STARTCHAR E766
ENCODING 59238
SWIDTH 562 0
DWIDTH 15 0
BBX 15 22 0 -4
BITMAP
4000
6800
6400
7600
3A00
3D00
3FA0
3FD0
3FC8
7FE8
7FEC
7FEC
FFEC
FFEC
7FDA
3FFA
3FF6
1FEC
1FFC
0FF8
07E0
0780
ENDCHAR
STARTCHAR E767
ENCODING 59239
SWIDTH 600 0
DWIDTH 16 0
BBX 16 22 0 -5
BITMAP
03E0
0C10
0C08
1408
1C0C
7414
601A
9029
8869
8A71
95F9
A255
A135
A1FA
64AA
677D
1439
1239
1A16
0610
0230
01E0
ENDCHAR
STARTCHAR E768
ENCODING 59240
SWIDTH 712 0
DWIDTH 19 0
BBX 19 19 0 -3
BITMAP
01F000
060C00
180300
300180
7EE080
7F1840
C48440
888420
884220
884220
88C220
892220
852440
431FC0
41FFC0
200080
100300
0C0600
03F800
ENDCHAR
STARTCHAR E769
ENCODING 59241
SWIDTH 712 0
DWIDTH 19 0
BBX 19 19 0 -3
BITMAP
01F000
07FC00
1F7F00
3F7F80
3F7F80
7EDFC0
7D87C0
FB83E0
F681E0
E580E0
ED80E0
ED80E0
ED80C0
6481C0
768180
398380
1FEF00
0FDE00
03F000
ENDCHAR
STARTCHAR E76A
ENCODING 59242
SWIDTH 637 0
DWIDTH 17 0
BBX 17 17 0 -2
BITMAP
03E000
0FF800
3FFE00
001E00
19EF00
76F700
EEFB80
EF7B80
EF7B80
EF7B80
EDBB80
75B700
79C000
3C0000
3FFE00
0FF800
03E000
ENDCHAR
STARTCHAR E76B
ENCODING 59243
SWIDTH 562 0
DWIDTH 15 0
BBX 14 14 0 -1
BITMAP
0380
0440
0C60
1390
2110
56AC
8C64
8C64
7398
1310
14A0
0C40
0480
0380
ENDCHAR
STARTCHAR E76C
ENCODING 59244
SWIDTH 637 0
DWIDTH 17 0
BBX 17 9 0 2
BITMAP
98F280
C92580
492800
596800
573000
361000
361000
229880
20E700
ENDCHAR
STARTCHAR E76D
ENCODING 59245
SWIDTH 675 0
DWIDTH 18 0
BBX 18 15 0 -1
BITMAP
00A000
01E000
0E4E00
1E1C40
C1C1C0
F8C780
1E1E40
C7F8C0
F1E7C0
3E1E40
C7F8C0
F9E7C0
3E1E00
07F800
01E000
ENDCHAR
STARTCHAR E76E
ENCODING 59246
SWIDTH 675 0
DWIDTH 18 0
BBX 18 19 0 -3
BITMAP
000E00
7FF980
820440
840240
840240
870740
858A40
848A80
848680
448680
450300
430100
2582C0
1E8380
038400
008400
008400
004400
007800
ENDCHAR
STARTCHAR E76F
ENCODING 59247
SWIDTH 675 0
DWIDTH 18 0
BBX 18 18 0 -3
BITMAP
700380
D806C0
C804C0
F807C0
F807C0
F807C0
F847C0
F9E7C0
FB37C0
FF3FC0
FFFFC0
FFFFC0
FFFFC0
FF3FC0
DE1EC0
CC0CC0
F807C0
700380
ENDCHAR
STARTCHAR E770
ENCODING 59248
SWIDTH 600 0
DWIDTH 16 0
BBX 16 20 0 -4
BITMAP
07E0
1FF8
3C3C
77EE
6FF6
FC3F
DBDB
DBEB
DBEB
DBFB
FDDB
6E76
77EE
381C
1FF8
07E0
0000
0600
1FF8
0800
ENDCHAR
STARTCHAR E771
ENCODING 59249
SWIDTH 712 0
DWIDTH 19 0
BBX 18 18 0 -3
BITMAP
03F000
0FFC00
1FFE00
3FFF00
7FFF80
7FFF80
FE1FC0
FE0FC0
FC0FC0
FC0FC0
FC0FC0
FE1FC0
7F3F80
7F1F80
3E1F00
1E1F00
0C0C00
040800
ENDCHAR
STARTCHAR E772
ENCODING 59250
SWIDTH 637 0
DWIDTH 17 0
BBX 17 17 0 -2
BITMAP
023F00
3E3F80
7E3F80
FE3F80
FE1F80
FF1F80
FF1F00
7F8F00
7F8600
7FC000
3FC000
3FE000
1FF800
1FF000
0FE000
07C000
078000
ENDCHAR
STARTCHAR E773
ENCODING 59251
SWIDTH 675 0
DWIDTH 18 0
BBX 17 20 0 -4
BITMAP
01C000
07E000
01C400
000F00
003F80
000F80
800380
E00380
E00380
E00380
E00380
E00380
F00380
F80F80
FE3F80
7FFF00
1FFC00
07F800
03E000
008000
ENDCHAR
STARTCHAR E774
ENCODING 59252
SWIDTH 600 0
DWIDTH 16 0
BBX 16 21 0 -4
BITMAP
0E00
1F00
1F80
0FC0
07E0
03F0
0FF8
3EFC
7C7C
7C3E
FE1F
FF0F
E007
E007
F007
FF0F
7E1E
7C3E
3C7C
1FF8
07E0
ENDCHAR
STARTCHAR E775
ENCODING 59253
SWIDTH 787 0
DWIDTH 21 0
BBX 20 11 0 1
BITMAP
002000
006000
065000
0E9000
FDFFF0
1FAEC0
0D7580
128B80
0C2280
09DD00
0E0300
ENDCHAR
STARTCHAR E776
ENCODING 59254
SWIDTH 712 0
DWIDTH 19 0
BBX 19 4 0 4
BITMAP
975720
D85EC0
BB5AE0
975320
ENDCHAR
STARTCHAR E777
ENCODING 59255
SWIDTH 712 0
DWIDTH 19 0
BBX 19 13 0 0
BITMAP
F70000
778000
3B8000
3DC000
1DEFE0
0EE7E0
0F7000
0EFBE0
1EF9E0
1DDC00
3BDE00
7B8E00
F70700
ENDCHAR
STARTCHAR E778
ENCODING 59256
SWIDTH 712 0
DWIDTH 19 0
BBX 19 9 0 2
BITMAP
7FBFE0
7F7FC0
067F80
0C0000
1C7E00
187C00
300000
7F7000
FF7000
ENDCHAR
STARTCHAR E779
ENCODING 59257
SWIDTH 675 0
DWIDTH 18 0
BBX 19 19 0 -3
BITMAP
0C0200
7F0F80
B201C0
E3B9C0
E7FC60
E7DEA0
F96BC0
7059C0
508980
340D00
283600
380200
0C4400
0A4C00
0A3800
099000
009000
007000
003000
ENDCHAR
STARTCHAR E77A
ENCODING 59258
SWIDTH 750 0
DWIDTH 20 0
BBX 20 23 0 -5
BITMAP
03F800
0FFF00
3FFFC0
3FFFE0
7FFFE0
3FFFE0
3FFFC0
3F9FC0
3FFFC0
3F9FC0
1FEFC0
FFFFF0
FFFFF0
000000
000000
000000
030C00
1FFF80
3FFFC0
7FDFE0
7F9FF0
FF07F0
3C03E0
ENDCHAR
STARTCHAR E77B
ENCODING 59259
SWIDTH 562 0
DWIDTH 15 0
BBX 14 22 0 -5
BITMAP
F01C
F03C
F078
F070
F000
F000
F7E0
FFF8
7FF8
7838
4038
0038
0038
0038
0038
0038
4038
E038
F038
E038
4038
0038
ENDCHAR
STARTCHAR E77C
ENCODING 59260
SWIDTH 675 0
DWIDTH 18 0
BBX 18 20 0 -4
BITMAP
060000
1D0000
1B0000
0DC000
0F3800
07E700
057C80
076440
0B9F80
077000
0DA000
1F6000
3BE000
5BA000
9E6000
EBE000
A64000
5DC000
3FC000
038000
ENDCHAR
STARTCHAR E77D
ENCODING 59261
SWIDTH 712 0
DWIDTH 19 0
BBX 18 24 0 -6
BITMAP
01B000
07FE00
0F0F00
3C0380
3001C0
E000C0
4030C0
C0C040
810040
810040
810040
8100C0
810080
808300
C0FC00
605000
600000
600000
300000
180000
0C0000
040000
030000
00E000
ENDCHAR
STARTCHAR E77E
ENCODING 59262
SWIDTH 825 0
DWIDTH 22 0
BBX 22 23 0 -5
BITMAP
FFFFFC
FFFFFC
FFFFFC
F0001C
F7FFDC
F7FFDC
F630DC
F6B6DC
F0B61C
FFB7FC
FFB7FC
FFB7FC
FFB7FC
FFB7FC
FFB7FC
FFB7FC
FF31FC
FF7DFC
FF7DFC
FF01FC
FFFFFC
FFFFFC
FFFFFC
ENDCHAR
STARTCHAR E77F
ENCODING 59263
SWIDTH 937 0
DWIDTH 25 0
BBX 24 10 0 1
BITMAP
07F81F
0FFC3F
1F7C3E
1E7E7E
3E7E7C
7C7E78
7C3FF8
7C3FF0
F81FE0
E00000
ENDCHAR
STARTCHAR E780
ENCODING 59264
SWIDTH 787 0
DWIDTH 21 0
BBX 21 25 0 -6
BITMAP
002000
003000
007000
00F800
01F800
03F000
07F000
0FF000
1FF000
3FF180
3FFFC0
7E7FE0
FE3FF0
FF1FF0
FF07F8
FF83F8
FB81F8
FB80F8
F10078
F00070
600070
7000E0
3000C0
080100
000200
ENDCHAR
STARTCHAR E781
ENCODING 59265
SWIDTH 975 0
DWIDTH 26 0
BBX 26 26 0 -7
BITMAP
FFFFFFC0
FFFFFFC0
FFFFFFC0
FFFFFFC0
FFFFFFC0
FFFFFFC0
FFFFFFC0
FFFFFFC0
FFFFFFC0
FFFFFFC0
FFFFFFC0
FFFFFFC0
FFF383C0
FFF301C0
FFF31BC0
FFF33FC0
FFF30FC0
FFF383C0
FFF3C1C0
FFF3F8C0
FFF3F8C0
FE6218C0
FE0701C0
FF0F83C0
FFFFFFC0
FFFFFFC0
ENDCHAR
STARTCHAR E782
ENCODING 59266
SWIDTH 900 0
DWIDTH 24 0
BBX 24 26 0 -7
BITMAP
00001C
3C007E
FF807F
FFE0FF
FFF0FF
FFF8FF
7FFCFF
7FFEFF
3FFEFF
1FFF7F
07FF7E
00FFFE
001FBC
0003B8
0005B0
000F60
000F80
001FC0
003FC0
003F80
007F80
007F00
007F00
007E00
007800
004000
ENDCHAR
STARTCHAR E783
ENCODING 59267
SWIDTH 712 0
DWIDTH 19 0
BBX 19 24 0 -6
BITMAP
003E00
0CB300
BB3100
D61100
8C6100
B43100
480C80
500360
D1C420
AE3DE0
E99A20
9E2620
882240
97B640
9FCF40
88B280
480280
240C80
124880
091B00
16FF00
1E9C00
016000
004000
ENDCHAR
STARTCHAR E784
ENCODING 59268
SWIDTH 600 0
DWIDTH 16 0
BBX 16 17 0 -2
BITMAP
0180
07E0
1EF8
7C7E
FC3F
FC3F
F82F
F82F
F02F
F00F
E007
D00B
DFCB
F1AF
3FFC
0FE0
0380
ENDCHAR
STARTCHAR E785
ENCODING 59269
SWIDTH 562 0
DWIDTH 15 0
BBX 13 13 1 0
BITMAP
0200
0700
0F00
0F80
0F80
3FC0
7FC0
AFD0
5FE0
FFF0
98D8
6030
3CC0
ENDCHAR
STARTCHAR E786
ENCODING 59270
SWIDTH 787 0
DWIDTH 21 0
BBX 21 16 0 -2
BITMAP
03FE00
0C1600
19BF00
3D2780
787470
390818
5A1618
F10F08
328BF8
5940F8
383FA0
083840
1C1000
085000
002000
03E000
ENDCHAR
STARTCHAR E787
ENCODING 59271
SWIDTH 562 0
DWIDTH 15 0
BBX 13 16 1 -2
BITMAP
3FE0
C1F0
87E8
8008
8008
8008
E038
BFE8
8008
8008
C018
BFE8
8008
8008
4018
3FE0
ENDCHAR
STARTCHAR E788
ENCODING 59272
SWIDTH 712 0
DWIDTH 19 0
BBX 19 15 0 -1
BITMAP
00E000
01FE00
0FFF80
07FFC0
3FDFC0
FFCFE0
0007E0
0003E0
0001E0
0003E0
0007C0
7F1FC0
3F7F80
1FFF00
0FFE00
ENDCHAR
STARTCHAR E789
ENCODING 59273
SWIDTH 712 0
DWIDTH 19 0
BBX 19 19 0 -3
BITMAP
01F000
07FC00
1E0F00
380380
7001C0
6000C0
6000E0
C7BC60
CC6460
CC6060
CC6060
CCF660
C73C60
6000C0
7001C0
380380
1C0700
0FFE00
03F000
ENDCHAR
STARTCHAR E78A
ENCODING 59274
SWIDTH 787 0
DWIDTH 21 0
BBX 21 5 0 4
BITMAP
000400
7F97C0
EF7DC0
CFFFF0
7797F8
ENDCHAR
STARTCHAR E78B
ENCODING 59275
SWIDTH 675 0
DWIDTH 18 0
BBX 18 19 0 -3
BITMAP
00C000
071C00
180200
200100
400080
400080
9B3F40
9B2440
9B2440
9B2440
9D2440
952440
952440
400080
400080
200100
180200
060C00
00F000
ENDCHAR
STARTCHAR E78C
ENCODING 59276
SWIDTH 562 0
DWIDTH 15 0
BBX 14 20 0 -3
BITMAP
1800
3000
7000
7800
FC00
FF00
FFC0
FFE0
7FF8
7FF8
3FFC
1FFC
0FFC
03FC
00FC
003C
0038
0038
0030
0020
ENDCHAR
STARTCHAR E78D
ENCODING 59277
SWIDTH 675 0
DWIDTH 18 0
BBX 17 10 1 1
BITMAP
058000
056200
0D5400
15FC00
1FFD00
3FFF80
3FF080
3EE080
6E6000
877000
ENDCHAR
STARTCHAR E78E
ENCODING 59278
SWIDTH 562 0
DWIDTH 15 0
BBX 15 14 0 -1
BITMAP
0380
13C0
3FF8
3838
3018
3018
E00E
E00E
600C
3118
3398
27C8
0FE0
1FF0
ENDCHAR
STARTCHAR E78F
ENCODING 59279
SWIDTH 562 0
DWIDTH 15 0
BBX 7 18 4 -3
BITMAP
18
4C
4C
EE
FC
FC
78
78
70
70
70
70
70
F0
F0
90
90
60
ENDCHAR
STARTCHAR E790
ENCODING 59280
SWIDTH 750 0
DWIDTH 20 0
BBX 19 4 0 4
BITMAP
FD7AE0
B2D5C0
D2D5A0
DD4AE0
ENDCHAR
STARTCHAR E791
ENCODING 59281
SWIDTH 675 0
DWIDTH 18 0
BBX 17 17 0 -2
BITMAP
00DF00
03EF80
07E780
0FE180
1FC080
3FC080
7F9F80
7F1F80
FE1F80
FC1F80
700F80
870F80
87EF80
C7F780
CFC380
FF8100
7FFF00
ENDCHAR
STARTCHAR E792
ENCODING 59282
SWIDTH 712 0
DWIDTH 19 0
BBX 19 11 0 1
BITMAP
7FE000
8FFC00
983F00
876780
BEFBC0
FE7FE0
8F1FE0
87E3E0
809C20
4F03C0
700000
ENDCHAR
STARTCHAR E793
ENCODING 59283
SWIDTH 712 0
DWIDTH 19 0
BBX 18 18 0 -2
BITMAP
000040
000080
00FF00
03FF00
07FF80
0FFF80
1FFF80
3FFF80
3FFF80
7FFF80
7FFF80
7FFF00
FBFF00
F7FE00
EFFC00
FFF800
FFE000
FF8000
ENDCHAR
STARTCHAR E794
ENCODING 59284
SWIDTH 712 0
DWIDTH 19 0
BBX 19 15 0 -1
BITMAP
0B4000
090000
624000
78A000
1C2000
24C000
84D000
760000
740000
0C0000
740000
54A760
6FC960
5EAB60
2000C0
ENDCHAR
STARTCHAR E795
ENCODING 59285
SWIDTH 712 0
DWIDTH 19 0
BBX 19 16 0 -2
BITMAP
FFFFE0
FFFFE0
FFFFE0
E7FFE0
E3FFE0
F1FFE0
F8FFE0
F1FFE0
E3FFE0
E703E0
FF03E0
FFFFE0
FFFFE0
FFFFE0
FFFFE0
FFFFE0
ENDCHAR
STARTCHAR E796
ENCODING 59286
SWIDTH 600 0
DWIDTH 16 0
BBX 16 9 0 1
BITMAP
10C8
18DC
30CC
6086
C183
6187
710E
3B0C
1B08
ENDCHAR
STARTCHAR E797
ENCODING 59287
SWIDTH 712 0
DWIDTH 19 0
BBX 19 11 0 1
BITMAP
7FFE00
7FFE00
4007E0
400820
000820
E00820
A00820
AFF820
B01820
AFE7E0
E7E7E0
ENDCHAR
STARTCHAR E798
ENCODING 59288
SWIDTH 712 0
DWIDTH 19 0
BBX 18 18 0 -2
BITMAP
00F000
03F800
07F800
0FFC00
1FFF00
3FFF80
3FFDC0
7FFFC0
FFFFC0
FFFFC0
FFFFC0
7FFFC0
3FFFC0
0BFF40
077FC0
07FF00
03FE00
01FE00
ENDCHAR
STARTCHAR E799
ENCODING 59289
SWIDTH 825 0
DWIDTH 22 0
BBX 22 22 0 -5
BITMAP
003800
007800
087840
1EFCE0
1FFFF0
1FFFE0
0F87C0
0F01C0
1E01E0
FE00FC
FC00FC
FC00FC
3E00F0
0E01E0
0F03C0
0FCFC0
1FFFE0
1FFFF0
1C7CE0
007800
003800
003800
ENDCHAR
STARTCHAR E79A
ENCODING 59290
SWIDTH 712 0
DWIDTH 19 0
BBX 19 5 0 4
BITMAP
002800
B9D800
FD8B40
8E76E0
000080
ENDCHAR
STARTCHAR E79B
ENCODING 59291
SWIDTH 712 0
DWIDTH 19 0
BBX 18 20 0 -4
BITMAP
01E000
071C00
380700
E000C0
F003C0
9C0E40
873840
80E040
804040
804040
804040
804040
804040
804040
804040
7041C0
1C4700
075C00
01F000
004000
ENDCHAR
STARTCHAR E79C
ENCODING 59292
SWIDTH 712 0
DWIDTH 19 0
BBX 19 19 0 -3
BITMAP
FFFFE0
FFFFE0
C00020
C00020
C00020
C00020
DF0020
D18020
D1E920
D1AD20
D1AD20
D1B620
D33220
CC0020
C00020
C00020
C00020
FFFFE0
FFFFE0
ENDCHAR
STARTCHAR E79D
ENCODING 59293
SWIDTH 712 0
DWIDTH 19 0
BBX 19 17 0 -2
BITMAP
7FFFC0
FFFFE0
C00060
C00060
CFBE60
CFBE60
CC0660
CC0660
CC0660
CC0660
CC0660
CC0660
CFBE60
CFBE60
C00060
FFFFE0
7FFFC0
ENDCHAR
STARTCHAR E79E
ENCODING 59294
SWIDTH 712 0
DWIDTH 19 0
BBX 19 17 0 -2
BITMAP
07F800
0BFE00
3FFF00
2FFF80
7FFFC0
5FFFC0
C00000
FFFFE0
C00000
FFFFE0
C00000
7FFFC0
7FFFC0
2FFF80
3FFF00
1BFE00
07F800
ENDCHAR
STARTCHAR E79F
ENCODING 59295
SWIDTH 712 0
DWIDTH 19 0
BBX 19 12 0 0
BITMAP
00F000
03F800
030C00
3E4F00
7E47C0
FE0FE0
FF0FE0
FF8FE0
FF9FE0
7FBFE0
3FFF80
07FE00
ENDCHAR
STARTCHAR E7A0
ENCODING 59296
SWIDTH 712 0
DWIDTH 19 0
BBX 18 15 0 -1
BITMAP
100000
7C0000
C0C000
87F000
CFF800
6C1C00
380C00
180E00
1C0E00
180C00
080C00
003C80
FFFFC0
FFFFC0
000080
ENDCHAR
STARTCHAR E7A1
ENCODING 59297
SWIDTH 712 0
DWIDTH 19 0
BBX 19 21 0 -4
BITMAP
300380
1FFF00
1FFF00
1FFF00
21F080
40E040
464740
8D48A0
C94520
C6E360
E1F0E0
FFFFE0
FFFFE0
7FBFC0
6FFFC0
7FFFC0
7FFFC0
27FEC0
0F1E00
091200
080200
ENDCHAR
STARTCHAR E7A2
ENCODING 59298
SWIDTH 562 0
DWIDTH 15 0
BBX 11 8 2 2
BITMAP
C000
E000
7000
3800
3800
7000
E7E0
47E0
ENDCHAR
STARTCHAR E7A3
ENCODING 59299
SWIDTH 712 0
DWIDTH 19 0
BBX 19 22 0 -5
BITMAP
FFFE00
FFFF00
C00380
C001C0
C000E0
C00060
C00060
C22860
C66C60
CC4660
D84260
CC4660
C4C460
C68C60
C08060
C00060
C00060
C00060
C00060
C00060
FFFFE0
FFFFE0
ENDCHAR
STARTCHAR E7A4
ENCODING 59300
SWIDTH 562 0
DWIDTH 15 0
BBX 11 24 2 -5
BITMAP
0C00
1E00
1F00
3F80
7F80
7FC0
FFC0
FFC0
FFE0
FFE0
FFE0
FFE0
FFE0
FFE0
FFE0
FFC0
7FC0
7FC0
3F80
1F00
0E00
0400
0400
0400
ENDCHAR
STARTCHAR E7A5
ENCODING 59301
SWIDTH 562 0
DWIDTH 15 0
BBX 15 15 0 -1
BITMAP
8000
8000
4000
2480
1240
0520
22D0
1928
24B4
125A
092C
04B6
0258
016C
00B0
ENDCHAR
STARTCHAR E7A6
ENCODING 59302
SWIDTH 825 0
DWIDTH 22 0
BBX 22 5 0 4
BITMAP
000400
000300
AFDF9C
EC99D4
AC98D8
ENDCHAR
STARTCHAR E7A7
ENCODING 59303
SWIDTH 787 0
DWIDTH 21 0
BBX 21 20 0 -4
BITMAP
005000
00D800
01DC00
03DE00
07DF00
0F8F80
1F07C0
3E43E0
7CC1F0
F9C0F8
7DC1F8
3EC3F0
1F47E0
0F8FC0
07DF80
03DF00
01DE00
00DC00
005800
001000
ENDCHAR
STARTCHAR E7A8
ENCODING 59304
SWIDTH 637 0
DWIDTH 17 0
BBX 17 17 0 -3
BITMAP
002000
07F000
0F7C00
188E00
300700
7FFB80
5FFB00
763B80
67F180
667B80
E63B80
7FBF80
3F9F00
3C0F00
1C1600
0FFC00
05F000
ENDCHAR
STARTCHAR E7A9
ENCODING 59305
SWIDTH 562 0
DWIDTH 15 0
BBX 16 16 0 -2
BITMAP
03C0
1C30
200C
4004
8002
83C2
87E2
87E1
87E1
87E2
83C2
8002
4004
2008
1810
07E0
ENDCHAR
STARTCHAR E7AA
ENCODING 59306
SWIDTH 675 0
DWIDTH 18 0
BBX 17 17 0 -2
BITMAP
FFFF80
FFFF80
FFFF80
FFFF80
FF3F80
FC0F80
FDFF80
FCFF80
FC1F80
FF0F80
FFCF80
FDCF80
FE1F80
FFFF80
FFFF80
FFFF80
FFFF80
ENDCHAR
STARTCHAR E7AB
ENCODING 59307
SWIDTH 825 0
DWIDTH 22 0
BBX 22 19 0 -3
BITMAP
003000
007000
007800
00F800
00FC00
01FC00
01FE00
030600
070300
07F380
0FF380
0F03C0
1E13C0
1E73E0
3E72F0
7E00F0
7FFFF8
FFFFF8
FFFFFC
ENDCHAR
STARTCHAR E7AC
ENCODING 59308
SWIDTH 787 0
DWIDTH 21 0
BBX 21 18 0 -3
BITMAP
003F00
01C0E0
030070
043030
083018
333618
63FF18
61FC18
40F818
C1FE30
C3FF30
C13260
E03060
6030C0
700040
3C0FC0
1FFCE0
03E000
ENDCHAR
STARTCHAR E7AD
ENCODING 59309
SWIDTH 825 0
DWIDTH 22 0
BBX 22 17 0 -2
BITMAP
000830
005DF8
0077FC
0077FC
0077FC
003678
79F000
CF3000
FFF000
FFF000
FFF000
36C000
1F0000
1F8000
1F8000
1F8000
0F0000
ENDCHAR
STARTCHAR E7AE
ENCODING 59310
SWIDTH 825 0
DWIDTH 22 0
BBX 22 12 0 0
BITMAP
03E000
063300
0D0300
081880
6800B0
C0000C
8002CC
C00020
EF8000
59F228
7FFDD0
0003E0
ENDCHAR
STARTCHAR E7AF
ENCODING 59311
SWIDTH 712 0
DWIDTH 19 0
BBX 19 14 0 -1
BITMAP
7FFFC0
FFFFE0
C07E60
C001E0
CF80E0
CFC0E0
CFC1E0
CFC3E0
CF87E0
CF0FE0
C01FE0
C03FE0
FFFFE0
7FFFC0
ENDCHAR
STARTCHAR E7B0
ENCODING 59312
SWIDTH 937 0
DWIDTH 25 0
BBX 25 15 0 -1
BITMAP
000E0000
000E0000
01FE0000
01FE0C00
01FE0C00
07FF8B80
07FF8880
1FFFF300
50000400
FFFFFF80
10000800
10C01000
0F002000
0400C000
03FF0000
ENDCHAR
STARTCHAR E7B1
ENCODING 59313
SWIDTH 937 0
DWIDTH 25 0
BBX 25 15 0 -1
BITMAP
E01E0380
C03E0180
C07F0180
80000180
80000080
80000080
80000080
807FFF80
807FFF80
807FFF80
807FFF80
C03FF380
C03FE080
E01FC180
F0020380
ENDCHAR
STARTCHAR E7B2
ENCODING 59314
SWIDTH 787 0
DWIDTH 21 0
BBX 21 18 0 -3
BITMAP
07FF80
0DFE80
0FFFC0
1F03C0
3E01E0
3C01F0
7C78F0
78F8F8
F0FC68
F8FC78
7878F8
7C30F0
3C01E0
3E01E0
1FFFC0
0FFFC0
0DFE80
07FF80
ENDCHAR
STARTCHAR E7B3
ENCODING 59315
SWIDTH 862 0
DWIDTH 23 0
BBX 23 23 0 -5
BITMAP
00FE00
03FF80
0FFFE0
1FFFF0
3FFFF8
3FFFF8
78003C
78003C
F8003E
C40046
E2008E
E1010E
F8C61E
FDC77E
FDC77E
7CC77C
78C63C
3FC3F8
3F83F8
1FFFF0
0FFFE0
03FF80
00FE00
ENDCHAR
STARTCHAR E7B4
ENCODING 59316
SWIDTH 862 0
DWIDTH 23 0
BBX 23 23 0 -5
BITMAP
FFFFFE
FFFFFE
C00006
C00006
C00006
C00006
C0E186
C0E186
C0F006
C0B106
C1B106
C19906
C1F906
C3F906
C31D06
C30D06
C00006
C00006
C00006
C00006
C00006
FFFFFE
FFFFFE
ENDCHAR
STARTCHAR E7B5
ENCODING 59317
SWIDTH 675 0
DWIDTH 18 0
BBX 19 19 0 -3
BITMAP
3FF1C0
FFF3C0
FFF3E0
FFF3E0
7FF3E0
01F3E0
01F3E0
71F3E0
F9F3E0
F9F3E0
F9F3E0
79F3E0
03F3E0
07E3E0
3FE3E0
FFC3E0
FF83E0
FF03C0
7C01C0
ENDCHAR
STARTCHAR E7B6
ENCODING 59318
SWIDTH 900 0
DWIDTH 24 0
BBX 24 13 0 0
BITMAP
03E380
03E7E0
03A7A0
0797A0
079720
078F10
078F10
F78F0F
8F8E8E
4F8E9E
4F9E9E
4E5E9C
3E7C7C
ENDCHAR
STARTCHAR E7B7
ENCODING 59319
SWIDTH 750 0
DWIDTH 20 0
BBX 20 18 0 -3
BITMAP
01FC00
07FF00
0FFF80
1F07D0
3E0170
3C0040
3801C0
7801C0
7C01D0
5C0170
0000F0
F000F0
F001E0
7E03E0
5F8FC0
0FFF80
03FF00
00FC00
ENDCHAR
STARTCHAR E7B8
ENCODING 59320
SWIDTH 862 0
DWIDTH 23 0
BBX 23 23 0 -5
BITMAP
FFFFFE
FFFFFE
C00006
C00006
C00006
C00006
C3E006
C37006
C33386
C33786
C3FE06
C3C706
C30186
C30186
C30786
C00006
C00006
C00006
C00006
C00006
C00006
FFFFFE
FFFFFE
ENDCHAR
STARTCHAR E7B9
ENCODING 59321
SWIDTH 825 0
DWIDTH 22 0
BBX 22 19 0 -3
BITMAP
003000
007000
007800
00F800
00FC00
01FC00
01FE00
030700
070300
07F380
0FF380
0F83C0
1E13C0
1E73E0
3E72F0
7E00F0
7FFFF8
FFFFF8
FFFFFC
ENDCHAR
STARTCHAR E7BA
ENCODING 59322
SWIDTH 825 0
DWIDTH 22 0
BBX 22 19 0 -3
BITMAP
070380
0CCCC0
083040
083040
084840
0FFFC0
1D86E0
650298
867B84
827904
867B84
650298
1D86E0
0BFFC0
084840
083040
083040
0CCCC0
070380
ENDCHAR
STARTCHAR E7BB
ENCODING 59323
SWIDTH 787 0
DWIDTH 21 0
BBX 21 19 0 -3
BITMAP
007000
03FE00
0FFF80
1E1BC0
3C01E0
3DC1F0
7C00F0
6200F0
C3C1F8
E1E018
F00018
F80018
FE0038
F9C078
E87FF8
0001F0
0019F0
000300
000200
ENDCHAR
STARTCHAR E7BC
ENCODING 59324
SWIDTH 675 0
DWIDTH 18 0
BBX 18 18 0 -3
BITMAP
03F800
0FFC00
1FFF00
3FFF80
7FFF80
7861C0
F7FFC0
EFDFC0
EFEFC0
EFF3C0
EFFDC0
FFFDC0
735DC0
7FFF80
3FFF80
1FFF00
0FFE00
07F800
ENDCHAR
STARTCHAR E7BD
ENCODING 59325
SWIDTH 562 0
DWIDTH 15 0
BBX 8 7 3 3
BITMAP
10
18
17
62
C2
22
07
ENDCHAR
STARTCHAR E7BE
ENCODING 59326
SWIDTH 562 0
DWIDTH 15 0
BBX 5 6 5 3
BITMAP
30
48
C8
F0
80
80
ENDCHAR
STARTCHAR E7BF
ENCODING 59327
SWIDTH 562 0
DWIDTH 15 0
BBX 4 6 5 3
BITMAP
30
40
60
30
90
60
ENDCHAR
STARTCHAR E7C0
ENCODING 59328
SWIDTH 562 0
DWIDTH 15 0
BBX 4 4 6 4
BITMAP
F0
90
90
D0
ENDCHAR
STARTCHAR E7C1
ENCODING 59329
SWIDTH 562 0
DWIDTH 15 0
BBX 5 6 5 3
BITMAP
40
50
60
60
50
98
ENDCHAR
STARTCHAR E7C2
ENCODING 59330
SWIDTH 562 0
DWIDTH 15 0
BBX 2 4 6 4
BITMAP
40
80
80
80
ENDCHAR
STARTCHAR E7C3
ENCODING 59331
SWIDTH 562 0
DWIDTH 15 0
BBX 2 2 6 5
BITMAP
C0
C0
ENDCHAR
STARTCHAR E7C4
ENCODING 59332
SWIDTH 562 0
DWIDTH 15 0
BBX 10 21 2 -5
BITMAP
0180
07C0
07C0
0FC0
1DC0
1FC0
3B80
3F80
3700
7F00
6E00
7C00
FC00
D800
5000
6000
4000
4000
4000
4000
4000
ENDCHAR
STARTCHAR E7C5
ENCODING 59333
SWIDTH 825 0
DWIDTH 22 0
BBX 21 21 0 -4
BITMAP
002000
7FEFF0
7F9FF0
7F8FF0
3F0FE0
3F1FC0
3F3F80
3F7F80
3FFE40
FFFC20
BFF810
BFF010
7FEC20
3FC840
3FDF58
3F9BF8
3F36D8
3E36D0
3D36F8
009800
006000
ENDCHAR
STARTCHAR F000
ENCODING 61440
SWIDTH 900 0
DWIDTH 24 0
BBX 24 25 0 -6
BITMAP
FFFFFF
FFFFFF
7FFFFE
3FFFFC
1FFFF8
0FFFF0
07FFE0
03FFC0
01FF80
00FF00
007E00
003C00
003C00
003C00
003C00
003C00
003C00
003C00
003C00
003C00
003C00
003C00
003C00
07FFE0
0FFFE0
ENDCHAR
STARTCHAR F001
ENCODING 61441
SWIDTH 862 0
DWIDTH 23 0
BBX 23 25 0 -6
BITMAP
00000C
00007E
0003FE
001FFE
00FFFE
00FFFE
00FFFE
00FFFE
00FFF6
00FF06
00F806
00C006
00C006
00C006
00C006
00C026
00C1FE
00C3FE
00C3FE
1EC3FE
7FC1F8
FFC000
FFC000
7F8000
1F0000
ENDCHAR
STARTCHAR F002
ENCODING 61442
SWIDTH 937 0
DWIDTH 25 0
BBX 25 25 0 -6
BITMAP
00F80000
07FF0000
0FFF8000
1FFFC000
3F07E000
7C01F000
7800F000
F800F800
F0007800
F0007800
F0007800
F0007800
F0007800
F0007800
7800F000
7C01F000
3F07E000
1FFFF000
0FFFF800
07FF7C00
01FC3E00
00001F00
00000F80
00000780
00000300
ENDCHAR
STARTCHAR F003
ENCODING 61443
SWIDTH 1012 0
DWIDTH 27 0
BBX 27 21 0 -4
BITMAP
7FFFFFC0
FFFFFFE0
C0000060
C0000060
C0000060
E00000E0
F00001E0
F80003E0
DC000760
CE000E60
C7003C60
C1C07060
C0E0E060
C071C060
C03F8060
C00E0060
C0000060
C0000060
C0000060
FFFFFFE0
7FFFFFC0
ENDCHAR
STARTCHAR F004
ENCODING 61444
SWIDTH 1012 0
DWIDTH 27 0
BBX 27 23 0 -5
BITMAP
03003800
1FE0FF00
3FF3FF80
7FFFFFC0
FFFFFFC0
FFFFFFC0
FFFFFFE0
FFFFFFE0
FFFFFFE0
FFFFFFC0
7FFFFFC0
7FFFFF80
3FFFFF80
1FFFFF00
0FFFFE00
07FFFC00
03FFF800
01FFF000
00FFE000
007F8000
003F8000
001E0000
000C0000
ENDCHAR
STARTCHAR F005
ENCODING 61445
SWIDTH 937 0
DWIDTH 25 0
BBX 25 23 0 -6
BITMAP
00080000
001C0000
001C0000
003E0000
003E0000
007F0000
007F0000
01FFC000
7FFFFF00
FFFFFF80
7FFFFF00
3FFFFE00
1FFFFC00
0FFFF800
07FFF000
03FFE000
03FFE000
07FFE000
07FFF000
07FFF000
07E3F000
0781F000
0E007000
ENDCHAR
STARTCHAR F006
ENCODING 61446
SWIDTH 937 0
DWIDTH 25 0
BBX 25 23 0 -6
BITMAP
00080000
001C0000
001C0000
003E0000
00360000
00670000
00630000
01C3C000
7FC1FF00
FC003F80
70000700
38000E00
1C001C00
0E003800
07007000
03006000
02006000
06006000
061C3000
067F3000
07E3F000
0781F000
0E007000
ENDCHAR
STARTCHAR F007
ENCODING 61447
SWIDTH 712 0
DWIDTH 19 0
BBX 19 23 0 -5
BITMAP
00E000
03F800
07FC00
0FFE00
0FFE00
0FFE00
0FFE00
0FFE00
0FFE00
07FC00
03F800
1CE780
3FBFC0
7FFFC0
7FFFC0
FFFFE0
FFFFE0
FFFFE0
FFFFE0
FFFFE0
FFFFE0
7FFFC0
7FFFC0
ENDCHAR
STARTCHAR F008
ENCODING 61448
SWIDTH 1087 0
DWIDTH 29 0
BBX 29 25 0 -6
BITMAP
7FFFFFF0
FFFFFFF8
C3000618
C3000618
C3000618
C3000618
FF0007F8
FF0007F8
C3000618
C3000618
C3000618
C3000618
FFFFFFF8
FFFFFFF8
C3000618
C3000618
C3000618
FF0007F8
FF0007F8
C3000618
C3000618
C3000618
C3000618
FFFFFFF8
7FFFFFF0
ENDCHAR
STARTCHAR F009
ENCODING 61449
SWIDTH 937 0
DWIDTH 25 0
BBX 25 21 0 -4
BITMAP
3FC1FE00
FFE3FF80
FFE3FF80
FFE3FF80
FFE3FF80
FFE3FF80
FFE3FF80
FFE3FF80
FFE3FF80
7FE3FF00
00000000
3FC1FE00
FFE3FF80
FFE3FF80
FFE3FF80
FFE3FF80
FFE3FF80
FFE3FF80
FFE3FF80
FFE3FF80
7FE3FF00
ENDCHAR
STARTCHAR F00A
ENCODING 61450
SWIDTH 1012 0
DWIDTH 27 0
BBX 26 21 0 -4
BITMAP
7E3F0F80
FF7F9FC0
FF7F9FC0
FF7F9FC0
FF7F9FC0
FE3F9FC0
00000000
00000000
FE3F9FC0
FF7F9FC0
FF7F9FC0
FF7F9FC0
FF7F9FC0
7E3F0F80
00000000
7E3F0F80
FF7F9FC0
FF7F9FC0
FF7F9FC0
FF7F9FC0
FE3F9FC0
ENDCHAR
STARTCHAR F00B
ENCODING 61451
SWIDTH 1012 0
DWIDTH 27 0
BBX 27 21 0 -4
BITMAP
7E1FFFC0
FF3FFFE0
FF3FFFE0
FF3FFFE0
FF3FFFE0
FE3FFFE0
00000000
00000000
FE3FFFE0
FF3FFFE0
FF3FFFE0
FF3FFFE0
FF3FFFE0
7E3FFFC0
00000000
7E1FFFC0
FF3FFFE0
FF3FFFE0
FF3FFFE0
FF3FFFE0
FE3FFFE0
ENDCHAR
STARTCHAR F00C
ENCODING 61452
SWIDTH 862 0
DWIDTH 23 0
BBX 23 17 0 -3
BITMAP
000038
00007C
0000FE
0001FE
0003FE
1007F8
380FF0
7C1FE0
FE3FC0
FF7F80
7FFF00
3FFE00
1FFC00
0FF800
07F000
03F000
01E000
ENDCHAR
STARTCHAR F00D
ENCODING 61453
SWIDTH 675 0
DWIDTH 18 0
BBX 18 18 0 -3
BITMAP
380600
7C0F00
FE1F80
FF3FC0
FFFF80
7FFF00
3FFE00
1FFC00
0FF800
0FFC00
1FFE00
3FFF00
7FFF80
FF7F80
FE3FC0
7C1F80
380F00
100200
ENDCHAR
STARTCHAR F00E
ENCODING 61454
SWIDTH 937 0
DWIDTH 25 0
BBX 25 25 0 -6
BITMAP
00F80000
07FF0000
0FFF8000
1FFFC000
3F07E000
7C01F000
7860F000
F860F800
F0607800
F0607800
F7FE7800
F3FE7800
F0607800
F0607800
7860F000
7C21F000
3F07E000
1FFFF000
0FFFF800
07FF7C00
01FC3E00
00001F00
00000F80
00000780
00000300
ENDCHAR
STARTCHAR F010
ENCODING 61456
SWIDTH 937 0
DWIDTH 25 0
BBX 25 25 0 -6
BITMAP
00F80000
07FF0000
0FFF8000
1FFFC000
3F07E000
7C01F000
7800F000
F800F800
F0007800
F0007800
F7FE7800
F3FE7800
F0007800
F0007800
7800F000
7C01F000
3F07E000
1FFFF000
0FFFF800
07FF7C00
01FC3E00
00001F00
00000F80
00000780
00000300
ENDCHAR
STARTCHAR F011
ENCODING 61457
SWIDTH 862 0
DWIDTH 23 0
BBX 22 24 0 -6
BITMAP
007800
007800
007800
0E79C0
1F79E0
3F79F0
3E79F0
7C78F8
787878
F0783C
F0783C
F0783C
F0303C
F0003C
F0003C
F0003C
780078
7C0078
3E00F8
3F03F0
1FFFE0
0FFFC0
03FF00
00FC00
ENDCHAR
STARTCHAR F012
ENCODING 61458
SWIDTH 1012 0
DWIDTH 27 0
BBX 27 23 0 -5
BITMAP
000001E0
000001E0
000001E0
000001E0
000001E0
000001E0
000001E0
000001E0
000079E0
000079E0
000079E0
000079E0
000079E0
000E79E0
001E79E0
001E79E0
001E79E0
03DE79E0
03DE79E0
F3DE79E0
F3DE79E0
F3DE79E0
F3DE79E0
ENDCHAR
STARTCHAR F013
ENCODING 61459
SWIDTH 862 0
DWIDTH 23 0
BBX 23 23 0 -5
BITMAP
003C00
007C00
007C00
0E7CE0
1FFFF0
3FFFF8
1FFFF0
0FFFE0
1FC7F0
7F01FC
FF01FE
FF01FE
FF01FE
FF01FE
1F83F0
0FFFE0
1FFFF0
3FFFF8
3FFFF8
1EFEF0
0C7C60
007C00
007C00
ENDCHAR
STARTCHAR F014
ENCODING 61460
SWIDTH 787 0
DWIDTH 21 0
BBX 21 23 0 -5
BITMAP
01FC00
03FE00
030600
060300
FFFFF8
FFFFF8
300060
300060
300060
336660
336660
336660
336660
336660
336660
336660
336660
336660
322260
300060
300060
3FFFE0
1FFFC0
ENDCHAR
STARTCHAR F015
ENCODING 61461
SWIDTH 900 0
DWIDTH 24 0
BBX 24 19 0 -3
BITMAP
001878
007E78
00FF78
01E7F8
03DBF8
073CF8
1E7E78
3DFFBC
7BFFDE
E7FFEF
CFFFF3
1FFFF8
1FFFF8
1FC3F8
1FC3F8
1FC3F8
1FC3F8
1FC3F8
1FC3F8
ENDCHAR
STARTCHAR F016
ENCODING 61462
SWIDTH 862 0
DWIDTH 23 0
BBX 23 27 0 -7
BITMAP
FFFF00
FFFFC0
C006E0
C00670
C00638
C0061C
C0060C
C00606
C007FE
C003FE
C00006
C00006
C00006
C00006
C00006
C00006
C00006
C00006
C00006
C00006
C00006
C00006
C00006
C00006
C00006
FFFFFE
FFFFFE
ENDCHAR
STARTCHAR F017
ENCODING 61463
SWIDTH 862 0
DWIDTH 23 0
BBX 23 23 0 -5
BITMAP
00FE00
03FF80
0FFFE0
1FC7F0
3E00F8
3C0078
78183C
70181C
F0181E
F0181E
E0180E
E0180E
E1F80E
F1F81E
F0001E
70001C
78003C
3C0078
3E00F8
1F83F0
0FFFE0
03FF80
00FE00
ENDCHAR
STARTCHAR F018
ENCODING 61464
SWIDTH 1012 0
DWIDTH 27 0
BBX 27 19 0 -3
BITMAP
01F1F000
03F1F800
03F1F800
07F1F800
07FFFC00
07FFFC00
0FF1FE00
0FE1FE00
1FE1FE00
1FE0FF00
1FE0FF00
3FE0FF80
3FFFFF80
7FFFFF80
7FFFFFC0
7FE0FFC0
FFE0FFE0
FFE0FFE0
FFE0FFE0
ENDCHAR
STARTCHAR F019
ENCODING 61465
SWIDTH 937 0
DWIDTH 25 0
BBX 25 23 0 -5
BITMAP
003E0000
003E0000
003E0000
003E0000
003E0000
003E0000
003E0000
003E0000
07FFF000
07FFE000
03FFC000
01FF8000
00FF0000
007F0000
003C0000
7F9CFF00
FFC1FF80
FFE3FF80
FFFFFF80
FFFF9980
FFFF9980
FFFFFF80
FFFFFF80
ENDCHAR
STARTCHAR F01A
ENCODING 61466
SWIDTH 862 0
DWIDTH 23 0
BBX 23 23 0 -5
BITMAP
00FE00
03FF80
0FFFE0
1FC7F0
3E00F8
3C0078
78783C
70781C
F0781E
F0781E
E0780E
E0780E
E3FF8E
F1FE1E
F0FC1E
70781C
78303C
3C0078
3E00F8
1F83F0
0FFFE0
03FF80
00FE00
ENDCHAR
STARTCHAR F01B
ENCODING 61467
SWIDTH 862 0
DWIDTH 23 0
BBX 23 23 0 -5
BITMAP
00FE00
03FF80
0FFFE0
1FC7F0
3E00F8
3C0078
78303C
70781C
F0FC1E
F1FE1E
E3FF0E
E0780E
E0780E
F0781E
F0781E
70781C
78783C
3C0078
3E00F8
1F83F0
0FFFE0
03FF80
00FE00
ENDCHAR
STARTCHAR F01C
ENCODING 61468
SWIDTH 862 0
DWIDTH 23 0
BBX 23 19 0 -3
BITMAP
0FFFE0
0FFFE0
1FFFF0
1C0070
380070
380038
380038
70001C
70001C
E0000E
FF01FE
FF01FE
FF83FE
FFFFFE
FFFFFE
FFFFFE
FFFFFE
FFFFFE
FFFFFE
ENDCHAR
STARTCHAR F01D
ENCODING 61469
SWIDTH 862 0
DWIDTH 23 0
BBX 23 23 0 -5
BITMAP
00FE00
03FF80
0FFFE0
1FC7F0
3E00F8
3C0078
78C03C
70F01C
F0FC1E
F0FE1E
E0FF8E
E0FFCE
E0FFCE
F0FF1E
F0FC1E
70F81C
78E03C
3C0078
3E00F8
1F83F0
0FFFE0
03FF80
00FE00
ENDCHAR
STARTCHAR F01E
ENCODING 61470
SWIDTH 862 0
DWIDTH 23 0
BBX 23 23 0 -5
BITMAP
007C00
03FF86
07FFCE
1FFFFE
3F83FE
3E00FE
7C00FE
7801FE
F003FE
F001FC
F00000
F00000
F00000
F00000
F00000
780000
7C0040
3E00E0
3F01F0
1FFFF0
0FFFE0
03FF80
00FE00
ENDCHAR
STARTCHAR F021
ENCODING 61473
SWIDTH 862 0
DWIDTH 23 0
BBX 23 23 0 -5
BITMAP
001800
01FF00
07FFC6
0FFFEE
1FC7FE
3E00FE
7C007E
7800FE
7801FE
F001FE
000000
000000
000000
000000
FF801E
FF003C
FE007C
FE00F8
FF01F8
FFFFF0
EFFFE0
C3FF80
00FE00
ENDCHAR
ENDFONT
